<?xml version="1.0" encoding="UTF-8"?>
<!DOCTYPE svg PUBLIC "-//W3C//DTD SVG 1.1//EN" "http://www.w3.org/Graphics/SVG/1.1/DTD/svg11.dtd">
<svg xmlns="http://www.w3.org/2000/svg" version="1.1" width="44px" height="90px" style="shape-rendering:geometricPrecision; text-rendering:geometricPrecision; image-rendering:optimizeQuality; fill-rule:evenodd; clip-rule:evenodd" xmlns:xlink="http://www.w3.org/1999/xlink">
<g><path style="opacity:1" fill="#fcfcfc" d="M -0.5,-0.5 C 14.1667,-0.5 28.8333,-0.5 43.5,-0.5C 43.5,29.5 43.5,59.5 43.5,89.5C 28.8333,89.5 14.1667,89.5 -0.5,89.5C -0.5,59.5 -0.5,29.5 -0.5,-0.5 Z"/></g>
<g><path style="opacity:1" fill="#191919" d="M 24.5,22.5 C 27.1342,26.549 29.3008,30.8823 31,35.5C 31.9656,40.3901 31.4656,45.0568 29.5,49.5C 27.7568,51.4364 25.7568,51.7698 23.5,50.5C 27.7436,49.0166 29.7436,46.0166 29.5,41.5C 28.8894,35.9452 26.8894,30.9452 23.5,26.5C 19.6015,31.6095 17.4348,37.2762 17,43.5C 19.3333,46.1667 21.6667,46.1667 24,43.5C 24.121,35.5753 23.2876,35.5753 21.5,43.5C 20.3483,40.8938 20.1816,38.2272 21,35.5C 23.9938,34.1102 25.9938,35.1102 27,38.5C 28.2486,44.0106 26.082,47.0106 20.5,47.5C 14.9055,46.4216 13.0722,43.0883 15,37.5C 17,33.5 19,29.5 21,25.5C 21.7589,23.9371 22.9256,22.9371 24.5,22.5 Z"/></g>
<g><path style="opacity:1" fill="#e1e1e1" d="M 20.5,18.5 C 20.56,17.9569 20.8933,17.6236 21.5,17.5C 22.3199,19.3188 23.3199,20.9855 24.5,22.5C 22.9256,22.9371 21.7589,23.9371 21,25.5C 19,29.5 17,33.5 15,37.5C 13.0722,43.0883 14.9055,46.4216 20.5,47.5C 26.082,47.0106 28.2486,44.0106 27,38.5C 25.9938,35.1102 23.9938,34.1102 21,35.5C 20.1816,38.2272 20.3483,40.8938 21.5,43.5C 23.2876,35.5753 24.121,35.5753 24,43.5C 21.6667,46.1667 19.3333,46.1667 17,43.5C 17.4348,37.2762 19.6015,31.6095 23.5,26.5C 26.8894,30.9452 28.8894,35.9452 29.5,41.5C 29.7436,46.0166 27.7436,49.0166 23.5,50.5C 25.7568,51.7698 27.7568,51.4364 29.5,49.5C 29.5,50.1667 29.5,50.8333 29.5,51.5C 27.215,53.1182 25.215,55.1182 23.5,57.5C 24.0016,58.521 24.6683,58.6877 25.5,58C 31.343,51.2275 32.843,52.0608 30,60.5C 27.9739,64.0262 25.1405,66.6929 21.5,68.5C 16.5229,66.0277 13.1896,62.1943 11.5,57C 12.3025,54.2172 13.8025,54.0505 16,56.5C 18.3841,58.8792 19.8841,61.7125 20.5,65C 20.8333,65.1667 21.1667,65.3333 21.5,65.5C 22.4287,64.3112 22.762,62.9778 22.5,61.5C 22.5,60.8333 22.5,60.1667 22.5,59.5C 23.0803,55.351 22.4136,51.6843 20.5,48.5C 19.8333,48.8333 19.1667,49.1667 18.5,49.5C 13.8887,48.8796 11.8887,46.2129 12.5,41.5C 13.4051,34.022 16.2385,27.3554 21,21.5C 21.7401,20.2506 21.5735,19.2506 20.5,18.5 Z"/></g>
<g><path style="opacity:1" fill="#1d1d1d" d="M 20.5,18.5 C 21.5735,19.2506 21.7401,20.2506 21,21.5C 16.2385,27.3554 13.4051,34.022 12.5,41.5C 11.8887,46.2129 13.8887,48.8796 18.5,49.5C 18.5,50.8333 17.8333,51.5 16.5,51.5C 11.6378,49.7864 9.30442,46.2864 9.5,41C 11.4616,32.5783 15.1282,25.0783 20.5,18.5 Z"/></g>
<g><path style="opacity:1" fill="#1b1b1b" d="M 19.5,56.5 C 19.7497,58.674 20.7497,60.3406 22.5,61.5C 22.762,62.9778 22.4287,64.3112 21.5,65.5C 21.1667,65.3333 20.8333,65.1667 20.5,65C 19.8841,61.7125 18.3841,58.8792 16,56.5C 13.8025,54.0505 12.3025,54.2172 11.5,57C 13.1896,62.1943 16.5229,66.0277 21.5,68.5C 25.1405,66.6929 27.9739,64.0262 30,60.5C 32.843,52.0608 31.343,51.2275 25.5,58C 24.6683,58.6877 24.0016,58.521 23.5,57.5C 25.215,55.1182 27.215,53.1182 29.5,51.5C 30.8333,51.5 32.1667,51.5 33.5,51.5C 34.301,61.1841 30.1344,67.5174 21,70.5C 12.3527,67.2251 8.18602,60.8917 8.5,51.5C 12.8012,51.818 16.4678,53.4847 19.5,56.5 Z"/></g>
<g><path style="opacity:1" fill="#858585" d="M 20.5,48.5 C 20.3354,51.5184 20.502,54.5184 21,57.5C 21.2784,58.4158 21.7784,59.0825 22.5,59.5C 22.5,60.1667 22.5,60.8333 22.5,61.5C 20.7497,60.3406 19.7497,58.674 19.5,56.5C 19.5,55.1667 19.5,53.8333 19.5,52.5C 18.209,52.7373 17.209,52.404 16.5,51.5C 17.8333,51.5 18.5,50.8333 18.5,49.5C 19.1667,49.1667 19.8333,48.8333 20.5,48.5 Z"/></g>
<g><path style="opacity:1" fill="#191919" d="M 20.5,48.5 C 22.4136,51.6843 23.0803,55.351 22.5,59.5C 21.7784,59.0825 21.2784,58.4158 21,57.5C 20.502,54.5184 20.3354,51.5184 20.5,48.5 Z"/></g>
</svg>
