<?xml version="1.0" standalone="no"?>
<!DOCTYPE svg PUBLIC "-//W3C//DTD SVG 20010904//EN"
 "http://www.w3.org/TR/2001/REC-SVG-20010904/DTD/svg10.dtd">
<svg version="1.0" xmlns="http://www.w3.org/2000/svg"
 width="120.000000pt" height="120.000000pt" viewBox="0 0 120.000000 120.000000"
 preserveAspectRatio="xMidYMid meet">

<g transform="translate(0.000000,120.000000) scale(0.100000,-0.100000)"
fill="#000000" stroke="none">
<path d="M30 1189 c0 -6 8 -8 19 -4 11 3 22 1 26 -5 7 -11 25 -4 25 11 0 5
-16 9 -35 9 -19 0 -35 -5 -35 -11z"/>
<path d="M219 1183 c-12 -16 -12 -17 1 -7 8 6 22 14 30 17 13 5 12 6 -1 6 -9
1 -23 -7 -30 -16z"/>
<path d="M385 1098 c9 -136 -7 -263 -37 -295 -12 -13 -34 -24 -52 -24 -22 -1
-25 -3 -10 -6 38 -7 63 -46 85 -133 18 -72 20 -107 17 -225 -4 -163 -15 -194
-67 -208 l-35 -9 48 -43 48 -44 -7 -56 c-5 -34 -4 -55 3 -55 5 0 13 32 16 70
8 77 19 91 84 105 17 4 32 10 32 13 0 4 -18 17 -39 29 -34 20 -40 29 -55 87
-10 41 -16 110 -17 183 0 65 -4 142 -8 170 -9 61 8 112 39 120 24 6 24 5 5 49
-9 23 -15 77 -16 167 -2 169 -7 207 -26 207 -13 0 -14 -15 -8 -102z"/>
<path d="M444 1050 c-1 -124 1 -147 11 -133 11 15 12 10 8 -30 -5 -43 -4 -47
12 -40 12 4 16 3 12 -5 -5 -6 14 -19 49 -32 45 -16 68 -19 115 -14 33 4 59 11
59 16 0 5 5 6 12 2 7 -4 8 -3 4 5 -4 6 -11 9 -16 6 -17 -11 -17 33 1 49 11 9
19 27 19 41 0 14 5 25 10 25 6 0 3 11 -6 25 -21 33 -4 32 20 -1 12 -17 16 -35
13 -53 -3 -15 0 -40 8 -54 13 -26 9 -33 -18 -28 -5 1 -6 -3 -2 -9 10 -16 82
-12 89 5 8 21 27 19 19 -2 -5 -15 -2 -15 18 3 46 40 70 44 27 4 -17 -15 -18
-20 -6 -20 29 0 39 27 38 101 0 41 0 95 0 121 -1 26 6 61 15 77 17 34 10 91
-11 91 -8 0 -11 -6 -7 -17 4 -11 3 -14 -5 -9 -8 4 -12 0 -12 -11 0 -15 -2 -16
-10 -3 -13 20 -13 33 0 25 6 -3 10 -1 10 4 0 6 -9 11 -20 11 -11 0 -20 -7 -20
-15 0 -8 -9 -15 -21 -15 -11 0 -17 -4 -14 -10 3 -5 1 -20 -6 -32 -9 -19 -9
-21 2 -11 10 10 18 5 41 -30 15 -23 28 -47 28 -54 0 -6 5 -13 12 -15 7 -3 6
-7 -5 -11 -9 -3 -17 -2 -17 4 0 15 -41 102 -46 97 -2 -3 4 -23 13 -47 12 -30
13 -45 6 -52 -13 -13 -43 37 -43 71 0 11 -5 20 -11 20 -6 0 -8 9 -4 20 3 11 2
20 -3 20 -5 0 -12 9 -15 20 -3 11 -10 20 -17 20 -6 0 -8 -4 -5 -10 3 -5 0 -10
-7 -10 -7 0 -5 -5 6 -12 18 -10 18 -11 -3 -22 l-21 -12 30 -39 c16 -22 29 -44
29 -50 1 -5 -8 1 -19 15 -21 27 -26 21 -10 -13 10 -20 9 -20 -2 -3 -7 11 -23
30 -35 42 -18 20 -19 23 -5 27 11 3 3 10 -25 22 -35 15 -41 21 -33 35 6 12 5
23 -5 36 -10 14 -13 15 -13 4 1 -8 0 -23 0 -33 -2 -16 -4 -16 -24 4 -23 21
-60 39 -81 39 -15 0 6 -21 24 -24 30 -5 58 -27 53 -41 -5 -12 -10 -10 -24 8
l-19 22 6 -25 6 -25 -19 20 c-10 12 -15 15 -10 8 11 -16 -5 -17 -39 -1 -16 7
-25 19 -25 35 0 19 -5 23 -32 23 l-33 0 -1 -150z m127 61 c13 -10 31 -21 39
-25 8 -3 4 -4 -9 -2 -14 3 -31 0 -38 -6 -10 -8 -15 -4 -23 17 -5 14 -10 28
-10 31 0 9 19 3 41 -15z m94 -1 c-4 -6 -1 -18 6 -26 7 -8 14 -30 15 -47 l3
-32 -16 30 c-9 17 -18 25 -20 18 -2 -7 1 -22 7 -34 10 -17 9 -20 -2 -17 -23 8
-33 53 -18 87 7 17 17 31 22 31 5 0 6 -5 3 -10z m-105 -90 c16 -48 6 -64 -21
-31 -22 28 -28 101 -6 82 8 -6 20 -29 27 -51z m24 24 c5 -14 4 -15 -9 -4 -17
14 -19 20 -6 20 5 0 12 -7 15 -16z m132 8 c-6 -11 5 -26 29 -40 13 -7 15 -12
6 -12 -8 0 -23 7 -33 17 -20 18 -24 43 -7 43 5 0 8 -4 5 -8z m-97 -29 c10 -19
9 -22 -4 -17 -8 4 -15 15 -15 27 0 23 2 22 19 -10z m-142 -5 c-3 -8 -6 -5 -6
6 -1 11 2 17 5 13 3 -3 4 -12 1 -19z m209 -49 c3 -5 -3 -9 -13 -9 -27 0 -63
11 -63 19 0 10 69 1 76 -10z m189 4 c3 -9 3 -18 1 -21 -7 -7 -48 5 -69 20 -15
11 -12 13 22 14 27 1 41 -3 46 -13z m-228 -50 c10 -16 23 -31 30 -36 7 -4 10
-14 7 -22 -4 -8 -10 -13 -14 -10 -5 3 -11 1 -15 -5 -3 -5 -14 -10 -23 -9 -12
0 -10 3 6 9 19 8 21 13 12 30 -13 24 -32 25 -64 5 -17 -11 -22 -22 -18 -37 3
-14 1 -19 -6 -14 -20 12 -14 35 14 53 l26 16 -36 15 c-50 20 -45 32 14 32 43
0 52 -4 67 -27z m45 15 c-8 -8 -9 -15 -1 -25 9 -10 8 -13 -4 -13 -8 0 -17 6
-20 14 -6 14 10 36 27 36 6 0 5 -5 -2 -12z m160 -11 c18 1 25 -1 15 -3 -9 -3
-15 -9 -12 -13 2 -5 -4 -16 -15 -26 -14 -13 -23 -14 -37 -7 -17 10 -17 11 -1
17 14 5 15 11 8 25 -13 24 -13 40 0 20 5 -9 22 -14 42 -13z m61 -24 c-7 -2
-19 -2 -25 0 -7 3 -2 5 12 5 14 0 19 -2 13 -5z"/>
<path d="M590 930 c0 -6 7 -10 15 -10 8 0 15 2 15 4 0 2 -7 6 -15 10 -8 3 -15
1 -15 -4z"/>
<path d="M640 1191 c0 -6 4 -13 10 -16 6 -3 7 1 4 9 -7 18 -14 21 -14 7z"/>
<path d="M702 1175 c6 -14 15 -25 20 -25 5 0 1 11 -8 25 -9 14 -18 25 -20 25
-2 0 2 -11 8 -25z"/>
<path d="M792 1189 c2 -7 10 -15 17 -17 8 -3 12 1 9 9 -2 7 -10 15 -17 17 -8
3 -12 -1 -9 -9z"/>
<path d="M1041 1168 c-9 -29 -14 -195 -6 -186 2 2 26 37 54 78 28 41 62 90 77
108 l27 32 -71 0 -70 0 -11 -32z"/>
<path d="M286 1143 c2 -21 3 -43 3 -50 1 -7 10 -10 22 -8 32 6 36 15 14 32
-14 11 -16 17 -7 20 14 5 17 33 3 33 -5 0 -16 2 -24 5 -11 5 -13 -2 -11 -32z"/>
<path d="M17 1132 c-21 -23 -22 -42 -3 -42 7 0 16 12 19 28 7 34 4 36 -16 14z"/>
<path d="M173 1131 c-2 -24 23 -35 31 -14 3 8 4 19 0 24 -10 16 -30 10 -31
-10z"/>
<path d="M98 1116 c12 -15 19 -32 16 -37 -3 -5 -1 -9 3 -9 5 0 14 9 21 20 10
17 10 20 -5 20 -9 0 -26 8 -37 18 -18 15 -18 14 2 -12z"/>
<path d="M200 1065 c0 -8 4 -15 10 -15 5 0 7 7 4 15 -4 8 -8 15 -10 15 -2 0
-4 -7 -4 -15z"/>
<path d="M152 1054 c10 -10 20 -15 24 -12 3 4 -5 12 -18 18 -22 12 -22 12 -6
-6z"/>
<path d="M75 1049 c-11 -17 1 -21 15 -4 8 9 8 15 2 15 -6 0 -14 -5 -17 -11z"/>
<path d="M254 1053 c-6 -2 -9 -15 -6 -28 4 -25 16 -32 26 -16 9 14 -7 48 -20
44z"/>
<path d="M850 1055 c0 -5 5 -17 10 -25 5 -8 10 -10 10 -5 0 6 -5 17 -10 25 -5
8 -10 11 -10 5z"/>
<path d="M1123 944 c-70 -79 -73 -82 -62 -113 10 -29 14 -31 62 -31 29 0 58 4
65 8 9 6 12 36 10 113 l-3 104 -72 -81z"/>
<path d="M90 1010 c0 -5 5 -10 11 -10 5 0 7 5 4 10 -3 6 -8 10 -11 10 -2 0 -4
-4 -4 -10z"/>
<path d="M123 975 l-23 -22 25 -11 c14 -6 25 -18 25 -25 0 -18 -23 -67 -32
-67 -5 0 -8 -4 -8 -10 0 -5 9 -10 19 -10 15 0 21 9 25 38 6 34 1 122 -6 126
-2 1 -13 -8 -25 -19z"/>
<path d="M0 956 c0 -8 7 -16 15 -20 13 -4 14 -2 5 14 -13 23 -20 26 -20 6z"/>
<path d="M216 945 c4 -8 8 -15 10 -15 2 0 4 7 4 15 0 8 -4 15 -10 15 -5 0 -7
-7 -4 -15z"/>
<path d="M983 923 c-1 -24 -1 -25 7 -8 11 26 12 35 2 35 -4 0 -8 -12 -9 -27z"/>
<path d="M301 903 c-13 -28 -1 -30 22 -5 21 23 21 29 3 29 -8 0 -19 -11 -25
-24z"/>
<path d="M250 918 c0 -4 4 -18 10 -33 6 -15 6 -24 1 -20 -5 3 -13 0 -17 -6 -3
-6 0 -15 7 -20 19 -12 79 -11 79 1 0 6 -9 10 -20 10 -11 0 -20 6 -20 13 0 12
-39 67 -40 55z"/>
<path d="M23 893 c-17 -6 -17 -30 0 -37 9 -5 9 -7 -1 -12 -15 -7 -6 -24 13
-24 9 0 13 12 12 40 -2 41 -3 42 -24 33z"/>
<path d="M710 846 c0 -2 7 -7 16 -10 8 -3 12 -2 9 4 -6 10 -25 14 -25 6z"/>
<path d="M1033 839 c-7 -7 -13 -18 -13 -23 0 -6 -12 -20 -26 -31 l-26 -21 15
-69 c9 -39 20 -88 26 -110 l9 -40 1 36 c2 68 14 129 25 129 20 -1 126 35 126
42 0 4 -7 5 -15 2 -8 -4 -35 -3 -60 0 -44 7 -44 7 -47 52 -2 36 -5 43 -15 33z"/>
<path d="M810 745 c-38 -21 -59 -24 -140 -24 -52 -1 -123 6 -158 14 -55 13
-65 13 -78 1 -26 -27 -10 -123 20 -118 10 2 24 -5 32 -15 7 -10 14 -13 14 -8
1 14 20 -17 20 -33 0 -7 -4 -10 -10 -7 -5 3 -10 -3 -10 -14 0 -11 -5 -23 -11
-27 -17 -10 -30 17 -26 54 2 20 -1 32 -9 32 -8 0 -12 -22 -13 -67 0 -38 -1
-103 -2 -146 -2 -56 2 -82 12 -92 12 -12 14 -9 13 25 0 22 3 40 8 40 4 0 8 -5
8 -12 0 -6 8 -20 17 -31 17 -18 17 -19 -1 -33 -18 -13 -18 -14 8 -24 37 -14
45 -12 22 5 -17 13 -17 15 -3 21 21 8 37 -3 30 -21 -3 -10 1 -15 16 -15 17 0
19 4 12 22 -4 12 -18 29 -31 37 -15 10 -21 11 -16 3 4 -6 3 -12 -3 -12 -6 0
-15 9 -21 20 -6 11 -7 20 -3 20 11 0 10 124 -1 131 -16 12 2 39 21 32 16 -6
16 -5 5 10 -17 20 -8 37 20 37 19 0 19 2 -6 21 -29 23 -34 47 -10 56 8 3 13
12 10 19 -8 20 14 17 30 -3 16 -21 18 -47 4 -38 -5 3 -10 -3 -10 -14 0 -30 10
-26 58 19 22 22 49 40 59 40 14 0 15 2 4 9 -8 5 -11 16 -7 26 5 14 14 16 46
12 22 -3 40 -2 40 3 0 4 10 10 23 14 24 6 88 55 72 55 -5 0 -30 -11 -55 -24z
m-314 -46 c3 -6 2 -15 -3 -20 -12 -12 -47 1 -50 19 -4 15 43 16 53 1z m82 -25
c-10 -10 -28 6 -28 24 0 15 1 15 17 -1 9 -9 14 -19 11 -23z m92 27 c0 -5 -3
-17 -6 -25 -5 -13 -9 -14 -20 -5 -11 9 -14 7 -14 -13 0 -14 -3 -28 -7 -31 -9
-9 -33 12 -33 30 0 8 10 23 23 34 23 19 57 25 57 10z m-150 -55 c-14 -14 -22
-2 -14 18 5 14 9 15 15 4 4 -7 4 -17 -1 -22z m-27 -169 c8 -20 -9 -41 -26 -34
-10 4 -13 13 -10 26 6 24 28 28 36 8z"/>
<path d="M927 677 c-14 -29 -31 -75 -38 -103 -7 -27 -21 -71 -31 -99 -11 -30
-14 -51 -8 -53 13 -5 13 -42 0 -42 -5 0 -10 8 -10 17 0 12 -17 1 -54 -36 -37
-37 -52 -59 -49 -71 4 -16 8 -17 23 -8 14 9 23 9 37 -2 15 -12 16 -12 6 0 -17
19 -16 40 1 40 8 0 20 -13 27 -28 9 -22 18 -28 35 -24 12 2 25 13 27 24 5 16
11 19 31 14 22 -5 26 -3 25 16 -1 13 -4 34 -8 48 -5 17 -2 29 8 37 12 9 16 29
15 90 -2 75 -8 233 -10 233 0 0 -12 -24 -27 -53z m-7 -262 c0 -8 -7 -15 -15
-15 -8 0 -15 7 -15 15 0 8 7 15 15 15 8 0 15 -7 15 -15z m0 -54 c0 -23 -23
-34 -39 -18 -19 19 -12 37 14 37 18 0 25 -5 25 -19z m-60 -21 c0 -11 -5 -22
-11 -26 -16 -10 -32 11 -24 34 7 25 35 18 35 -8z m25 -41 c-8 -12 -35 -12 -35
0 0 11 22 20 33 14 4 -2 5 -9 2 -14z"/>
<path d="M3 645 c0 -35 4 -62 8 -59 4 2 10 0 14 -6 3 -6 -1 -13 -9 -16 -11 -4
-16 -18 -15 -43 2 -30 3 -31 6 -8 4 27 17 35 28 17 3 -5 3 -10 -2 -10 -11 0
-13 -51 -2 -72 12 -23 -7 -34 -20 -11 -9 16 -10 16 -11 -5 0 -13 4 -20 10 -17
5 3 10 2 10 -4 0 -5 -6 -11 -12 -14 -7 -2 -10 -8 -6 -12 4 -4 15 3 25 14 18
22 43 28 43 11 0 -6 -6 -13 -14 -16 -8 -3 -19 -19 -25 -36 -7 -20 -15 -27 -23
-22 -10 6 -11 5 -1 -8 7 -8 11 -17 9 -19 -3 -2 -7 -24 -10 -48 -4 -34 -3 -41
8 -32 7 6 16 8 20 4 4 -4 11 -1 16 7 7 12 11 12 26 -1 16 -12 17 -12 11 4 -4
11 -1 17 9 17 9 0 12 -5 8 -12 -6 -10 -5 -10 7 -1 11 9 18 8 31 -1 23 -17 81
-9 74 10 -3 8 1 14 9 14 8 0 15 -8 15 -17 1 -16 2 -16 12 1 8 15 8 21 0 24 -7
2 -12 13 -12 24 0 11 -5 18 -13 15 -6 -2 -12 -10 -12 -17 0 -7 -6 -15 -12 -18
-14 -4 -16 7 -7 32 3 9 12 16 19 16 8 0 17 10 21 23 4 12 11 25 17 29 7 4 7
11 0 20 -12 14 -5 71 8 63 10 -7 1 46 -12 61 -5 6 -6 14 -2 17 3 4 1 7 -5 7
-7 0 -12 5 -12 10 0 23 29 7 39 -21 10 -28 13 -30 27 -18 15 12 16 11 9 -11
-4 -14 -16 -40 -26 -59 -20 -34 -20 -34 1 -53 20 -19 22 -19 41 -2 23 20 25
36 4 28 -8 -4 -12 -10 -9 -15 6 -10 -7 -12 -30 -3 -9 3 -16 11 -16 16 0 6 7 8
15 4 11 -4 15 1 15 17 0 12 8 34 17 47 10 14 18 27 18 30 0 3 3 4 8 3 4 -2 7
6 7 17 0 11 -4 20 -10 20 -5 0 -10 -7 -10 -15 0 -8 -4 -15 -10 -15 -5 0 -10 6
-10 13 0 9 -3 8 -9 -2 -7 -11 -11 -10 -20 7 -6 11 -11 29 -10 39 0 15 2 14 11
-4 6 -13 18 -23 27 -23 14 0 14 2 1 11 -12 8 -12 12 -2 16 10 4 9 10 -5 25 -9
11 -13 19 -8 18 22 -5 29 1 15 10 -13 9 -13 12 3 21 18 11 18 11 -1 25 -11 7
-38 16 -60 20 -34 5 -41 3 -45 -12 -3 -12 -5 -14 -6 -4 -1 12 -17 15 -76 15
-68 0 -94 -7 -64 -17 7 -2 13 -18 14 -36 2 -27 0 -31 -19 -28 -12 2 -22 11
-23 22 -2 10 0 13 3 7 9 -21 23 -15 19 8 -5 27 -24 49 -40 49 -9 0 -13 -19
-12 -65z m237 20 c0 -19 -4 -35 -10 -35 -5 0 -8 10 -6 23 3 12 5 28 5 35 2 28
11 9 11 -23z m-215 15 c3 -5 1 -10 -4 -10 -6 0 -11 5 -11 10 0 6 2 10 4 10 3
0 8 -4 11 -10z m125 0 c0 -5 -2 -10 -4 -10 -3 0 -8 5 -11 10 -3 6 -1 10 4 10
6 0 11 -4 11 -10z m55 -36 c2 -10 4 -19 5 -19 1 0 3 -12 5 -27 2 -16 6 -37 10
-48 7 -22 -9 -27 -35 -10 -13 8 -12 10 4 10 14 0 16 3 8 13 -6 7 -12 30 -14
51 -1 20 -6 40 -10 42 -4 3 -8 13 -8 22 0 15 1 15 16 1 8 -9 17 -25 19 -35z
m105 30 c0 -2 -7 -4 -15 -4 -8 0 -15 4 -15 10 0 5 7 7 15 4 8 -4 15 -8 15 -10z
m-188 -13 c9 -11 18 -27 21 -38 3 -12 5 -9 6 10 0 15 6 27 12 27 7 0 10 -12 7
-30 -3 -16 0 -30 5 -30 5 0 7 -15 4 -34 -7 -42 11 -61 48 -52 19 5 25 2 25
-10 0 -10 -5 -14 -15 -11 -11 5 -12 1 -5 -19 8 -19 6 -26 -5 -30 -11 -5 -12
-10 -4 -26 13 -25 4 -63 -21 -88 -11 -11 -20 -27 -20 -35 0 -8 -4 -15 -9 -15
-5 0 -7 9 -4 20 3 11 0 20 -6 20 -6 0 -11 5 -11 11 0 6 8 8 20 4 15 -5 22 1
35 31 18 44 18 44 1 44 -20 0 -31 57 -15 78 7 9 9 14 5 10 -5 -4 -15 -3 -21 2
-18 15 -65 -5 -66 -27 -1 -10 -1 -22 0 -26 1 -4 -6 -15 -14 -24 -15 -14 -15
-13 -10 13 5 20 4 25 -3 16 -8 -12 -13 -12 -31 -1 -25 17 -27 32 -4 55 16 15
16 17 0 29 -14 10 -15 17 -6 44 12 35 29 41 29 11 0 -11 -4 -20 -10 -20 -5 0
-10 -8 -10 -17 1 -17 1 -17 14 0 11 14 15 15 25 4 6 -8 8 -16 5 -19 -3 -3 -1
-9 5 -13 7 -4 11 5 11 24 0 20 -5 30 -12 29 -8 -2 -12 6 -10 21 3 30 7 35 22
26 9 -6 9 -10 -1 -16 -11 -6 -10 -9 4 -15 9 -3 17 -14 17 -23 0 -9 5 -23 11
-31 8 -12 9 -12 7 5 -1 11 1 26 5 33 5 7 3 12 -5 12 -7 0 -19 14 -26 30 -8 17
-18 28 -23 24 -5 -3 -9 4 -9 15 0 26 11 27 32 2z m148 -41 c0 -5 -4 -10 -10
-10 -5 0 -10 5 -10 10 0 6 5 10 10 10 6 0 10 -4 10 -10z m-239 -13 c-1 -12
-15 -9 -19 4 -3 6 1 10 8 8 6 -3 11 -8 11 -12z m219 -17 c0 -5 -4 -10 -9 -10
-6 0 -13 5 -16 10 -3 6 1 10 9 10 9 0 16 -4 16 -10z m-80 -102 c0 -7 -7 -22
-15 -32 -18 -24 -20 -45 -3 -28 17 17 29 15 21 -3 -3 -9 2 -22 13 -30 11 -8
14 -14 7 -15 -7 0 -13 -7 -13 -16 0 -8 -5 -12 -10 -9 -6 4 -8 11 -5 16 8 11
-21 42 -35 37 -6 -2 -3 -16 6 -33 10 -19 11 -31 5 -33 -6 -2 -11 -10 -11 -18
0 -8 -4 -14 -9 -14 -6 0 -8 17 -5 38 l4 37 -13 -35 c-9 -22 -10 -37 -4 -41 12
-9 0 -29 -18 -29 -7 0 -15 -6 -18 -12 -2 -7 -8 -9 -13 -5 -5 5 -1 13 9 19 14
7 16 13 7 24 -9 10 -8 17 4 29 12 13 13 21 6 36 -9 17 -8 24 4 17 9 -6 43 47
39 59 -3 7 2 13 11 13 9 0 15 3 15 8 -3 18 2 32 11 32 6 0 10 -6 10 -12z
m-120 -185 c-1 -21 -13 -53 -22 -53 -7 0 -6 35 1 58 2 6 21 1 21 -5z m139 -39
c2 -2 2 -6 0 -9 -8 -7 -49 7 -49 17 0 8 38 2 49 -8z"/>
<path d="M62 498 c-15 -15 -15 -28 -1 -28 5 0 7 5 3 12 -5 8 -2 9 9 5 11 -4
17 -1 17 8 0 18 -12 19 -28 3z"/>
<path d="M1087 673 c-9 -16 -18 -45 -22 -66 -4 -21 -12 -34 -17 -31 -12 7 -1
-140 13 -190 5 -17 9 -53 9 -81 0 -27 4 -56 9 -64 9 -14 80 -41 109 -41 9 0
12 56 12 245 l0 245 -34 0 c-19 0 -41 3 -50 6 -9 4 -20 -4 -29 -23z"/>
<path d="M620 544 c0 -8 5 -12 10 -9 6 3 10 10 10 16 0 5 -4 9 -10 9 -5 0 -10
-7 -10 -16z"/>
<path d="M688 533 c7 -3 16 -2 19 1 4 3 -2 6 -13 5 -11 0 -14 -3 -6 -6z"/>
<path d="M726 485 c-11 -8 -15 -15 -9 -15 6 0 16 7 23 15 16 19 11 19 -14 0z"/>
<path d="M1006 394 c-9 -122 -37 -181 -78 -168 -30 9 -20 -4 21 -27 44 -24 50
-43 52 -143 1 -46 3 -55 9 -36 4 14 8 40 9 57 1 26 6 34 26 39 14 3 25 10 25
14 0 8 95 26 118 21 6 -1 12 2 12 6 0 4 -33 16 -73 26 -39 10 -76 22 -81 27
-5 5 -9 44 -10 87 -5 162 -6 183 -15 183 -4 0 -11 -39 -15 -86z"/>
<path d="M730 435 c-7 -9 -8 -15 -2 -15 5 0 12 7 16 15 3 8 4 15 2 15 -2 0 -9
-7 -16 -15z"/>
<path d="M757 409 c3 -12 0 -25 -7 -29 -7 -4 -9 -13 -5 -20 5 -8 12 -3 21 15
18 35 18 55 0 55 -9 0 -12 -7 -9 -21z"/>
<path d="M684 399 c0 -10 4 -19 8 -19 4 0 8 6 8 14 0 8 -4 17 -8 20 -4 2 -8
-4 -8 -15z"/>
<path d="M597 391 c-3 -14 -1 -18 9 -14 16 6 18 19 5 27 -5 3 -11 -3 -14 -13z"/>
<path d="M326 365 c4 -8 8 -15 10 -15 2 0 4 7 4 15 0 8 -4 15 -10 15 -5 0 -7
-7 -4 -15z"/>
<path d="M283 348 c-1 -12 3 -26 10 -30 6 -4 8 -11 3 -15 -4 -4 -14 0 -21 10
-7 10 -16 14 -19 9 -3 -5 1 -15 9 -22 7 -6 12 -17 9 -25 -7 -18 14 -29 30 -15
11 8 15 8 18 -2 3 -8 9 -5 17 10 15 28 8 40 -14 22 -9 -7 -18 -10 -22 -6 -3 3
-1 6 5 6 6 0 10 9 9 20 -1 11 -5 20 -10 20 -4 0 -7 7 -5 16 2 10 -2 19 -7 21
-6 2 -11 -7 -12 -19z"/>
<path d="M605 330 c-3 -5 -1 -10 4 -10 6 0 11 5 11 10 0 6 -2 10 -4 10 -3 0
-8 -4 -11 -10z"/>
<path d="M637 281 c-35 -6 -36 -7 -18 -18 14 -9 22 -9 27 -2 3 6 17 8 30 5 18
-5 22 -3 18 9 -4 8 -9 14 -13 14 -3 -1 -23 -5 -44 -8z"/>
<path d="M926 275 c-3 -8 -1 -15 4 -15 13 0 22 18 11 24 -5 3 -11 -1 -15 -9z"/>
<path d="M560 200 c-11 -8 -7 -10 18 -8 17 1 32 6 32 10 0 11 -32 10 -50 -2z"/>
<path d="M238 183 c6 -2 18 -2 25 0 6 3 1 5 -13 5 -14 0 -19 -2 -12 -5z"/>
<path d="M33 173 c9 -2 25 -2 35 0 9 3 1 5 -18 5 -19 0 -27 -2 -17 -5z"/>
<path d="M718 165 c-4 -4 -94 -14 -188 -21 -41 -3 -81 -7 -87 -9 -9 -3 -13
-26 -13 -70 l0 -65 250 0 c187 1 250 4 250 13 0 7 4 6 10 -3 13 -21 19 -9 21
43 3 78 -35 103 -168 111 -39 3 -73 3 -75 1z m-61 -82 c-3 -10 -5 -4 -5 12 0
17 2 24 5 18 2 -7 2 -21 0 -30z m68 -63 c3 -5 2 -10 -4 -10 -5 0 -13 5 -16 10
-3 6 -2 10 4 10 5 0 13 -4 16 -10z"/>
<path d="M140 121 c0 -15 18 -22 25 -10 4 5 13 8 19 6 7 -3 19 -1 27 4 9 6 0
9 -28 9 -24 0 -43 -4 -43 -9z"/>
<path d="M33 94 c-6 -13 -7 -26 -2 -29 4 -3 11 6 15 20 9 34 2 40 -13 9z"/>
<path d="M263 113 c4 -3 2 -12 -4 -20 -9 -9 -8 -13 0 -13 6 0 11 2 11 4 0 2 3
11 6 20 4 10 1 16 -7 16 -7 0 -9 -3 -6 -7z"/>
<path d="M1095 100 c-4 -6 -10 -23 -15 -38 -4 -15 -11 -34 -15 -43 -5 -14 1
-16 34 -15 34 0 40 4 36 17 -3 10 -1 21 6 24 8 6 8 9 -1 15 -15 9 -4 30 15 30
9 0 12 -6 9 -15 -4 -8 -1 -15 5 -15 6 0 11 11 11 25 0 22 -4 25 -39 25 -22 0
-43 -5 -46 -10z m25 -59 c0 -14 -18 -23 -30 -16 -6 4 -8 11 -5 16 8 12 35 12
35 0z"/>
<path d="M300 84 c0 -8 5 -12 10 -9 6 3 10 10 10 16 0 5 -4 9 -10 9 -5 0 -10
-7 -10 -16z"/>
<path d="M105 80 c-3 -5 -1 -10 4 -10 6 0 11 5 11 10 0 6 -2 10 -4 10 -3 0 -8
-4 -11 -10z"/>
<path d="M30 38 c0 -20 18 -23 40 -7 12 9 12 10 -4 5 -11 -4 -23 -1 -28 6 -6
10 -8 8 -8 -4z"/>
<path d="M120 15 c0 -8 4 -15 10 -15 5 0 7 7 4 15 -4 8 -8 15 -10 15 -2 0 -4
-7 -4 -15z"/>
<path d="M220 19 c0 -5 5 -7 10 -4 6 3 10 8 10 11 0 2 -4 4 -10 4 -5 0 -10 -5
-10 -11z"/>
</g>
</svg>
