<?xml version="1.0" encoding="UTF-8"?>
<!DOCTYPE svg PUBLIC "-//W3C//DTD SVG 1.1//EN" "http://www.w3.org/Graphics/SVG/1.1/DTD/svg11.dtd">
<svg xmlns="http://www.w3.org/2000/svg" version="1.1" width="200px" height="190px" style="shape-rendering:geometricPrecision; text-rendering:geometricPrecision; image-rendering:optimizeQuality; fill-rule:evenodd; clip-rule:evenodd" xmlns:xlink="http://www.w3.org/1999/xlink">
<g><path style="opacity:1" fill="#f2f3f6" d="M -0.5,-0.5 C 12.8333,-0.5 26.1667,-0.5 39.5,-0.5C 37.9749,1.03582 35.9749,2.03582 33.5,2.5C 34.8715,4.61979 34.2048,5.61979 31.5,5.5C 31.719,4.32496 31.3857,3.32496 30.5,2.5C 29.7717,4.19322 28.7717,5.69322 27.5,7C 28.7839,7.68379 29.9505,7.51712 31,6.5C 31.1764,9.88182 31.6764,13.2152 32.5,16.5C 34.503,18.1331 35.8363,20.1331 36.5,22.5C 33.7655,20.0983 30.7655,18.0983 27.5,16.5C 26.1374,17.1984 24.9707,17.1984 24,16.5C 23.5065,18.1341 23.3398,19.8008 23.5,21.5C 20.9561,22.4679 18.7895,24.1345 17,26.5C 14.0777,23.9065 10.5777,22.4065 6.5,22C 5.4965,18.4952 3.16317,16.9952 -0.5,17.5C -0.5,11.5 -0.5,5.5 -0.5,-0.5 Z"/></g>
<g><path style="opacity:1" fill="#f4f6f8" d="M 39.5,-0.5 C 48.5,-0.5 57.5,-0.5 66.5,-0.5C 65.4639,1.39114 65.4639,3.22448 66.5,5C 71.3873,4.98417 76.3873,5.3175 81.5,6C 85.5339,6.03375 87.5339,8.03375 87.5,12C 87.0063,14.5685 86.0063,16.9018 84.5,19C 85.5,19.6667 86.5,19.6667 87.5,19C 88.5596,17.702 89.7263,16.5353 91,15.5C 93.79,16.1317 96.6234,16.2984 99.5,16C 96.9453,18.9192 94.2786,19.4192 91.5,17.5C 90.5713,18.6888 90.238,20.0222 90.5,21.5C 88.302,21.1201 86.6354,21.7868 85.5,23.5C 82.1667,23.5 78.8333,23.5 75.5,23.5C 70.7266,22.801 66.0599,21.4677 61.5,19.5C 61.0825,18.7784 60.4158,18.2784 59.5,18C 54.2739,17.8803 49.1072,17.7136 44,17.5C 41.8032,19.6212 39.3032,21.2879 36.5,22.5C 35.8363,20.1331 34.503,18.1331 32.5,16.5C 31.6764,13.2152 31.1764,9.88182 31,6.5C 29.9505,7.51712 28.7839,7.68379 27.5,7C 28.7717,5.69322 29.7717,4.19322 30.5,2.5C 31.3857,3.32496 31.719,4.32496 31.5,5.5C 34.2048,5.61979 34.8715,4.61979 33.5,2.5C 35.9749,2.03582 37.9749,1.03582 39.5,-0.5 Z"/></g>
<g><path style="opacity:1" fill="#f5f7f7" d="M 66.5,-0.5 C 97.5,-0.5 128.5,-0.5 159.5,-0.5C 157.811,3.42519 156.811,7.59186 156.5,12C 157.77,17.7838 158.77,23.6172 159.5,29.5C 151.458,29.264 143.458,29.5973 135.5,30.5C 135.67,31.8221 135.337,32.9887 134.5,34C 132.19,34.4966 129.857,34.6633 127.5,34.5C 127.38,33.4138 126.713,32.7472 125.5,32.5C 123.595,33.065 121.929,34.065 120.5,35.5C 119.354,34.8551 118.354,34.0217 117.5,33C 110.009,31.8105 102.676,30.3105 95.5,28.5C 95.5,27.5 95.5,26.5 95.5,25.5C 91.9206,25.6837 88.5873,25.017 85.5,23.5C 86.6354,21.7868 88.302,21.1201 90.5,21.5C 90.238,20.0222 90.5713,18.6888 91.5,17.5C 94.2786,19.4192 96.9453,18.9192 99.5,16C 96.6234,16.2984 93.79,16.1317 91,15.5C 89.7263,16.5353 88.5596,17.702 87.5,19C 86.5,19.6667 85.5,19.6667 84.5,19C 86.0063,16.9018 87.0063,14.5685 87.5,12C 87.5339,8.03375 85.5339,6.03375 81.5,6C 76.3873,5.3175 71.3873,4.98417 66.5,5C 65.4639,3.22448 65.4639,1.39114 66.5,-0.5 Z"/></g>
<g><path style="opacity:1" fill="#e4ecf3" d="M 159.5,-0.5 C 172.833,-0.5 186.167,-0.5 199.5,-0.5C 199.5,0.166667 199.5,0.833333 199.5,1.5C 197.093,2.92061 194.593,4.25395 192,5.5C 191,8.5 190,11.5 189,14.5C 188.421,10.6137 187.588,10.6137 186.5,14.5C 181.528,14.9034 177.028,16.57 173,19.5C 172.691,20.7659 172.191,21.9326 171.5,23C 174.167,23.6667 174.167,24.3333 171.5,25C 172.308,25.3076 172.975,25.8076 173.5,26.5C 172.102,28.1303 171.102,29.9637 170.5,32C 172.65,37.0191 170.984,39.5191 165.5,39.5C 156.818,38.2826 148.152,38.2826 139.5,39.5C 139.5,40.5 139.5,41.5 139.5,42.5C 138.041,42.4326 136.708,42.7659 135.5,43.5C 132.904,44.2653 130.237,44.5987 127.5,44.5C 127.096,43.2436 126.429,42.0769 125.5,41C 125.905,40.0546 126.572,39.3879 127.5,39C 123.076,39.8873 118.742,39.3873 114.5,37.5C 116.44,36.4716 118.44,36.4716 120.5,37.5C 122.996,36.7485 125.33,35.7485 127.5,34.5C 129.857,34.6633 132.19,34.4966 134.5,34C 135.337,32.9887 135.67,31.8221 135.5,30.5C 143.458,29.5973 151.458,29.264 159.5,29.5C 158.77,23.6172 157.77,17.7838 156.5,12C 156.811,7.59186 157.811,3.42519 159.5,-0.5 Z"/></g>
<g><path style="opacity:1" fill="#7a7449" d="M 61.5,19.5 C 66.0599,21.4677 70.7266,22.801 75.5,23.5C 75.5,23.8333 75.5,24.1667 75.5,24.5C 74.1667,24.5 73.5,25.1667 73.5,26.5C 73.5,26.8333 73.5,27.1667 73.5,27.5C 70.7183,24.7758 67.385,23.1092 63.5,22.5C 58.4098,20.2524 53.0765,19.9191 47.5,21.5C 47.1583,20.6618 46.4916,20.3284 45.5,20.5C 50.5974,18.3044 55.9308,17.9711 61.5,19.5 Z"/></g>
<g><path style="opacity:1" fill="#ebf0f1" d="M 36.5,22.5 C 39.3032,21.2879 41.8032,19.6212 44,17.5C 49.1072,17.7136 54.2739,17.8803 59.5,18C 60.4158,18.2784 61.0825,18.7784 61.5,19.5C 55.9308,17.9711 50.5974,18.3044 45.5,20.5C 28.3464,28.6517 15.0131,40.9851 5.5,57.5C 3.24917,56.1353 1.24917,56.4686 -0.5,58.5C -0.5,44.8333 -0.5,31.1667 -0.5,17.5C 3.16317,16.9952 5.4965,18.4952 6.5,22C 10.5777,22.4065 14.0777,23.9065 17,26.5C 18.7895,24.1345 20.9561,22.4679 23.5,21.5C 23.3398,19.8008 23.5065,18.1341 24,16.5C 24.9707,17.1984 26.1374,17.1984 27.5,16.5C 30.7655,18.0983 33.7655,20.0983 36.5,22.5 Z"/></g>
<g><path style="opacity:1" fill="#f6f0de" d="M 63.5,22.5 C 57.8044,21.1137 52.1377,21.2804 46.5,23C 47.7112,23.8928 47.7112,24.7261 46.5,25.5C 43.2964,24.253 40.6297,25.0864 38.5,28C 39.1667,28.3333 39.8333,28.6667 40.5,29C 38.7928,29.1953 37.1261,29.1953 35.5,29C 35.6192,30.2812 35.1192,31.4479 34,32.5C 33.5831,31.244 32.7498,30.5774 31.5,30.5C 35.8847,25.9702 41.2181,22.9702 47.5,21.5C 53.0765,19.9191 58.4098,20.2524 63.5,22.5 Z"/></g>
<g><path style="opacity:1" fill="#d1e1ef" d="M 199.5,1.5 C 199.5,14.8333 199.5,28.1667 199.5,41.5C 196.406,40.066 193.073,39.3993 189.5,39.5C 183.627,40.4059 177.794,41.4059 172,42.5C 169.833,42.3333 167.667,42.1667 165.5,42C 166.598,41.2303 166.598,40.397 165.5,39.5C 170.984,39.5191 172.65,37.0191 170.5,32C 171.102,29.9637 172.102,28.1303 173.5,26.5C 172.975,25.8076 172.308,25.3076 171.5,25C 174.167,24.3333 174.167,23.6667 171.5,23C 172.191,21.9326 172.691,20.7659 173,19.5C 177.028,16.57 181.528,14.9034 186.5,14.5C 187.588,10.6137 188.421,10.6137 189,14.5C 190,11.5 191,8.5 192,5.5C 194.593,4.25395 197.093,2.92061 199.5,1.5 Z"/></g>
<g><path style="opacity:1" fill="#f0ddb1" d="M 75.5,24.5 C 75.5,24.1667 75.5,23.8333 75.5,23.5C 78.8333,23.5 82.1667,23.5 85.5,23.5C 88.5873,25.017 91.9206,25.6837 95.5,25.5C 95.5,26.5 95.5,27.5 95.5,28.5C 93.8333,27.8333 92.1667,27.1667 90.5,26.5C 88.8333,26.5 87.1667,26.5 85.5,26.5C 83.3647,24.631 80.6981,23.9644 77.5,24.5C 76.8333,24.5 76.1667,24.5 75.5,24.5 Z"/></g>
<g><path style="opacity:1" fill="#634d16" d="M 75.5,24.5 C 76.1667,24.5 76.8333,24.5 77.5,24.5C 78.6594,26.2503 80.326,27.2503 82.5,27.5C 82.5,28.1667 82.8333,28.5 83.5,28.5C 84.0347,30.4456 85.368,31.4456 87.5,31.5C 88.6085,32.29 89.9419,32.79 91.5,33C 90.2625,33.2321 89.2625,33.7321 88.5,34.5C 88.1667,34.5 87.8333,34.5 87.5,34.5C 85.8007,34.4729 84.4674,33.8062 83.5,32.5C 83.1667,31.8333 82.8333,31.1667 82.5,30.5C 81.791,29.596 80.791,29.2627 79.5,29.5C 78.5,28.8333 77.5,28.1667 76.5,27.5C 75.791,26.596 74.791,26.2627 73.5,26.5C 73.5,25.1667 74.1667,24.5 75.5,24.5 Z"/></g>
<g><path style="opacity:1" fill="#dfc554" d="M 77.5,24.5 C 80.6981,23.9644 83.3647,24.631 85.5,26.5C 84.791,27.404 83.791,27.7373 82.5,27.5C 80.326,27.2503 78.6594,26.2503 77.5,24.5 Z"/></g>
<g><path style="opacity:1" fill="#dec09d" d="M 76.5,27.5 C 77.5,28.1667 78.5,28.8333 79.5,29.5C 79.4827,31.0281 78.816,31.5281 77.5,31C 76.6634,29.9887 76.33,28.8221 76.5,27.5 Z"/></g>
<g><path style="opacity:1" fill="#a57520" d="M 85.5,26.5 C 87.1667,26.5 88.8333,26.5 90.5,26.5C 90.1898,28.1436 89.1898,29.1436 87.5,29.5C 86.1667,29.1667 84.8333,28.8333 83.5,28.5C 82.8333,28.5 82.5,28.1667 82.5,27.5C 83.791,27.7373 84.791,27.404 85.5,26.5 Z"/></g>
<g><path style="opacity:1" fill="#e0be59" d="M 90.5,26.5 C 92.1667,27.1667 93.8333,27.8333 95.5,28.5C 96.3984,29.1577 97.3984,29.8243 98.5,30.5C 98.3764,31.1067 98.0431,31.44 97.5,31.5C 94.3188,30.4095 90.9855,30.4095 87.5,31.5C 87.5,30.8333 87.5,30.1667 87.5,29.5C 89.1898,29.1436 90.1898,28.1436 90.5,26.5 Z"/></g>
<g><path style="opacity:1" fill="#cfb66f" d="M 83.5,28.5 C 84.8333,28.8333 86.1667,29.1667 87.5,29.5C 87.5,30.1667 87.5,30.8333 87.5,31.5C 85.368,31.4456 84.0347,30.4456 83.5,28.5 Z"/></g>
<g><path style="opacity:1" fill="#f0ca44" d="M 82.5,30.5 C 82.8333,31.1667 83.1667,31.8333 83.5,32.5C 83.7947,34.7354 83.4614,36.7354 82.5,38.5C 81.8443,36.516 81.1776,34.516 80.5,32.5C 80.7472,31.2867 81.4138,30.62 82.5,30.5 Z"/></g>
<g><path style="opacity:1" fill="#ae8d3b" d="M 97.5,31.5 C 96.1851,32.4756 94.8518,33.4756 93.5,34.5C 96.1667,35.1667 98.8333,35.8333 101.5,36.5C 99.9783,37.562 98.3117,38.2287 96.5,38.5C 94.1469,36.6567 91.4802,35.3234 88.5,34.5C 89.2625,33.7321 90.2625,33.2321 91.5,33C 89.9419,32.79 88.6085,32.29 87.5,31.5C 90.9855,30.4095 94.3188,30.4095 97.5,31.5 Z"/></g>
<g><path style="opacity:1" fill="#241703" d="M 87.5,34.5 C 87.8333,34.5 88.1667,34.5 88.5,34.5C 91.4802,35.3234 94.1469,36.6567 96.5,38.5C 96.1667,38.5 95.8333,38.5 95.5,38.5C 93.4513,37.3586 91.4513,37.3586 89.5,38.5C 88.8333,37.1667 88.1667,35.8333 87.5,34.5 Z"/></g>
<g><path style="opacity:1" fill="#bb9533" d="M 73.5,26.5 C 74.791,26.2627 75.791,26.596 76.5,27.5C 76.33,28.8221 76.6634,29.9887 77.5,31C 78.816,31.5281 79.4827,31.0281 79.5,29.5C 80.791,29.2627 81.791,29.596 82.5,30.5C 81.4138,30.62 80.7472,31.2867 80.5,32.5C 81.1776,34.516 81.8443,36.516 82.5,38.5C 81.5041,38.5858 80.6708,38.2524 80,37.5C 79.6667,38.1667 79.3333,38.8333 79,39.5C 77.3909,36.5932 75.5576,33.9266 73.5,31.5C 73.5,30.1667 73.5,28.8333 73.5,27.5C 73.5,27.1667 73.5,26.8333 73.5,26.5 Z"/></g>
<g><path style="opacity:1" fill="#efede5" d="M 95.5,28.5 C 102.676,30.3105 110.009,31.8105 117.5,33C 118.354,34.0217 119.354,34.8551 120.5,35.5C 121.929,34.065 123.595,33.065 125.5,32.5C 126.713,32.7472 127.38,33.4138 127.5,34.5C 125.33,35.7485 122.996,36.7485 120.5,37.5C 118.44,36.4716 116.44,36.4716 114.5,37.5C 118.742,39.3873 123.076,39.8873 127.5,39C 126.572,39.3879 125.905,40.0546 125.5,41C 126.429,42.0769 127.096,43.2436 127.5,44.5C 127.649,45.552 127.483,46.552 127,47.5C 124.55,46.3578 122.05,45.3578 119.5,44.5C 116.677,43.7834 114.01,42.7834 111.5,41.5C 111.657,40.1266 111.49,38.7932 111,37.5C 110.107,38.7112 109.274,38.7112 108.5,37.5C 108.709,36.914 109.043,36.414 109.5,36C 107.866,35.5065 106.199,35.3398 104.5,35.5C 101.754,34.6026 99.4208,33.2693 97.5,31.5C 98.0431,31.44 98.3764,31.1067 98.5,30.5C 97.3984,29.8243 96.3984,29.1577 95.5,28.5 Z"/></g>
<g><path style="opacity:1" fill="#47481f" d="M 45.5,20.5 C 46.4916,20.3284 47.1583,20.6618 47.5,21.5C 41.2181,22.9702 35.8847,25.9702 31.5,30.5C 29.7697,31.0256 28.4363,32.0256 27.5,33.5C 22.8362,37.331 18.6695,41.6643 15,46.5C 13.2226,49.0594 11.7226,51.7261 10.5,54.5C 8.6736,56.1475 7.34026,58.1475 6.5,60.5C 6.16667,60.5 5.83333,60.5 5.5,60.5C 4.83333,60.5 4.16667,60.5 3.5,60.5C 4.16667,59.5 4.83333,58.5 5.5,57.5C 15.0131,40.9851 28.3464,28.6517 45.5,20.5 Z"/></g>
<g><path style="opacity:1" fill="#dbbf52" d="M 97.5,31.5 C 99.4208,33.2693 101.754,34.6026 104.5,35.5C 105.812,37.4788 107.479,39.1455 109.5,40.5C 105.183,40.0834 101.183,40.7501 97.5,42.5C 96.8333,42.1667 96.1667,41.8333 95.5,41.5C 95.5,40.5 95.5,39.5 95.5,38.5C 95.8333,38.5 96.1667,38.5 96.5,38.5C 98.3117,38.2287 99.9783,37.562 101.5,36.5C 98.8333,35.8333 96.1667,35.1667 93.5,34.5C 94.8518,33.4756 96.1851,32.4756 97.5,31.5 Z"/></g>
<g><path style="opacity:1" fill="#ead9b3" d="M 104.5,35.5 C 106.199,35.3398 107.866,35.5065 109.5,36C 109.043,36.414 108.709,36.914 108.5,37.5C 109.274,38.7112 110.107,38.7112 111,37.5C 111.49,38.7932 111.657,40.1266 111.5,41.5C 114.01,42.7834 116.677,43.7834 119.5,44.5C 119.423,45.7498 118.756,46.5831 117.5,47C 119.402,47.1992 120.902,48.0325 122,49.5C 123.699,48.5939 125.533,48.2606 127.5,48.5C 127.5,49.5 127.5,50.5 127.5,51.5C 125.5,51.1667 123.5,50.8333 121.5,50.5C 121.5,51.5 121.5,52.5 121.5,53.5C 120.778,52.4489 119.778,51.7822 118.5,51.5C 117.713,49.8958 116.38,49.2291 114.5,49.5C 113.836,46.2872 111.836,44.1206 108.5,43C 109.252,42.3292 109.586,41.4959 109.5,40.5C 107.479,39.1455 105.812,37.4788 104.5,35.5 Z"/></g>
<g><path style="opacity:1" fill="#f0f2f1" d="M 63.5,22.5 C 67.385,23.1092 70.7183,24.7758 73.5,27.5C 73.5,28.8333 73.5,30.1667 73.5,31.5C 74.9672,35.7678 76.9672,39.7678 79.5,43.5C 78.6649,44.9432 77.3316,45.9432 75.5,46.5C 71.5546,47.4909 67.5546,47.8242 63.5,47.5C 57.9384,47.86 52.7718,49.5266 48,52.5C 47.3512,49.2948 46.1845,46.2948 44.5,43.5C 42.3626,42.2619 41.0293,40.4286 40.5,38C 36.1472,36.4349 31.8139,34.9349 27.5,33.5C 28.4363,32.0256 29.7697,31.0256 31.5,30.5C 32.7498,30.5774 33.5831,31.244 34,32.5C 35.1192,31.4479 35.6192,30.2812 35.5,29C 37.1261,29.1953 38.7928,29.1953 40.5,29C 39.8333,28.6667 39.1667,28.3333 38.5,28C 40.6297,25.0864 43.2964,24.253 46.5,25.5C 47.7112,24.7261 47.7112,23.8928 46.5,23C 52.1377,21.2804 57.8044,21.1137 63.5,22.5 Z"/></g>
<g><path style="opacity:1" fill="#664515" d="M 73.5,31.5 C 75.5576,33.9266 77.3909,36.5932 79,39.5C 79.3333,38.8333 79.6667,38.1667 80,37.5C 80.6708,38.2524 81.5041,38.5858 82.5,38.5C 82.8333,39.1667 83.1667,39.8333 83.5,40.5C 82.448,40.3505 81.448,40.5172 80.5,41C 81.5981,41.7697 81.5981,42.603 80.5,43.5C 80.1667,43.5 79.8333,43.5 79.5,43.5C 76.9672,39.7678 74.9672,35.7678 73.5,31.5 Z"/></g>
<g><path style="opacity:1" fill="#dbdfdc" d="M 27.5,33.5 C 31.8139,34.9349 36.1472,36.4349 40.5,38C 41.0293,40.4286 42.3626,42.2619 44.5,43.5C 46.1845,46.2948 47.3512,49.2948 48,52.5C 52.7718,49.5266 57.9384,47.86 63.5,47.5C 60.5882,49.0656 57.9216,51.0656 55.5,53.5C 53.2192,55.4279 50.5525,56.4279 47.5,56.5C 46.0546,54.867 44.7213,53.0337 43.5,51C 42.552,50.5172 41.552,50.3505 40.5,50.5C 40.4896,43.8165 37.1563,39.8165 30.5,38.5C 26.21,38.9577 23.71,41.291 23,45.5C 22.2496,46.1258 21.4162,46.6258 20.5,47C 21.4506,47.7175 21.6172,48.5509 21,49.5C 18.8333,50.3333 17.3333,51.8333 16.5,54C 14.892,54.658 13.7253,54.158 13,52.5C 12.2917,53.3805 11.4584,54.0472 10.5,54.5C 11.7226,51.7261 13.2226,49.0594 15,46.5C 18.6695,41.6643 22.8362,37.331 27.5,33.5 Z"/></g>
<g><path style="opacity:1" fill="#c8d4d7" d="M 165.5,39.5 C 166.598,40.397 166.598,41.2303 165.5,42C 167.667,42.1667 169.833,42.3333 172,42.5C 177.794,41.4059 183.627,40.4059 189.5,39.5C 193.073,39.3993 196.406,40.066 199.5,41.5C 199.5,42.8333 199.5,44.1667 199.5,45.5C 195.051,40.5558 189.718,39.3891 183.5,42C 176.598,46.6945 168.932,48.5278 160.5,47.5C 154.391,43.2285 147.725,42.3952 140.5,45C 139.748,45.6708 139.414,46.5041 139.5,47.5C 137.801,47.3398 136.134,47.5065 134.5,48C 135.624,48.2492 136.624,48.7492 137.5,49.5C 137.043,50.2975 136.376,50.6309 135.5,50.5C 133.745,49.9278 132.078,49.0945 130.5,48C 132.923,47.3029 134.589,45.8029 135.5,43.5C 136.708,42.7659 138.041,42.4326 139.5,42.5C 139.5,41.5 139.5,40.5 139.5,39.5C 148.152,38.2826 156.818,38.2826 165.5,39.5 Z"/></g>
<g><path style="opacity:1" fill="#221408" d="M 83.5,40.5 C 85.3264,42.1475 86.6597,44.1475 87.5,46.5C 87.1583,47.3382 86.4916,47.6716 85.5,47.5C 84.9522,45.4677 83.6188,44.4677 81.5,44.5C 81.5,43.8333 81.1667,43.5 80.5,43.5C 81.5981,42.603 81.5981,41.7697 80.5,41C 81.448,40.5172 82.448,40.3505 83.5,40.5 Z"/></g>
<g><path style="opacity:1" fill="#c3a04e" d="M 83.5,32.5 C 84.4674,33.8062 85.8007,34.4729 87.5,34.5C 88.1667,35.8333 88.8333,37.1667 89.5,38.5C 89.6633,40.8568 89.4966,43.1902 89,45.5C 88.6174,46.056 88.1174,46.3893 87.5,46.5C 86.6597,44.1475 85.3264,42.1475 83.5,40.5C 83.1667,39.8333 82.8333,39.1667 82.5,38.5C 83.4614,36.7354 83.7947,34.7354 83.5,32.5 Z"/></g>
<g><path style="opacity:1" fill="#dbd5c2" d="M 135.5,43.5 C 134.589,45.8029 132.923,47.3029 130.5,48C 132.078,49.0945 133.745,49.9278 135.5,50.5C 133.388,52.7705 130.721,54.1039 127.5,54.5C 126.791,53.596 125.791,53.2627 124.5,53.5C 123.5,53.5 122.5,53.5 121.5,53.5C 121.5,52.5 121.5,51.5 121.5,50.5C 123.5,50.8333 125.5,51.1667 127.5,51.5C 127.5,50.5 127.5,49.5 127.5,48.5C 125.533,48.2606 123.699,48.5939 122,49.5C 120.902,48.0325 119.402,47.1992 117.5,47C 118.756,46.5831 119.423,45.7498 119.5,44.5C 122.05,45.3578 124.55,46.3578 127,47.5C 127.483,46.552 127.649,45.552 127.5,44.5C 130.237,44.5987 132.904,44.2653 135.5,43.5 Z"/></g>
<g><path style="opacity:1" fill="#98afa1" d="M 160.5,47.5 C 161.306,48.7281 162.306,49.7281 163.5,50.5C 162.833,50.5 162.167,50.5 161.5,50.5C 157.762,48.5909 153.929,46.9242 150,45.5C 147.456,45.336 145.29,46.0027 143.5,47.5C 142.167,47.5 140.833,47.5 139.5,47.5C 139.414,46.5041 139.748,45.6708 140.5,45C 147.725,42.3952 154.391,43.2285 160.5,47.5 Z"/></g>
<g><path style="opacity:1" fill="#b1a172" d="M 199.5,51.5 C 199.5,52.5 199.5,53.5 199.5,54.5C 197.833,54.5 196.167,54.5 194.5,54.5C 194.664,51.8127 194.497,49.146 194,46.5C 191.448,44.9797 189.282,45.3131 187.5,47.5C 186.5,47.5 185.5,47.5 184.5,47.5C 183.833,47.5 183.167,47.5 182.5,47.5C 185.404,44.1281 189.07,42.9614 193.5,44C 195.659,46.5481 197.659,49.0481 199.5,51.5 Z"/></g>
<g><path style="opacity:1" fill="#735b38" d="M 81.5,45.5 C 81.5,45.1667 81.5,44.8333 81.5,44.5C 83.6188,44.4677 84.9522,45.4677 85.5,47.5C 84.8826,47.6107 84.3826,47.944 84,48.5C 83.1482,47.4293 82.3149,46.4293 81.5,45.5 Z"/></g>
<g><path style="opacity:1" fill="#a98c28" d="M 93.5,41.5 C 93.8333,42.5 94.5,43.1667 95.5,43.5C 96.0916,46.1272 96.4249,48.7938 96.5,51.5C 95.316,49.5901 93.816,49.2568 92,50.5C 90.3437,47.2467 90.177,43.9133 91.5,40.5C 92.1835,40.8627 92.8501,41.1961 93.5,41.5 Z"/></g>
<g><path style="opacity:1" fill="#d1ad24" d="M 95.5,43.5 C 96.8333,44.1667 97.8333,45.1667 98.5,46.5C 98.3573,48.2624 98.6906,49.9291 99.5,51.5C 98.5754,52.5624 97.5754,52.5624 96.5,51.5C 96.4249,48.7938 96.0916,46.1272 95.5,43.5 Z"/></g>
<g><path style="opacity:1" fill="#3f2e0e" d="M 95.5,41.5 C 96.1667,41.8333 96.8333,42.1667 97.5,42.5C 99.8413,44.8288 102.508,46.8288 105.5,48.5C 108.167,51.308 110.501,54.308 112.5,57.5C 113.605,58.6005 114.938,59.2671 116.5,59.5C 116.158,60.3382 115.492,60.6716 114.5,60.5C 111.383,59.218 109.05,57.0513 107.5,54C 106.552,53.5172 105.552,53.3505 104.5,53.5C 104.567,52.0413 104.234,50.7079 103.5,49.5C 101.706,48.7671 100.039,47.7671 98.5,46.5C 97.8333,45.1667 96.8333,44.1667 95.5,43.5C 94.5,43.1667 93.8333,42.5 93.5,41.5C 93.9377,40.4937 94.6043,40.4937 95.5,41.5 Z"/></g>
<g><path style="opacity:1" fill="#6f8669" d="M 161.5,50.5 C 161.5,50.8333 161.5,51.1667 161.5,51.5C 160.167,51.5 159.5,52.1667 159.5,53.5C 158.18,52.0582 156.514,51.3915 154.5,51.5C 153.359,49.7573 151.692,48.7573 149.5,48.5C 147.234,50.2642 144.567,52.2642 141.5,54.5C 140.609,53.8902 139.609,53.5569 138.5,53.5C 138.5,52.5 138.5,51.5 138.5,50.5C 139.552,50.6495 140.552,50.4828 141.5,50C 141.167,49.6667 140.833,49.3333 140.5,49C 141.737,48.7679 142.737,48.2679 143.5,47.5C 145.29,46.0027 147.456,45.336 150,45.5C 153.929,46.9242 157.762,48.5909 161.5,50.5 Z"/></g>
<g><path style="opacity:1" fill="#dad3b9" d="M 79.5,43.5 C 79.8333,43.5 80.1667,43.5 80.5,43.5C 81.1667,43.5 81.5,43.8333 81.5,44.5C 81.5,44.8333 81.5,45.1667 81.5,45.5C 77.8144,48.2316 73.4811,49.7316 68.5,50C 63.704,52.617 58.704,54.7837 53.5,56.5C 54.1667,55.5 54.8333,54.5 55.5,53.5C 57.9216,51.0656 60.5882,49.0656 63.5,47.5C 67.5546,47.8242 71.5546,47.4909 75.5,46.5C 77.3316,45.9432 78.6649,44.9432 79.5,43.5 Z"/></g>
<g><path style="opacity:1" fill="#c5c2b1" d="M 199.5,45.5 C 199.5,47.5 199.5,49.5 199.5,51.5C 197.659,49.0481 195.659,46.5481 193.5,44C 189.07,42.9614 185.404,44.1281 182.5,47.5C 180.372,48.9573 178.038,49.9573 175.5,50.5C 171.472,51.6203 167.472,51.6203 163.5,50.5C 162.306,49.7281 161.306,48.7281 160.5,47.5C 168.932,48.5278 176.598,46.6945 183.5,42C 189.718,39.3891 195.051,40.5558 199.5,45.5 Z"/></g>
<g><path style="opacity:1" fill="#c1b391" d="M 161.5,50.5 C 162.167,50.5 162.833,50.5 163.5,50.5C 167.472,51.6203 171.472,51.6203 175.5,50.5C 175.5,51.1667 175.5,51.8333 175.5,52.5C 173.028,52.9416 170.528,53.275 168,53.5C 165.456,53.664 163.29,52.9973 161.5,51.5C 161.5,51.1667 161.5,50.8333 161.5,50.5 Z"/></g>
<g><path style="opacity:1" fill="#826019" d="M 95.5,38.5 C 95.5,39.5 95.5,40.5 95.5,41.5C 94.6043,40.4937 93.9377,40.4937 93.5,41.5C 92.8501,41.1961 92.1835,40.8627 91.5,40.5C 90.177,43.9133 90.3437,47.2467 92,50.5C 93.816,49.2568 95.316,49.5901 96.5,51.5C 96.954,54.1398 98.1207,56.4732 100,58.5C 100.232,57.2625 100.732,56.2625 101.5,55.5C 102.11,56.391 102.443,57.391 102.5,58.5C 101.903,58.7352 101.57,59.2352 101.5,60C 102.707,61.3002 103.374,62.8002 103.5,64.5C 102.474,63.147 101.141,62.147 99.5,61.5C 99.0533,58.4761 98.22,58.1428 97,60.5C 96.1065,58.2331 94.6065,56.5664 92.5,55.5C 90.0027,53.0587 87.6694,50.392 85.5,47.5C 86.4916,47.6716 87.1583,47.3382 87.5,46.5C 88.1174,46.3893 88.6174,46.056 89,45.5C 89.4966,43.1902 89.6633,40.8568 89.5,38.5C 91.4513,37.3586 93.4513,37.3586 95.5,38.5 Z"/></g>
<g><path style="opacity:1" fill="#bf9a3c" d="M 109.5,40.5 C 109.586,41.4959 109.252,42.3292 108.5,43C 111.836,44.1206 113.836,46.2872 114.5,49.5C 116.38,49.2291 117.713,49.8958 118.5,51.5C 118.611,52.1174 118.944,52.6174 119.5,53C 117.063,54.5387 114.73,56.0387 112.5,57.5C 110.501,54.308 108.167,51.308 105.5,48.5C 102.508,46.8288 99.8413,44.8288 97.5,42.5C 101.183,40.7501 105.183,40.0834 109.5,40.5 Z"/></g>
<g><path style="opacity:1" fill="#764a0b" d="M 106.5,47.5 C 108.035,46.2121 109.701,46.2121 111.5,47.5C 109.833,48.6664 108.166,48.6664 106.5,47.5 Z"/></g>
<g><path style="opacity:1" fill="#6d440e" d="M 102.5,41.5 C 103.978,41.238 105.311,41.5713 106.5,42.5C 104.579,43.641 102.579,43.8077 100.5,43C 101.416,42.7216 102.082,42.2216 102.5,41.5 Z"/></g>
<g><path style="opacity:1" fill="#c8d1cf" d="M 47.5,56.5 C 47.5,57.5 47.5,58.5 47.5,59.5C 44.9876,59.5772 42.9876,58.5772 41.5,56.5C 39.9426,53.9124 38.9426,51.0791 38.5,48C 37.2421,46.241 35.5754,45.0743 33.5,44.5C 30.8589,44.7799 28.1923,45.1133 25.5,45.5C 25.7093,46.086 26.0426,46.586 26.5,47C 22.501,50.1659 20.501,54.3326 20.5,59.5C 17.4004,60.2732 14.4004,60.6065 11.5,60.5C 10.5224,60.0233 9.68909,59.3567 9,58.5C 8.2917,59.3805 7.45837,60.0472 6.5,60.5C 7.34026,58.1475 8.6736,56.1475 10.5,54.5C 11.4584,54.0472 12.2917,53.3805 13,52.5C 13.7253,54.158 14.892,54.658 16.5,54C 17.3333,51.8333 18.8333,50.3333 21,49.5C 21.6172,48.5509 21.4506,47.7175 20.5,47C 21.4162,46.6258 22.2496,46.1258 23,45.5C 23.71,41.291 26.21,38.9577 30.5,38.5C 37.1563,39.8165 40.4896,43.8165 40.5,50.5C 41.552,50.3505 42.552,50.5172 43.5,51C 44.7213,53.0337 46.0546,54.867 47.5,56.5 Z"/></g>
<g><path style="opacity:1" fill="#c2ba98" d="M 81.5,45.5 C 82.3149,46.4293 83.1482,47.4293 84,48.5C 84.3826,47.944 84.8826,47.6107 85.5,47.5C 87.6694,50.392 90.0027,53.0587 92.5,55.5C 93.6303,58.1367 93.6303,60.8033 92.5,63.5C 91.1667,63.5 89.8333,63.5 88.5,63.5C 86.7179,64.7196 84.7179,65.3862 82.5,65.5C 82.8333,64.8333 83.1667,64.1667 83.5,63.5C 85.7583,63.2249 86.0916,62.2249 84.5,60.5C 85.6888,59.5713 87.0222,59.238 88.5,59.5C 89.0853,56.7395 88.0853,55.0728 85.5,54.5C 79.6996,55.765 74.0329,57.0983 68.5,58.5C 64.6704,58.8133 61.3371,60.3133 58.5,63C 56.1902,63.4966 53.8568,63.6633 51.5,63.5C 51.6287,61.7839 51.962,60.1172 52.5,58.5C 52.8333,57.8333 53.1667,57.1667 53.5,56.5C 58.704,54.7837 63.704,52.617 68.5,50C 73.4811,49.7316 77.8144,48.2316 81.5,45.5 Z"/></g>
<g><path style="opacity:1" fill="#9d7a10" d="M 98.5,46.5 C 100.039,47.7671 101.706,48.7671 103.5,49.5C 102.5,49.5 101.5,49.5 100.5,49.5C 100.325,51.6208 100.659,53.6208 101.5,55.5C 100.732,56.2625 100.232,57.2625 100,58.5C 98.1207,56.4732 96.954,54.1398 96.5,51.5C 97.5754,52.5624 98.5754,52.5624 99.5,51.5C 98.6906,49.9291 98.3573,48.2624 98.5,46.5 Z"/></g>
<g><path style="opacity:1" fill="#4b6042" d="M 154.5,51.5 C 150.267,51.4571 146.6,52.7905 143.5,55.5C 142.508,55.6716 141.842,55.3382 141.5,54.5C 144.567,52.2642 147.234,50.2642 149.5,48.5C 151.692,48.7573 153.359,49.7573 154.5,51.5 Z"/></g>
<g><path style="opacity:1" fill="#b1b08f" d="M 139.5,47.5 C 140.833,47.5 142.167,47.5 143.5,47.5C 142.737,48.2679 141.737,48.7679 140.5,49C 140.833,49.3333 141.167,49.6667 141.5,50C 140.552,50.4828 139.552,50.6495 138.5,50.5C 138.5,51.5 138.5,52.5 138.5,53.5C 136.5,54.8333 134.5,56.1667 132.5,57.5C 130.566,56.8897 128.899,55.8897 127.5,54.5C 130.721,54.1039 133.388,52.7705 135.5,50.5C 136.376,50.6309 137.043,50.2975 137.5,49.5C 136.624,48.7492 135.624,48.2492 134.5,48C 136.134,47.5065 137.801,47.3398 139.5,47.5 Z"/></g>
<g><path style="opacity:1" fill="#1e2c0a" d="M 154.5,51.5 C 154.037,54.3303 153.371,56.997 152.5,59.5C 149.378,58.4388 146.378,57.1054 143.5,55.5C 146.6,52.7905 150.267,51.4571 154.5,51.5 Z"/></g>
<g><path style="opacity:1" fill="#aa9456" d="M 161.5,51.5 C 163.29,52.9973 165.456,53.664 168,53.5C 170.528,53.275 173.028,52.9416 175.5,52.5C 174.571,53.3149 173.571,54.1482 172.5,55C 168.861,55.0262 165.528,55.8595 162.5,57.5C 161.833,57.5 161.167,57.5 160.5,57.5C 160.737,56.209 160.404,55.209 159.5,54.5C 159.5,54.1667 159.5,53.8333 159.5,53.5C 159.5,52.1667 160.167,51.5 161.5,51.5 Z"/></g>
<g><path style="opacity:1" fill="#debe73" d="M 118.5,51.5 C 119.778,51.7822 120.778,52.4489 121.5,53.5C 122.5,53.5 123.5,53.5 124.5,53.5C 122.882,55.6559 123.216,57.3226 125.5,58.5C 126.436,59.9744 127.77,60.9744 129.5,61.5C 130.5,62.1667 131.5,62.8333 132.5,63.5C 132.5,64.1667 132.167,64.5 131.5,64.5C 129.95,63.5592 128.284,62.8925 126.5,62.5C 123.736,59.4665 120.403,58.4665 116.5,59.5C 114.938,59.2671 113.605,58.6005 112.5,57.5C 114.73,56.0387 117.063,54.5387 119.5,53C 118.944,52.6174 118.611,52.1174 118.5,51.5 Z"/></g>
<g><path style="opacity:1" fill="#474410" d="M 154.5,51.5 C 156.514,51.3915 158.18,52.0582 159.5,53.5C 159.5,53.8333 159.5,54.1667 159.5,54.5C 156.687,55.4461 155.354,57.4461 155.5,60.5C 154.5,60.5 153.5,60.5 152.5,60.5C 152.5,60.1667 152.5,59.8333 152.5,59.5C 153.371,56.997 154.037,54.3303 154.5,51.5 Z"/></g>
<g><path style="opacity:1" fill="#b69141" d="M 182.5,47.5 C 183.167,47.5 183.833,47.5 184.5,47.5C 181.48,49.5232 179.146,52.1898 177.5,55.5C 172.571,57.9522 167.571,58.6189 162.5,57.5C 165.528,55.8595 168.861,55.0262 172.5,55C 173.571,54.1482 174.571,53.3149 175.5,52.5C 175.5,51.8333 175.5,51.1667 175.5,50.5C 178.038,49.9573 180.372,48.9573 182.5,47.5 Z"/></g>
<g><path style="opacity:1" fill="#9c8645" d="M 199.5,54.5 C 199.5,55.5 199.5,56.5 199.5,57.5C 195.818,57.6653 192.152,57.4986 188.5,57C 188.014,54.9734 188.014,52.8067 188.5,50.5C 189.5,50.5 190.5,50.5 191.5,50.5C 191.5,49.5 191.5,48.5 191.5,47.5C 190.167,47.5 188.833,47.5 187.5,47.5C 189.282,45.3131 191.448,44.9797 194,46.5C 194.497,49.146 194.664,51.8127 194.5,54.5C 196.167,54.5 197.833,54.5 199.5,54.5 Z"/></g>
<g><path style="opacity:1" fill="#d7b060" d="M 103.5,49.5 C 104.234,50.7079 104.567,52.0413 104.5,53.5C 105.743,55.7531 107.41,57.7531 109.5,59.5C 110.598,62.7527 111.264,66.0861 111.5,69.5C 110.356,67.8998 109.189,66.2331 108,64.5C 107.617,65.056 107.117,65.3893 106.5,65.5C 105.528,62.8684 104.195,60.5351 102.5,58.5C 102.443,57.391 102.11,56.391 101.5,55.5C 100.659,53.6208 100.325,51.6208 100.5,49.5C 101.5,49.5 102.5,49.5 103.5,49.5 Z"/></g>
<g><path style="opacity:1" fill="#c7b884" d="M 124.5,53.5 C 125.791,53.2627 126.791,53.596 127.5,54.5C 128.899,55.8897 130.566,56.8897 132.5,57.5C 130.393,58.4682 128.059,58.8016 125.5,58.5C 123.216,57.3226 122.882,55.6559 124.5,53.5 Z"/></g>
<g><path style="opacity:1" fill="#8d8a56" d="M 138.5,53.5 C 139.609,53.5569 140.609,53.8902 141.5,54.5C 141.842,55.3382 142.508,55.6716 143.5,55.5C 142.048,56.3019 140.382,56.8019 138.5,57C 139.056,57.3826 139.389,57.8826 139.5,58.5C 138.209,58.2627 137.209,58.596 136.5,59.5C 134.167,60.1667 131.833,60.8333 129.5,61.5C 127.77,60.9744 126.436,59.9744 125.5,58.5C 128.059,58.8016 130.393,58.4682 132.5,57.5C 134.5,56.1667 136.5,54.8333 138.5,53.5 Z"/></g>
<g><path style="opacity:1" fill="#a9bbb4" d="M 5.5,57.5 C 4.83333,58.5 4.16667,59.5 3.5,60.5C 3.16667,61.1667 2.83333,61.8333 2.5,62.5C 1.60895,63.1098 0.608953,63.4431 -0.5,63.5C -0.5,61.8333 -0.5,60.1667 -0.5,58.5C 1.24917,56.4686 3.24917,56.1353 5.5,57.5 Z"/></g>
<g><path style="opacity:1" fill="#596a37" d="M 143.5,55.5 C 146.378,57.1054 149.378,58.4388 152.5,59.5C 152.5,59.8333 152.5,60.1667 152.5,60.5C 151.833,60.5 151.5,60.8333 151.5,61.5C 148.852,60.3275 146.185,59.4941 143.5,59C 144.381,59.7083 145.047,60.5416 145.5,61.5C 144.167,61.1667 142.833,60.8333 141.5,60.5C 140.833,59.8333 140.167,59.1667 139.5,58.5C 139.389,57.8826 139.056,57.3826 138.5,57C 140.382,56.8019 142.048,56.3019 143.5,55.5 Z"/></g>
<g><path style="opacity:1" fill="#adbbb6" d="M 47.5,56.5 C 50.5525,56.4279 53.2192,55.4279 55.5,53.5C 54.8333,54.5 54.1667,55.5 53.5,56.5C 53.1667,57.1667 52.8333,57.8333 52.5,58.5C 49.1548,61.2511 45.9881,64.2511 43,67.5C 38.8421,66.6837 36.0087,64.3504 34.5,60.5C 36.3865,57.0799 36.8865,53.4133 36,49.5C 34.9805,48.3128 33.8139,47.3128 32.5,46.5C 31.2798,47.7111 30.1131,47.7111 29,46.5C 26.3048,49.6483 24.9715,53.315 25,57.5C 19.5568,64.0306 13.3902,65.0306 6.5,60.5C 7.45837,60.0472 8.2917,59.3805 9,58.5C 9.68909,59.3567 10.5224,60.0233 11.5,60.5C 14.4004,60.6065 17.4004,60.2732 20.5,59.5C 20.501,54.3326 22.501,50.1659 26.5,47C 26.0426,46.586 25.7093,46.086 25.5,45.5C 28.1923,45.1133 30.8589,44.7799 33.5,44.5C 35.5754,45.0743 37.2421,46.241 38.5,48C 38.9426,51.0791 39.9426,53.9124 41.5,56.5C 42.9876,58.5772 44.9876,59.5772 47.5,59.5C 47.5,58.5 47.5,57.5 47.5,56.5 Z"/></g>
<g><path style="opacity:1" fill="#c19a2b" d="M 104.5,53.5 C 105.552,53.3505 106.552,53.5172 107.5,54C 109.05,57.0513 111.383,59.218 114.5,60.5C 114.328,61.4916 114.662,62.1583 115.5,62.5C 115.5,62.8333 115.5,63.1667 115.5,63.5C 114.033,62.7084 112.7,62.7084 111.5,63.5C 112.559,65.5336 113.559,67.5336 114.5,69.5C 113.25,69.5774 112.417,70.244 112,71.5C 111.536,70.9056 111.369,70.2389 111.5,69.5C 111.264,66.0861 110.598,62.7527 109.5,59.5C 107.41,57.7531 105.743,55.7531 104.5,53.5 Z"/></g>
<g><path style="opacity:1" fill="#b08843" d="M 126.5,62.5 C 126.5,62.8333 126.5,63.1667 126.5,63.5C 124.563,62.2942 122.896,62.6275 121.5,64.5C 120.833,64.1667 120.167,63.8333 119.5,63.5C 118.279,62.9717 117.113,62.305 116,61.5C 115.601,61.7284 115.435,62.0618 115.5,62.5C 114.662,62.1583 114.328,61.4916 114.5,60.5C 115.492,60.6716 116.158,60.3382 116.5,59.5C 120.403,58.4665 123.736,59.4665 126.5,62.5 Z"/></g>
<g><path style="opacity:1" fill="#c2a054" d="M 92.5,55.5 C 94.6065,56.5664 96.1065,58.2331 97,60.5C 98.22,58.1428 99.0533,58.4761 99.5,61.5C 99.1788,63.0481 98.1788,63.7148 96.5,63.5C 96.7373,64.791 96.404,65.791 95.5,66.5C 94.8333,66.5 94.1667,66.5 93.5,66.5C 92.8902,65.609 92.5569,64.609 92.5,63.5C 93.6303,60.8033 93.6303,58.1367 92.5,55.5 Z"/></g>
<g><path style="opacity:1" fill="#746922" d="M 136.5,59.5 C 136.882,61.3854 138.215,62.8854 140.5,64C 138.68,63.5241 137.013,63.6907 135.5,64.5C 134.609,63.8902 133.609,63.5569 132.5,63.5C 131.5,62.8333 130.5,62.1667 129.5,61.5C 131.833,60.8333 134.167,60.1667 136.5,59.5 Z"/></g>
<g><path style="opacity:1" fill="#1c2005" d="M 151.5,61.5 C 149.653,62.5729 147.653,62.5729 145.5,61.5C 145.047,60.5416 144.381,59.7083 143.5,59C 146.185,59.4941 148.852,60.3275 151.5,61.5 Z"/></g>
<g><path style="opacity:1" fill="#504b17" d="M 136.5,59.5 C 137.209,58.596 138.209,58.2627 139.5,58.5C 140.167,59.1667 140.833,59.8333 141.5,60.5C 140.668,61.3285 141.001,62.1618 142.5,63C 144.491,63.3736 146.158,64.207 147.5,65.5C 146.262,65.81 146.262,66.31 147.5,67C 146.451,67.4922 145.451,67.3256 144.5,66.5C 144.213,67.2003 143.88,67.8669 143.5,68.5C 140.833,67.1667 138.167,65.8333 135.5,64.5C 137.013,63.6907 138.68,63.5241 140.5,64C 138.215,62.8854 136.882,61.3854 136.5,59.5 Z"/></g>
<g><path style="opacity:1" fill="#1c1d03" d="M 141.5,60.5 C 142.833,60.8333 144.167,61.1667 145.5,61.5C 146.574,62.8846 147.907,64.0513 149.5,65C 148.906,65.4643 148.239,65.631 147.5,65.5C 146.158,64.207 144.491,63.3736 142.5,63C 141.001,62.1618 140.668,61.3285 141.5,60.5 Z"/></g>
<g><path style="opacity:1" fill="#3f2300" d="M 119.5,63.5 C 118.295,64.6857 116.961,64.6857 115.5,63.5C 115.5,63.1667 115.5,62.8333 115.5,62.5C 115.435,62.0618 115.601,61.7284 116,61.5C 117.113,62.305 118.279,62.9717 119.5,63.5 Z"/></g>
<g><path style="opacity:1" fill="#734a08" d="M 115.5,63.5 C 116.961,64.6857 118.295,64.6857 119.5,63.5C 120.167,63.8333 120.833,64.1667 121.5,64.5C 123.289,65.8772 125.289,66.8772 127.5,67.5C 126.71,68.4013 125.71,69.0679 124.5,69.5C 123.452,67.4662 121.786,66.1329 119.5,65.5C 118.537,65.9698 118.537,66.6365 119.5,67.5C 119.5,67.8333 119.5,68.1667 119.5,68.5C 118.167,67.5 116.833,66.5 115.5,65.5C 115.5,64.8333 115.5,64.1667 115.5,63.5 Z"/></g>
<g><path style="opacity:1" fill="#e1b555" d="M 126.5,63.5 C 128.063,64.9448 129.396,66.6115 130.5,68.5C 129.391,68.4431 128.391,68.1098 127.5,67.5C 125.289,66.8772 123.289,65.8772 121.5,64.5C 122.896,62.6275 124.563,62.2942 126.5,63.5 Z"/></g>
<g><path style="opacity:1" fill="#86690c" d="M 184.5,47.5 C 185.5,47.5 186.5,47.5 187.5,47.5C 188.833,47.5 190.167,47.5 191.5,47.5C 191.5,48.5 191.5,49.5 191.5,50.5C 190.5,50.5 189.5,50.5 188.5,50.5C 188.014,52.8067 188.014,54.9734 188.5,57C 192.152,57.4986 195.818,57.6653 199.5,57.5C 199.5,58.5 199.5,59.5 199.5,60.5C 193.696,60.8779 188.03,60.2113 182.5,58.5C 177.149,61.508 171.815,64.508 166.5,67.5C 166.281,66.325 166.614,65.325 167.5,64.5C 169.894,62.9319 172.394,61.5985 175,60.5C 176.094,58.9221 176.928,57.2554 177.5,55.5C 179.146,52.1898 181.48,49.5232 184.5,47.5 Z"/></g>
<g><path style="opacity:1" fill="#5e7642" d="M 2.5,62.5 C 1.88972,64.4341 0.889724,66.1007 -0.5,67.5C -0.5,66.1667 -0.5,64.8333 -0.5,63.5C 0.608953,63.4431 1.60895,63.1098 2.5,62.5 Z"/></g>
<g><path style="opacity:1" fill="#b0beb1" d="M 83.5,63.5 C 80.8127,63.3359 78.146,63.5026 75.5,64C 72.3733,66.517 69.3733,69.017 66.5,71.5C 64.5,71.1667 62.5,70.8333 60.5,70.5C 60.687,68.4357 61.187,66.4357 62,64.5C 64.1584,62.4142 66.3251,60.4142 68.5,58.5C 74.0329,57.0983 79.6996,55.765 85.5,54.5C 88.0853,55.0728 89.0853,56.7395 88.5,59.5C 87.0222,59.238 85.6888,59.5713 84.5,60.5C 86.0916,62.2249 85.7583,63.2249 83.5,63.5 Z"/></g>
<g><path style="opacity:1" fill="#4c2809" d="M 102.5,58.5 C 104.195,60.5351 105.528,62.8684 106.5,65.5C 107.686,66.9613 107.686,68.2946 106.5,69.5C 105.89,67.5659 104.89,65.8993 103.5,64.5C 103.374,62.8002 102.707,61.3002 101.5,60C 101.57,59.2352 101.903,58.7352 102.5,58.5 Z"/></g>
<g><path style="opacity:1" fill="#edc87f" d="M 115.5,63.5 C 115.5,64.1667 115.5,64.8333 115.5,65.5C 116.038,67.1172 116.371,68.7839 116.5,70.5C 115.833,70.1667 115.167,69.8333 114.5,69.5C 113.559,67.5336 112.559,65.5336 111.5,63.5C 112.7,62.7084 114.033,62.7084 115.5,63.5 Z"/></g>
<g><path style="opacity:1" fill="#795a07" d="M 126.5,63.5 C 126.5,63.1667 126.5,62.8333 126.5,62.5C 128.284,62.8925 129.95,63.5592 131.5,64.5C 133.927,66.5576 136.593,68.3909 139.5,70C 138.207,70.49 136.873,70.6567 135.5,70.5C 133.95,69.5592 132.284,68.8925 130.5,68.5C 129.396,66.6115 128.063,64.9448 126.5,63.5 Z"/></g>
<g><path style="opacity:1" fill="#755f10" d="M 159.5,54.5 C 160.404,55.209 160.737,56.209 160.5,57.5C 160.548,60.2919 159.215,62.1253 156.5,63C 157.552,64.7165 156.886,65.7165 154.5,66C 154.833,66.3333 155.167,66.6667 155.5,67C 153.825,67.9853 152.158,68.8186 150.5,69.5C 148.302,69.4088 147.969,70.0755 149.5,71.5C 148.833,71.5 148.167,71.5 147.5,71.5C 146.167,70.5 144.833,69.5 143.5,68.5C 143.88,67.8669 144.213,67.2003 144.5,66.5C 145.451,67.3256 146.451,67.4922 147.5,67C 146.262,66.31 146.262,65.81 147.5,65.5C 148.239,65.631 148.906,65.4643 149.5,65C 147.907,64.0513 146.574,62.8846 145.5,61.5C 147.653,62.5729 149.653,62.5729 151.5,61.5C 151.5,60.8333 151.833,60.5 152.5,60.5C 153.5,60.5 154.5,60.5 155.5,60.5C 155.354,57.4461 156.687,55.4461 159.5,54.5 Z"/></g>
<g><path style="opacity:1" fill="#725b01" d="M 199.5,60.5 C 199.5,63.8333 199.5,67.1667 199.5,70.5C 196.125,70.767 192.958,71.767 190,73.5C 188.148,71.91 186.148,70.5767 184,69.5C 178.605,72.5811 172.939,73.5811 167,72.5C 166.506,70.8659 166.34,69.1992 166.5,67.5C 171.815,64.508 177.149,61.508 182.5,58.5C 188.03,60.2113 193.696,60.8779 199.5,60.5 Z"/></g>
<g><path style="opacity:1" fill="#4d6042" d="M 4.5,63.5 C 6.04599,65.9305 8.37933,67.2639 11.5,67.5C 11.5,68.1667 11.5,68.8333 11.5,69.5C 11.5,70.1667 11.5,70.8333 11.5,71.5C 10.5084,71.3284 9.84171,71.6618 9.5,72.5C 9.16667,72.5 8.83333,72.5 8.5,72.5C 6.79056,70.187 4.45723,68.687 1.5,68C 2.39936,66.3484 3.39936,64.8484 4.5,63.5 Z"/></g>
<g><path style="opacity:1" fill="#342504" d="M 119.5,67.5 C 120.833,68.1667 121.833,69.1667 122.5,70.5C 122.158,71.3382 121.492,71.6716 120.5,71.5C 120.443,70.391 120.11,69.391 119.5,68.5C 119.5,68.1667 119.5,67.8333 119.5,67.5 Z"/></g>
<g><path style="opacity:1" fill="#93a79c" d="M 52.5,58.5 C 51.962,60.1172 51.6287,61.7839 51.5,63.5C 53.8568,63.6633 56.1902,63.4966 58.5,63C 61.3371,60.3133 64.6704,58.8133 68.5,58.5C 66.3251,60.4142 64.1584,62.4142 62,64.5C 61.187,66.4357 60.687,68.4357 60.5,70.5C 62.5,70.8333 64.5,71.1667 66.5,71.5C 65.7375,72.2679 64.7375,72.7679 63.5,73C 56.8333,73.6667 50.1667,73.6667 43.5,73C 41.6217,70.6255 39.2884,68.7922 36.5,67.5C 35.7379,66.3717 35.0712,65.2051 34.5,64C 30.1794,63.501 25.8461,63.3343 21.5,63.5C 21.5,64.5 21.5,65.5 21.5,66.5C 19.4352,66.5172 17.4352,66.8505 15.5,67.5C 14.1667,67.5 12.8333,67.5 11.5,67.5C 8.37933,67.2639 6.04599,65.9305 4.5,63.5C 4.55688,62.391 4.89022,61.391 5.5,60.5C 5.83333,60.5 6.16667,60.5 6.5,60.5C 13.3902,65.0306 19.5568,64.0306 25,57.5C 24.9715,53.315 26.3048,49.6483 29,46.5C 30.1131,47.7111 31.2798,47.7111 32.5,46.5C 33.8139,47.3128 34.9805,48.3128 36,49.5C 36.8865,53.4133 36.3865,57.0799 34.5,60.5C 36.0087,64.3504 38.8421,66.6837 43,67.5C 45.9881,64.2511 49.1548,61.2511 52.5,58.5 Z"/></g>
<g><path style="opacity:1" fill="#263613" d="M 3.5,60.5 C 4.16667,60.5 4.83333,60.5 5.5,60.5C 4.89022,61.391 4.55688,62.391 4.5,63.5C 3.39936,64.8484 2.39936,66.3484 1.5,68C 4.45723,68.687 6.79056,70.187 8.5,72.5C 8.67158,73.4916 8.33825,74.1583 7.5,74.5C 7.0472,73.5416 6.38053,72.7083 5.5,72C 3.18867,71.7641 1.18867,70.9307 -0.5,69.5C -0.5,68.8333 -0.5,68.1667 -0.5,67.5C 0.889724,66.1007 1.88972,64.4341 2.5,62.5C 2.83333,61.8333 3.16667,61.1667 3.5,60.5 Z"/></g>
<g><path style="opacity:1" fill="#a59c7c" d="M 40.5,73.5 C 39.8333,73.5 39.1667,73.5 38.5,73.5C 29.4842,72.3128 20.4842,70.9795 11.5,69.5C 11.5,68.8333 11.5,68.1667 11.5,67.5C 12.8333,67.5 14.1667,67.5 15.5,67.5C 15.9169,68.1239 16.5836,68.4573 17.5,68.5C 21.3701,66.8278 25.3701,66.3278 29.5,67C 31.1066,68.049 31.7733,69.549 31.5,71.5C 34.1873,71.3359 36.854,71.5026 39.5,72C 40.056,72.3826 40.3893,72.8826 40.5,73.5 Z"/></g>
<g><path style="opacity:1" fill="#cdab57" d="M 124.5,69.5 C 126.865,72.995 126.198,73.3283 122.5,70.5C 121.833,69.1667 120.833,68.1667 119.5,67.5C 118.537,66.6365 118.537,65.9698 119.5,65.5C 121.786,66.1329 123.452,67.4662 124.5,69.5 Z"/></g>
<g><path style="opacity:1" fill="#8a9166" d="M 88.5,63.5 C 88.5858,64.4959 88.2524,65.3292 87.5,66C 81.2972,65.9574 76.2972,68.2907 72.5,73C 70.2746,73.5611 68.2746,74.5611 66.5,76C 59.1742,76.4997 51.8409,76.6663 44.5,76.5C 42.8008,76.6602 41.1341,76.4935 39.5,76C 38.7476,75.3292 38.4142,74.4959 38.5,73.5C 39.1667,73.5 39.8333,73.5 40.5,73.5C 49.9219,76.2583 59.2553,76.0917 68.5,73C 71.8696,68.1476 76.5363,65.6476 82.5,65.5C 84.7179,65.3862 86.7179,64.7196 88.5,63.5 Z"/></g>
<g><path style="opacity:1" fill="#9a7914" d="M 132.5,63.5 C 133.609,63.5569 134.609,63.8902 135.5,64.5C 138.167,65.8333 140.833,67.1667 143.5,68.5C 144.833,69.5 146.167,70.5 147.5,71.5C 143.199,74.4482 139.199,74.1149 135.5,70.5C 136.873,70.6567 138.207,70.49 139.5,70C 136.593,68.3909 133.927,66.5576 131.5,64.5C 132.167,64.5 132.5,64.1667 132.5,63.5 Z"/></g>
<g><path style="opacity:1" fill="#95a189" d="M 66.5,71.5 C 69.3733,69.017 72.3733,66.517 75.5,64C 78.146,63.5026 80.8127,63.3359 83.5,63.5C 83.1667,64.1667 82.8333,64.8333 82.5,65.5C 76.5363,65.6476 71.8696,68.1476 68.5,73C 59.2553,76.0917 49.9219,76.2583 40.5,73.5C 40.3893,72.8826 40.056,72.3826 39.5,72C 36.854,71.5026 34.1873,71.3359 31.5,71.5C 31.7733,69.549 31.1066,68.049 29.5,67C 25.3701,66.3278 21.3701,66.8278 17.5,68.5C 16.5836,68.4573 15.9169,68.1239 15.5,67.5C 17.4352,66.8505 19.4352,66.5172 21.5,66.5C 21.5,65.5 21.5,64.5 21.5,63.5C 25.8461,63.3343 30.1794,63.501 34.5,64C 35.0712,65.2051 35.7379,66.3717 36.5,67.5C 39.2884,68.7922 41.6217,70.6255 43.5,73C 50.1667,73.6667 56.8333,73.6667 63.5,73C 64.7375,72.7679 65.7375,72.2679 66.5,71.5 Z"/></g>
<g><path style="opacity:1" fill="#704a0f" d="M 111.5,69.5 C 111.369,70.2389 111.536,70.9056 112,71.5C 112.417,70.244 113.25,69.5774 114.5,69.5C 115.167,69.8333 115.833,70.1667 116.5,70.5C 117.555,74.2749 118.888,77.9416 120.5,81.5C 119.539,83.2646 119.205,85.2646 119.5,87.5C 118.596,86.791 118.263,85.791 118.5,84.5C 119.077,81.4503 117.91,79.4503 115,78.5C 114.71,76.9559 114.044,75.6226 113,74.5C 112.667,74.8333 112.333,75.1667 112,75.5C 111.558,73.3215 110.558,72.6548 109,73.5C 108.338,72.0161 107.504,70.6828 106.5,69.5C 107.686,68.2946 107.686,66.9613 106.5,65.5C 107.117,65.3893 107.617,65.056 108,64.5C 109.189,66.2331 110.356,67.8998 111.5,69.5 Z"/></g>
<g><path style="opacity:1" fill="#916f03" d="M 177.5,55.5 C 176.928,57.2554 176.094,58.9221 175,60.5C 172.394,61.5985 169.894,62.9319 167.5,64.5C 166.614,65.325 166.281,66.325 166.5,67.5C 166.34,69.1992 166.506,70.8659 167,72.5C 172.939,73.5811 178.605,72.5811 184,69.5C 186.148,70.5767 188.148,71.91 190,73.5C 192.958,71.767 196.125,70.767 199.5,70.5C 199.5,74.8333 199.5,79.1667 199.5,83.5C 196.753,83.8134 194.086,83.48 191.5,82.5C 189.189,80.0126 186.522,78.0126 183.5,76.5C 177.877,76.4781 172.211,76.6448 166.5,77C 161.942,75.1087 158.775,71.942 157,67.5C 155.269,70.302 153.102,70.9687 150.5,69.5C 152.158,68.8186 153.825,67.9853 155.5,67C 155.167,66.6667 154.833,66.3333 154.5,66C 156.886,65.7165 157.552,64.7165 156.5,63C 159.215,62.1253 160.548,60.2919 160.5,57.5C 161.167,57.5 161.833,57.5 162.5,57.5C 167.571,58.6189 172.571,57.9522 177.5,55.5 Z"/></g>
<g><path style="opacity:1" fill="#9e8b57" d="M 11.5,69.5 C 20.4842,70.9795 29.4842,72.3128 38.5,73.5C 38.4142,74.4959 38.7476,75.3292 39.5,76C 41.1341,76.4935 42.8008,76.6602 44.5,76.5C 40.3515,77.1243 36.0182,77.1243 31.5,76.5C 26.2628,75.6497 20.9294,74.6497 15.5,73.5C 13.8007,73.4729 12.4674,72.8062 11.5,71.5C 11.5,70.8333 11.5,70.1667 11.5,69.5 Z"/></g>
<g><path style="opacity:1" fill="#888142" d="M 88.5,63.5 C 89.8333,63.5 91.1667,63.5 92.5,63.5C 92.5569,64.609 92.8902,65.609 93.5,66.5C 91.5,67.1667 89.5,67.8333 87.5,68.5C 81.6102,68.5233 76.9436,71.0233 73.5,76C 71.7254,77.4389 69.7254,78.4389 67.5,79C 55.3849,79.9917 43.3849,79.4917 31.5,77.5C 31.5,77.1667 31.5,76.8333 31.5,76.5C 36.0182,77.1243 40.3515,77.1243 44.5,76.5C 51.8409,76.6663 59.1742,76.4997 66.5,76C 68.2746,74.5611 70.2746,73.5611 72.5,73C 76.2972,68.2907 81.2972,65.9574 87.5,66C 88.2524,65.3292 88.5858,64.4959 88.5,63.5 Z"/></g>
<g><path style="opacity:1" fill="#181d03" d="M -0.5,69.5 C 1.18867,70.9307 3.18867,71.7641 5.5,72C 6.38053,72.7083 7.0472,73.5416 7.5,74.5C 7.57918,75.9305 7.24585,77.2638 6.5,78.5C 4.25731,79.4742 1.92397,79.8076 -0.5,79.5C -0.5,76.1667 -0.5,72.8333 -0.5,69.5 Z"/></g>
<g><path style="opacity:1" fill="#5c4b05" d="M 11.5,71.5 C 12.4674,72.8062 13.8007,73.4729 15.5,73.5C 15.1667,74.1667 14.8333,74.8333 14.5,75.5C 12.776,78.8349 10.776,82.0016 8.5,85C 5.51838,85.498 2.51838,85.6646 -0.5,85.5C -0.5,84.5 -0.5,83.5 -0.5,82.5C 6.71632,82.62 10.0496,79.2866 9.5,72.5C 9.84171,71.6618 10.5084,71.3284 11.5,71.5 Z"/></g>
<g><path style="opacity:1" fill="#a48333" d="M 15.5,73.5 C 20.9294,74.6497 26.2628,75.6497 31.5,76.5C 31.5,76.8333 31.5,77.1667 31.5,77.5C 30.5,78.1667 29.5,78.8333 28.5,79.5C 27.8333,79.5 27.1667,79.5 26.5,79.5C 23.1667,79.5 19.8333,79.5 16.5,79.5C 16.8432,77.5168 16.1765,76.1834 14.5,75.5C 14.8333,74.8333 15.1667,74.1667 15.5,73.5 Z"/></g>
<g><path style="opacity:1" fill="#d4ae57" d="M 116.5,70.5 C 120.672,73.8439 123.005,78.1773 123.5,83.5C 123.672,84.4916 123.338,85.1583 122.5,85.5C 121.833,84.1667 121.167,82.8333 120.5,81.5C 118.888,77.9416 117.555,74.2749 116.5,70.5 Z"/></g>
<g><path style="opacity:1" fill="#b78b24" d="M 127.5,67.5 C 128.391,68.1098 129.391,68.4431 130.5,68.5C 132.284,68.8925 133.95,69.5592 135.5,70.5C 139.199,74.1149 143.199,74.4482 147.5,71.5C 148.167,71.5 148.833,71.5 149.5,71.5C 149.5,71.8333 149.5,72.1667 149.5,72.5C 149.456,73.9248 148.456,75.2582 146.5,76.5C 144.579,76.5704 142.579,76.4037 140.5,76C 142.763,77.617 144.763,79.4503 146.5,81.5C 144.158,81.7748 144.158,82.6081 146.5,84C 146.167,84.1667 145.833,84.3333 145.5,84.5C 144.38,83.1666 143.047,82.6666 141.5,83C 142.71,84.0391 143.71,85.2058 144.5,86.5C 145.625,88.1288 146.959,89.6288 148.5,91C 146.893,90.9813 145.226,90.8146 143.5,90.5C 141.751,85.7314 138.418,83.3981 133.5,83.5C 134.833,83.5 135.5,82.8333 135.5,81.5C 137.052,82.6218 138.718,83.1218 140.5,83C 138.176,79.8355 135.176,77.6688 131.5,76.5C 128.749,77.3409 126.582,76.3409 125,73.5C 124.536,74.0944 124.369,74.7611 124.5,75.5C 122.833,74.5 121.5,73.1667 120.5,71.5C 121.492,71.6716 122.158,71.3382 122.5,70.5C 126.198,73.3283 126.865,72.995 124.5,69.5C 125.71,69.0679 126.71,68.4013 127.5,67.5 Z"/></g>
<g><path style="opacity:1" fill="#a17a03" d="M 199.5,83.5 C 199.5,84.1667 199.5,84.8333 199.5,85.5C 197.658,85.7233 195.825,86.0566 194,86.5C 191.431,85.1316 188.931,83.6316 186.5,82C 182.141,81.9504 177.974,81.1171 174,79.5C 173,80.1667 172,80.8333 171,81.5C 165.272,78.7816 159.772,75.6149 154.5,72C 153.5,71.3333 152.5,71.3333 151.5,72C 152.696,72.6543 152.696,73.1543 151.5,73.5C 150.817,73.1373 150.15,72.8039 149.5,72.5C 149.5,72.1667 149.5,71.8333 149.5,71.5C 147.969,70.0755 148.302,69.4088 150.5,69.5C 153.102,70.9687 155.269,70.302 157,67.5C 158.775,71.942 161.942,75.1087 166.5,77C 172.211,76.6448 177.877,76.4781 183.5,76.5C 186.522,78.0126 189.189,80.0126 191.5,82.5C 194.086,83.48 196.753,83.8134 199.5,83.5 Z"/></g>
<g><path style="opacity:1" fill="#373202" d="M 8.5,72.5 C 8.83333,72.5 9.16667,72.5 9.5,72.5C 10.0496,79.2866 6.71632,82.62 -0.5,82.5C -0.5,81.5 -0.5,80.5 -0.5,79.5C 1.92397,79.8076 4.25731,79.4742 6.5,78.5C 7.24585,77.2638 7.57918,75.9305 7.5,74.5C 8.33825,74.1583 8.67158,73.4916 8.5,72.5 Z"/></g>
<g><path style="opacity:1" fill="#886f14" d="M 87.5,68.5 C 87.0057,72.8459 84.6724,75.5126 80.5,76.5C 79.6143,77.325 79.281,78.325 79.5,79.5C 65.9041,82.8961 52.0708,85.2294 38,86.5C 32.5977,86.9058 29.431,84.5725 28.5,79.5C 29.5,78.8333 30.5,78.1667 31.5,77.5C 43.3849,79.4917 55.3849,79.9917 67.5,79C 69.7254,78.4389 71.7254,77.4389 73.5,76C 76.9436,71.0233 81.6102,68.5233 87.5,68.5 Z"/></g>
<g><path style="opacity:1" fill="#88631f" d="M 124.5,75.5 C 126.505,77.334 128.672,79.0007 131,80.5C 131.333,80.1667 131.667,79.8333 132,79.5C 133.113,80.305 134.279,80.9717 135.5,81.5C 135.5,82.8333 134.833,83.5 133.5,83.5C 131.162,81.9893 130.496,82.3227 131.5,84.5C 130.833,84.5 130.5,84.8333 130.5,85.5C 127.498,82.8388 125.498,79.5055 124.5,75.5 Z"/></g>
<g><path style="opacity:1" fill="#e4bb61" d="M 135.5,81.5 C 134.279,80.9717 133.113,80.305 132,79.5C 131.667,79.8333 131.333,80.1667 131,80.5C 128.672,79.0007 126.505,77.334 124.5,75.5C 124.369,74.7611 124.536,74.0944 125,73.5C 126.582,76.3409 128.749,77.3409 131.5,76.5C 135.176,77.6688 138.176,79.8355 140.5,83C 138.718,83.1218 137.052,82.6218 135.5,81.5 Z"/></g>
<g><path style="opacity:1" fill="#7f6202" d="M 14.5,75.5 C 16.1765,76.1834 16.8432,77.5168 16.5,79.5C 13.3428,86.9726 7.67617,90.306 -0.5,89.5C -0.5,88.1667 -0.5,86.8333 -0.5,85.5C 2.51838,85.6646 5.51838,85.498 8.5,85C 10.776,82.0016 12.776,78.8349 14.5,75.5 Z"/></g>
<g><path style="opacity:1" fill="#ad8414" d="M 99.5,61.5 C 101.141,62.147 102.474,63.147 103.5,64.5C 104.89,65.8993 105.89,67.5659 106.5,69.5C 107.504,70.6828 108.338,72.0161 109,73.5C 110.558,72.6548 111.558,73.3215 112,75.5C 112.333,75.1667 112.667,74.8333 113,74.5C 114.044,75.6226 114.71,76.9559 115,78.5C 117.91,79.4503 119.077,81.4503 118.5,84.5C 116.857,84.5198 115.524,83.8532 114.5,82.5C 113.749,83.376 113.249,84.376 113,85.5C 111.382,80.7157 109.715,81.049 108,86.5C 106.289,84.0438 104.956,81.3771 104,78.5C 103.51,79.7932 103.343,81.1266 103.5,82.5C 98.3817,86.9065 92.7151,87.9065 86.5,85.5C 82.1364,85.9056 77.8031,86.5723 73.5,87.5C 69.5413,85.763 66.208,86.5963 63.5,90C 55.2559,90.1919 47.0892,91.0252 39,92.5C 35.1923,91.5309 31.359,90.6975 27.5,90C 25.607,87.6969 23.607,85.5302 21.5,83.5C 19.5914,84.3482 17.5914,84.6816 15.5,84.5C 15.6567,85.8734 15.49,87.2068 15,88.5C 12.9146,90.0821 11.4146,92.0821 10.5,94.5C 6.83598,95.7506 3.16931,95.7506 -0.5,94.5C -0.5,92.8333 -0.5,91.1667 -0.5,89.5C 7.67617,90.306 13.3428,86.9726 16.5,79.5C 19.8333,79.5 23.1667,79.5 26.5,79.5C 26.317,81.9363 26.9837,84.103 28.5,86C 31.2134,87.2753 34.0467,88.1086 37,88.5C 52.8122,86.3602 68.6455,84.3602 84.5,82.5C 84.5,81.5 84.5,80.5 84.5,79.5C 102.181,87.1509 105.847,82.8175 95.5,66.5C 96.404,65.791 96.7373,64.791 96.5,63.5C 98.1788,63.7148 99.1788,63.0481 99.5,61.5 Z"/></g>
<g><path style="opacity:1" fill="#3f1d04" d="M 120.5,81.5 C 121.167,82.8333 121.833,84.1667 122.5,85.5C 122.598,88.2476 121.598,88.9143 119.5,87.5C 119.205,85.2646 119.539,83.2646 120.5,81.5 Z"/></g>
<g><path style="opacity:1" fill="#9b770b" d="M 93.5,66.5 C 94.1667,66.5 94.8333,66.5 95.5,66.5C 105.847,82.8175 102.181,87.1509 84.5,79.5C 84.5,80.5 84.5,81.5 84.5,82.5C 68.6455,84.3602 52.8122,86.3602 37,88.5C 34.0467,88.1086 31.2134,87.2753 28.5,86C 26.9837,84.103 26.317,81.9363 26.5,79.5C 27.1667,79.5 27.8333,79.5 28.5,79.5C 29.431,84.5725 32.5977,86.9058 38,86.5C 52.0708,85.2294 65.9041,82.8961 79.5,79.5C 79.281,78.325 79.6143,77.325 80.5,76.5C 84.6724,75.5126 87.0057,72.8459 87.5,68.5C 89.5,67.8333 91.5,67.1667 93.5,66.5 Z"/></g>
<g><path style="opacity:1" fill="#cc9d23" d="M 115.5,65.5 C 116.833,66.5 118.167,67.5 119.5,68.5C 120.11,69.391 120.443,70.391 120.5,71.5C 121.5,73.1667 122.833,74.5 124.5,75.5C 125.498,79.5055 127.498,82.8388 130.5,85.5C 130.5,85.8333 130.5,86.1667 130.5,86.5C 129.599,87.2905 128.932,88.2905 128.5,89.5C 127.833,89.5 127.5,89.1667 127.5,88.5C 126.166,86.8044 124.832,85.1377 123.5,83.5C 123.005,78.1773 120.672,73.8439 116.5,70.5C 116.371,68.7839 116.038,67.1172 115.5,65.5 Z"/></g>
<g><path style="opacity:1" fill="#ebc169" d="M 133.5,83.5 C 138.418,83.3981 141.751,85.7314 143.5,90.5C 143.565,90.9382 143.399,91.2716 143,91.5C 142.184,90.1772 141.017,89.5106 139.5,89.5C 136.605,88.2013 133.938,86.5346 131.5,84.5C 130.496,82.3227 131.162,81.9893 133.5,83.5 Z"/></g>
<g><path style="opacity:1" fill="#a27a13" d="M 146.5,81.5 C 154.561,85.0241 162.561,88.8574 170.5,93C 171.252,93.6708 171.586,94.5041 171.5,95.5C 169.243,95.0383 167.243,94.0383 165.5,92.5C 165.167,92.6667 164.833,92.8333 164.5,93C 165.5,94 166.5,95 167.5,96C 166.833,96.6667 166.167,96.6667 165.5,96C 160.762,91.5518 155.595,87.7185 150,84.5C 149.5,84.6667 149,84.8333 148.5,85C 152.099,87.9517 155.433,91.1184 158.5,94.5C 157.883,94.6107 157.383,94.944 157,95.5C 153.215,91.8688 149.049,88.8688 144.5,86.5C 143.71,85.2058 142.71,84.0391 141.5,83C 143.047,82.6666 144.38,83.1666 145.5,84.5C 145.833,84.3333 146.167,84.1667 146.5,84C 144.158,82.6081 144.158,81.7748 146.5,81.5 Z"/></g>
<g><path style="opacity:1" fill="#be8b13" d="M 199.5,85.5 C 199.5,95.5 199.5,105.5 199.5,115.5C 197.692,115.509 196.025,115.009 194.5,114C 193.064,111.818 191.397,109.984 189.5,108.5C 184.06,104.075 178.393,99.7417 172.5,95.5C 172.167,95.5 171.833,95.5 171.5,95.5C 171.586,94.5041 171.252,93.6708 170.5,93C 162.561,88.8574 154.561,85.0241 146.5,81.5C 144.763,79.4503 142.763,77.617 140.5,76C 142.579,76.4037 144.579,76.5704 146.5,76.5C 148.456,75.2582 149.456,73.9248 149.5,72.5C 150.15,72.8039 150.817,73.1373 151.5,73.5C 152.696,73.1543 152.696,72.6543 151.5,72C 152.5,71.3333 153.5,71.3333 154.5,72C 159.772,75.6149 165.272,78.7816 171,81.5C 172,80.8333 173,80.1667 174,79.5C 177.974,81.1171 182.141,81.9504 186.5,82C 188.931,83.6316 191.431,85.1316 194,86.5C 195.825,86.0566 197.658,85.7233 199.5,85.5 Z"/></g>
<g><path style="opacity:1" fill="#4f2f04" d="M 127.5,88.5 C 127.5,89.1667 127.833,89.5 128.5,89.5C 128.557,90.609 128.89,91.609 129.5,92.5C 128.778,92.9175 128.278,93.5842 128,94.5C 125.356,92.2781 125.19,90.2781 127.5,88.5 Z"/></g>
<g><path style="opacity:1" fill="#c69223" d="M -0.5,112.5 C -0.5,108.833 -0.5,105.167 -0.5,101.5C 4.28863,100.912 8.62197,99.0784 12.5,96C 14.5483,93.2969 16.3816,90.4636 18,87.5C 26.5555,91.5043 27.5555,96.8377 21,103.5C 19.3124,106.226 17.8124,109.059 16.5,112C 14.1526,112.436 11.8193,112.936 9.5,113.5C 8.2588,112.963 7.09213,112.296 6,111.5C 5.05456,111.905 4.38789,112.572 4,113.5C 2.77413,111.452 1.27413,111.119 -0.5,112.5 Z"/></g>
<g><path style="opacity:1" fill="#8d6415" d="M 123.5,83.5 C 124.832,85.1377 126.166,86.8044 127.5,88.5C 125.19,90.2781 125.356,92.2781 128,94.5C 128.278,93.5842 128.778,92.9175 129.5,92.5C 129.557,93.609 129.89,94.609 130.5,95.5C 129.387,96.9464 129.22,98.6131 130,100.5C 131.461,101.883 132.294,101.549 132.5,99.5C 135.02,105.277 137.687,110.944 140.5,116.5C 140.565,116.938 140.399,117.272 140,117.5C 137.239,116.501 135.906,114.501 136,111.5C 135.051,109.907 133.885,108.574 132.5,107.5C 132.5,105.833 132.5,104.167 132.5,102.5C 130.833,102.5 129.167,102.5 127.5,102.5C 127.62,100.801 127.954,99.1347 128.5,97.5C 126.626,97.1055 125.126,95.7722 124,93.5C 123.51,92.2068 123.343,90.8734 123.5,89.5C 121.517,89.8432 120.183,89.1765 119.5,87.5C 121.598,88.9143 122.598,88.2476 122.5,85.5C 123.338,85.1583 123.672,84.4916 123.5,83.5 Z"/></g>
<g><path style="opacity:1" fill="#bd8a15" d="M 86.5,85.5 C 86.5,86.1667 86.5,86.8333 86.5,87.5C 82.4258,88.9445 78.2592,90.2778 74,91.5C 73.586,91.0426 73.086,90.7093 72.5,90.5C 70.2926,93.2026 67.4593,94.8693 64,95.5C 60.5091,93.4879 56.6757,92.1546 52.5,91.5C 47.6747,92.5541 42.8413,93.5541 38,94.5C 35.5511,96.7304 34.2177,99.3971 34,102.5C 37.3971,107.082 41.8971,109.082 47.5,108.5C 47.5,109.5 47.5,110.5 47.5,111.5C 44.8111,110.962 42.1444,110.295 39.5,109.5C 38.3145,112.593 36.9812,115.593 35.5,118.5C 31.2461,119.676 27.0794,121.009 23,122.5C 19.8517,120.172 16.3517,118.505 12.5,117.5C 9.27008,119.032 6.10342,120.698 3,122.5C 1.86151,122.011 0.69484,121.678 -0.5,121.5C -0.5,118.5 -0.5,115.5 -0.5,112.5C 1.27413,111.119 2.77413,111.452 4,113.5C 4.38789,112.572 5.05456,111.905 6,111.5C 7.09213,112.296 8.2588,112.963 9.5,113.5C 11.8193,112.936 14.1526,112.436 16.5,112C 17.8124,109.059 19.3124,106.226 21,103.5C 27.5555,96.8377 26.5555,91.5043 18,87.5C 16.3816,90.4636 14.5483,93.2969 12.5,96C 8.62197,99.0784 4.28863,100.912 -0.5,101.5C -0.5,99.1667 -0.5,96.8333 -0.5,94.5C 3.16931,95.7506 6.83598,95.7506 10.5,94.5C 11.4146,92.0821 12.9146,90.0821 15,88.5C 15.49,87.2068 15.6567,85.8734 15.5,84.5C 17.5914,84.6816 19.5914,84.3482 21.5,83.5C 23.607,85.5302 25.607,87.6969 27.5,90C 31.359,90.6975 35.1923,91.5309 39,92.5C 47.0892,91.0252 55.2559,90.1919 63.5,90C 66.208,86.5963 69.5413,85.763 73.5,87.5C 77.8031,86.5723 82.1364,85.9056 86.5,85.5 Z"/></g>
<g><path style="opacity:1" fill="#c89318" d="M 86.5,87.5 C 90.0482,88.7593 93.7148,89.5926 97.5,90C 100.843,94.298 100.843,98.798 97.5,103.5C 94.187,108.145 90.5203,112.479 86.5,116.5C 84.2573,117.474 81.924,117.808 79.5,117.5C 78.9556,115.42 78.1223,113.42 77,111.5C 76.2496,110.874 75.4162,110.374 74.5,110C 70.8517,109.938 67.185,110.105 63.5,110.5C 63.3259,112.861 62.9926,115.194 62.5,117.5C 57.624,118.044 53.9573,116.21 51.5,112C 50.2068,111.51 48.8734,111.343 47.5,111.5C 47.5,110.5 47.5,109.5 47.5,108.5C 41.8971,109.082 37.3971,107.082 34,102.5C 34.2177,99.3971 35.5511,96.7304 38,94.5C 42.8413,93.5541 47.6747,92.5541 52.5,91.5C 56.6757,92.1546 60.5091,93.4879 64,95.5C 67.4593,94.8693 70.2926,93.2026 72.5,90.5C 73.086,90.7093 73.586,91.0426 74,91.5C 78.2592,90.2778 82.4258,88.9445 86.5,87.5 Z"/></g>
<g><path style="opacity:1" fill="#8f6904" d="M 171.5,95.5 C 171.833,95.5 172.167,95.5 172.5,95.5C 174.204,98.223 176.371,100.556 179,102.5C 178.77,104.615 178.77,106.615 179,108.5C 178.333,109.167 177.667,109.833 177,110.5C 173.376,107.611 169.876,104.611 166.5,101.5C 163.874,99.1765 161.207,96.8432 158.5,94.5C 155.433,91.1184 152.099,87.9517 148.5,85C 149,84.8333 149.5,84.6667 150,84.5C 155.595,87.7185 160.762,91.5518 165.5,96C 166.167,96.6667 166.833,96.6667 167.5,96C 166.5,95 165.5,94 164.5,93C 164.833,92.8333 165.167,92.6667 165.5,92.5C 167.243,94.0383 169.243,95.0383 171.5,95.5 Z"/></g>
<g><path style="opacity:1" fill="#6b3c08" d="M 138.5,94.5 C 139.391,95.1098 140.391,95.4431 141.5,95.5C 142.475,97.1927 143.808,98.6927 145.5,100C 141.896,99.9063 139.563,98.073 138.5,94.5 Z"/></g>
<g><path style="opacity:1" fill="#5e3d0a" d="M 130.5,95.5 C 131.345,96.6715 132.011,98.0048 132.5,99.5C 132.294,101.549 131.461,101.883 130,100.5C 129.22,98.6131 129.387,96.9464 130.5,95.5 Z"/></g>
<g><path style="opacity:1" fill="#d7ab53" d="M 136.5,94.5 C 137.167,94.5 137.833,94.5 138.5,94.5C 139.563,98.073 141.896,99.9063 145.5,100C 143.808,98.6927 142.475,97.1927 141.5,95.5C 146.831,95.9193 149.164,98.586 148.5,103.5C 149.193,104.518 149.859,105.518 150.5,106.5C 150.167,106.5 149.833,106.5 149.5,106.5C 143.292,104.629 138.959,100.629 136.5,94.5 Z"/></g>
<g><path style="opacity:1" fill="#5c3d0c" d="M 131.5,84.5 C 133.938,86.5346 136.605,88.2013 139.5,89.5C 139.53,90.4972 139.03,91.1639 138,91.5C 136.395,90.8993 135.062,89.8993 134,88.5C 134.451,90.5198 135.284,92.5198 136.5,94.5C 138.959,100.629 143.292,104.629 149.5,106.5C 146.133,107.762 143.3,106.762 141,103.5C 140.617,104.056 140.117,104.389 139.5,104.5C 136.483,98.4658 133.483,92.4658 130.5,86.5C 130.5,86.1667 130.5,85.8333 130.5,85.5C 130.5,84.8333 130.833,84.5 131.5,84.5 Z"/></g>
<g><path style="opacity:1" fill="#c58e11" d="M 118.5,84.5 C 118.263,85.791 118.596,86.791 119.5,87.5C 120.183,89.1765 121.517,89.8432 123.5,89.5C 123.343,90.8734 123.51,92.2068 124,93.5C 125.126,95.7722 126.626,97.1055 128.5,97.5C 127.954,99.1347 127.62,100.801 127.5,102.5C 129.167,102.5 130.833,102.5 132.5,102.5C 132.5,104.167 132.5,105.833 132.5,107.5C 134.035,113.973 136.035,120.306 138.5,126.5C 137.833,127.833 137.167,127.833 136.5,126.5C 135.806,123.912 134.64,121.579 133,119.5C 132.101,121.516 130.767,123.183 129,124.5C 128.517,125.448 128.351,126.448 128.5,127.5C 127.691,125.708 127.191,123.708 127,121.5C 125.989,122.337 124.822,122.67 123.5,122.5C 123.657,121.127 123.49,119.793 123,118.5C 121.817,119.731 120.651,119.731 119.5,118.5C 117.384,116.428 115.384,114.262 113.5,112C 114.167,111.333 114.833,110.667 115.5,110C 114.782,108.013 113.782,106.179 112.5,104.5C 113.025,103.808 113.692,103.308 114.5,103C 112.285,98.0609 109.452,93.5609 106,89.5C 105.667,90.1667 105.333,90.8333 105,91.5C 104.362,90.3914 103.862,89.2247 103.5,88C 104.167,87.3333 104.833,86.6667 105.5,86C 105.192,84.5405 104.525,83.3739 103.5,82.5C 103.343,81.1266 103.51,79.7932 104,78.5C 104.956,81.3771 106.289,84.0438 108,86.5C 109.715,81.049 111.382,80.7157 113,85.5C 113.249,84.376 113.749,83.376 114.5,82.5C 115.524,83.8532 116.857,84.5198 118.5,84.5 Z"/></g>
<g><path style="opacity:1" fill="#c3962e" d="M 130.5,86.5 C 133.483,92.4658 136.483,98.4658 139.5,104.5C 141.517,106.217 141.85,108.217 140.5,110.5C 141.357,111.425 142.357,112.092 143.5,112.5C 146.85,117.203 148.85,122.537 149.5,128.5C 150.105,130.026 151.271,131.026 153,131.5C 153.395,134.207 153.895,136.873 154.5,139.5C 155.989,143.354 155.322,144.021 152.5,141.5C 150.618,136.339 148.284,131.339 145.5,126.5C 145.833,125.833 146.167,125.167 146.5,124.5C 144.85,124.599 143.517,123.599 142.5,121.5C 141.047,120.175 141.381,119.342 143.5,119C 142.922,117.583 141.922,116.75 140.5,116.5C 137.687,110.944 135.02,105.277 132.5,99.5C 132.011,98.0048 131.345,96.6715 130.5,95.5C 129.89,94.609 129.557,93.609 129.5,92.5C 128.89,91.609 128.557,90.609 128.5,89.5C 128.932,88.2905 129.599,87.2905 130.5,86.5 Z"/></g>
<g><path style="opacity:1" fill="#b38305" d="M 103.5,82.5 C 104.525,83.3739 105.192,84.5405 105.5,86C 104.833,86.6667 104.167,87.3333 103.5,88C 103.862,89.2247 104.362,90.3914 105,91.5C 105.333,90.8333 105.667,90.1667 106,89.5C 109.452,93.5609 112.285,98.0609 114.5,103C 113.692,103.308 113.025,103.808 112.5,104.5C 113.782,106.179 114.782,108.013 115.5,110C 114.833,110.667 114.167,111.333 113.5,112C 115.384,114.262 117.384,116.428 119.5,118.5C 120.651,119.731 121.817,119.731 123,118.5C 123.49,119.793 123.657,121.127 123.5,122.5C 124.822,122.67 125.989,122.337 127,121.5C 127.191,123.708 127.691,125.708 128.5,127.5C 127.015,132.742 126.515,138.075 127,143.5C 128.667,144.833 130.333,146.167 132,147.5C 133,146.5 134,145.5 135,144.5C 134.934,147.3 133.767,149.633 131.5,151.5C 129.79,155.568 128.623,155.235 128,150.5C 126.731,151.905 126.231,153.571 126.5,155.5C 126.179,157.048 125.179,157.715 123.5,157.5C 123.688,155.897 123.188,154.563 122,153.5C 121.536,159.175 120.869,159.508 120,154.5C 118.109,151.695 115.609,149.695 112.5,148.5C 111.729,146.138 110.895,143.804 110,141.5C 111.124,132.601 111.458,123.601 111,114.5C 108.667,111.833 106.333,109.167 104,106.5C 101.494,108.863 98.6611,110.53 95.5,111.5C 95.2714,113.433 94.4381,115.1 93,116.5C 89.5902,119.155 86.7568,122.321 84.5,126C 83.1279,126.402 81.7946,126.902 80.5,127.5C 74.7795,121.676 70.1128,122.509 66.5,130C 67.1667,130.333 67.8333,130.667 68.5,131C 65.9471,131.761 63.4471,132.594 61,133.5C 59,132.167 57,130.833 55,129.5C 54,126.833 53,124.167 52,121.5C 50.8904,119.963 49.3904,119.297 47.5,119.5C 47.5,117.5 47.5,115.5 47.5,113.5C 47.5,112.833 47.5,112.167 47.5,111.5C 48.8734,111.343 50.2068,111.51 51.5,112C 53.9573,116.21 57.624,118.044 62.5,117.5C 62.9926,115.194 63.3259,112.861 63.5,110.5C 67.185,110.105 70.8517,109.938 74.5,110C 75.4162,110.374 76.2496,110.874 77,111.5C 78.1223,113.42 78.9556,115.42 79.5,117.5C 81.924,117.808 84.2573,117.474 86.5,116.5C 90.5203,112.479 94.187,108.145 97.5,103.5C 100.843,98.798 100.843,94.298 97.5,90C 93.7148,89.5926 90.0482,88.7593 86.5,87.5C 86.5,86.8333 86.5,86.1667 86.5,85.5C 92.7151,87.9065 98.3817,86.9065 103.5,82.5 Z"/></g>
<g><path style="opacity:1" fill="#a78033" d="M 149.5,106.5 C 149.833,106.5 150.167,106.5 150.5,106.5C 150.953,107.458 151.619,108.292 152.5,109C 150.519,110.631 148.519,110.465 146.5,108.5C 145.702,108.957 145.369,109.624 145.5,110.5C 142.477,107.822 141.81,108.488 143.5,112.5C 142.357,112.092 141.357,111.425 140.5,110.5C 141.85,108.217 141.517,106.217 139.5,104.5C 140.117,104.389 140.617,104.056 141,103.5C 143.3,106.762 146.133,107.762 149.5,106.5 Z"/></g>
<g><path style="opacity:1" fill="#9e7605" d="M 172.5,95.5 C 178.393,99.7417 184.06,104.075 189.5,108.5C 187.883,107.962 186.216,107.629 184.5,107.5C 184.62,109.734 184.287,111.901 183.5,114C 185.086,116.696 185.753,119.362 185.5,122C 183.564,123.362 182.231,125.195 181.5,127.5C 180.914,127.291 180.414,126.957 180,126.5C 178.904,132.871 181.404,134.538 187.5,131.5C 194.544,136.019 193.877,140.019 185.5,143.5C 185.821,141.952 186.821,141.285 188.5,141.5C 188.33,140.178 188.663,139.011 189.5,138C 188.809,136.933 188.309,135.766 188,134.5C 186.333,135.833 184.667,135.833 183,134.5C 182.16,137.464 181.16,137.797 180,135.5C 178.667,138.167 177.333,138.167 176,135.5C 175.31,132.474 174.143,129.641 172.5,127C 172.611,125.278 173.111,125.112 174,126.5C 174.595,125.101 174.428,123.768 173.5,122.5C 173.808,121.692 174.308,121.025 175,120.5C 176,121.5 177,122.5 178,123.5C 175.869,119.183 172.702,115.516 168.5,112.5C 166.778,109.08 166.111,105.414 166.5,101.5C 169.876,104.611 173.376,107.611 177,110.5C 177.667,109.833 178.333,109.167 179,108.5C 178.77,106.615 178.77,104.615 179,102.5C 176.371,100.556 174.204,98.223 172.5,95.5 Z"/></g>
<g><path style="opacity:1" fill="#d2a759" d="M 145.5,110.5 C 149.794,110.575 153.127,112.408 155.5,116C 154.377,117.044 153.044,117.71 151.5,118C 152.563,119.188 153.897,119.688 155.5,119.5C 155.5,120.833 155.5,122.167 155.5,123.5C 150.642,120.312 147.308,115.979 145.5,110.5 Z"/></g>
<g><path style="opacity:1" fill="#623303" d="M 148.5,112.5 C 149.815,113.476 151.148,114.476 152.5,115.5C 150.219,116.262 148.886,115.262 148.5,112.5 Z"/></g>
<g><path style="opacity:1" fill="#5e3908" d="M 145.5,110.5 C 147.308,115.979 150.642,120.312 155.5,123.5C 155.5,124.167 155.167,124.5 154.5,124.5C 149.337,121.149 148.337,122.149 151.5,127.5C 151.043,128.298 150.376,128.631 149.5,128.5C 148.85,122.537 146.85,117.203 143.5,112.5C 141.81,108.488 142.477,107.822 145.5,110.5 Z"/></g>
<g><path style="opacity:1" fill="#916b01" d="M 49.5,123.5 C 52.289,126.156 53.9556,129.489 54.5,133.5C 54.3784,136.257 55.5451,138.257 58,139.5C 59.2612,144.131 58.2612,148.131 55,151.5C 52.7432,149.954 50.5765,148.288 48.5,146.5C 45.5717,147.921 44.2384,146.921 44.5,143.5C 42.3352,143.884 40.6685,143.217 39.5,141.5C 40.7113,140.126 41.7113,138.626 42.5,137C 41.5411,134.88 41.3744,132.713 42,130.5C 43.0961,128.111 43.9294,125.611 44.5,123C 46.265,122.36 47.9317,122.527 49.5,123.5 Z"/></g>
<g><path style="opacity:1" fill="#af7e07" d="M 47.5,111.5 C 47.5,112.167 47.5,112.833 47.5,113.5C 45.2478,112.667 43.0811,112.667 41,113.5C 40.1887,119.633 38.8553,125.633 37,131.5C 36.586,131.957 36.086,132.291 35.5,132.5C 27.8358,125.384 23.8358,127.384 23.5,138.5C 22.719,140.322 21.5523,140.989 20,140.5C 19.5172,141.448 19.3505,142.448 19.5,143.5C 14.9033,144.454 11.2366,146.788 8.5,150.5C 4.01903,150.014 1.01903,147.681 -0.5,143.5C -0.5,136.167 -0.5,128.833 -0.5,121.5C 0.69484,121.678 1.86151,122.011 3,122.5C 6.10342,120.698 9.27008,119.032 12.5,117.5C 16.3517,118.505 19.8517,120.172 23,122.5C 27.0794,121.009 31.2461,119.676 35.5,118.5C 36.9812,115.593 38.3145,112.593 39.5,109.5C 42.1444,110.295 44.8111,110.962 47.5,111.5 Z"/></g>
<g><path style="opacity:1" fill="#9d7501" d="M 47.5,113.5 C 47.5,115.5 47.5,117.5 47.5,119.5C 48.8062,120.467 49.4729,121.801 49.5,123.5C 47.9317,122.527 46.265,122.36 44.5,123C 43.9294,125.611 43.0961,128.111 42,130.5C 41.3744,132.713 41.5411,134.88 42.5,137C 41.7113,138.626 40.7113,140.126 39.5,141.5C 40.6685,143.217 42.3352,143.884 44.5,143.5C 44.2384,146.921 45.5717,147.921 48.5,146.5C 50.5765,148.288 52.7432,149.954 55,151.5C 58.2612,148.131 59.2612,144.131 58,139.5C 55.5451,138.257 54.3784,136.257 54.5,133.5C 55.7791,134.968 57.4458,135.635 59.5,135.5C 60.1513,138.137 60.1513,140.637 59.5,143C 59.4934,144.812 60.16,146.312 61.5,147.5C 60.9598,148.748 60.2931,149.915 59.5,151C 60.0253,151.692 60.6919,152.192 61.5,152.5C 61.8333,151.833 62.1667,151.167 62.5,150.5C 68.5767,153.558 73.0767,151.892 76,145.5C 76.6667,144.5 76.6667,143.5 76,142.5C 73.6405,141.941 71.3072,140.608 69,138.5C 68.0338,132.067 69.8671,131.067 74.5,135.5C 75.451,134.674 76.451,134.508 77.5,135C 78.4231,137.041 78.7564,139.208 78.5,141.5C 81.2613,142.92 84.2613,143.587 87.5,143.5C 87.8749,137.991 88.5416,132.658 89.5,127.5C 89.8696,133.925 89.3696,140.258 88,146.5C 84.2067,147.331 80.3734,148.164 76.5,149C 72.6035,154.727 67.2702,157.061 60.5,156C 59.8095,157.067 59.3095,158.234 59,159.5C 56.5943,161.087 54.4276,162.753 52.5,164.5C 52.7135,166.144 52.3802,167.644 51.5,169C 43.7332,167.776 38.8998,170.943 37,178.5C 35.3257,179.676 33.8257,181.01 32.5,182.5C 31.5033,175.866 31.17,169.2 31.5,162.5C 31.5,161.5 31.5,160.5 31.5,159.5C 32.8734,159.657 34.2068,159.49 35.5,159C 35.0687,152.104 32.7353,145.937 28.5,140.5C 27.2798,139.289 26.1131,139.289 25,140.5C 24.7216,139.584 24.2216,138.918 23.5,138.5C 23.8358,127.384 27.8358,125.384 35.5,132.5C 36.086,132.291 36.586,131.957 37,131.5C 38.8553,125.633 40.1887,119.633 41,113.5C 43.0811,112.667 45.2478,112.667 47.5,113.5 Z"/></g>
<g><path style="opacity:1" fill="#a07802" d="M 126.5,155.5 C 127.434,156.568 127.768,157.901 127.5,159.5C 126.167,159.5 124.833,159.5 123.5,159.5C 123.784,161.415 123.451,163.081 122.5,164.5C 121.732,165.263 121.232,166.263 121,167.5C 118.588,166.525 116.588,167.192 115,169.5C 114.781,168.062 114.281,166.729 113.5,165.5C 112.575,166.641 111.741,166.641 111,165.5C 110.747,155.719 109.58,146.052 107.5,136.5C 107.73,131.016 108.73,125.683 110.5,120.5C 106.955,113.426 101.955,112.093 95.5,116.5C 92.1931,119.469 90.1931,123.135 89.5,127.5C 88.5416,132.658 87.8749,137.991 87.5,143.5C 84.2613,143.587 81.2613,142.92 78.5,141.5C 78.7564,139.208 78.4231,137.041 77.5,135C 76.451,134.508 75.451,134.674 74.5,135.5C 69.8671,131.067 68.0338,132.067 69,138.5C 71.3072,140.608 73.6405,141.941 76,142.5C 76.6667,143.5 76.6667,144.5 76,145.5C 73.0767,151.892 68.5767,153.558 62.5,150.5C 62.1667,151.167 61.8333,151.833 61.5,152.5C 60.6919,152.192 60.0253,151.692 59.5,151C 60.2931,149.915 60.9598,148.748 61.5,147.5C 60.16,146.312 59.4934,144.812 59.5,143C 60.1513,140.637 60.1513,138.137 59.5,135.5C 57.4458,135.635 55.7791,134.968 54.5,133.5C 53.9556,129.489 52.289,126.156 49.5,123.5C 49.4729,121.801 48.8062,120.467 47.5,119.5C 49.3904,119.297 50.8904,119.963 52,121.5C 53,124.167 54,126.833 55,129.5C 57,130.833 59,132.167 61,133.5C 63.4471,132.594 65.9471,131.761 68.5,131C 67.8333,130.667 67.1667,130.333 66.5,130C 70.1128,122.509 74.7795,121.676 80.5,127.5C 81.7946,126.902 83.1279,126.402 84.5,126C 86.7568,122.321 89.5902,119.155 93,116.5C 94.4381,115.1 95.2714,113.433 95.5,111.5C 98.6611,110.53 101.494,108.863 104,106.5C 106.333,109.167 108.667,111.833 111,114.5C 111.458,123.601 111.124,132.601 110,141.5C 110.895,143.804 111.729,146.138 112.5,148.5C 115.609,149.695 118.109,151.695 120,154.5C 120.869,159.508 121.536,159.175 122,153.5C 123.188,154.563 123.688,155.897 123.5,157.5C 125.179,157.715 126.179,157.048 126.5,155.5 Z"/></g>
<g><path style="opacity:1" fill="#875d13" d="M 154.5,124.5 C 154.162,127.157 154.829,129.49 156.5,131.5C 155.833,131.833 155.167,132.167 154.5,132.5C 156.03,135.104 157.363,137.771 158.5,140.5C 157.041,140.567 155.708,140.234 154.5,139.5C 153.895,136.873 153.395,134.207 153,131.5C 151.271,131.026 150.105,130.026 149.5,128.5C 150.376,128.631 151.043,128.298 151.5,127.5C 148.337,122.149 149.337,121.149 154.5,124.5 Z"/></g>
<g><path style="opacity:1" fill="#cca355" d="M 155.5,123.5 C 157.023,127.403 158.357,131.403 159.5,135.5C 159.784,137.415 159.451,139.081 158.5,140.5C 157.363,137.771 156.03,135.104 154.5,132.5C 155.167,132.167 155.833,131.833 156.5,131.5C 154.829,129.49 154.162,127.157 154.5,124.5C 155.167,124.5 155.5,124.167 155.5,123.5 Z"/></g>
<g><path style="opacity:1" fill="#c7931a" d="M 144.5,86.5 C 149.049,88.8688 153.215,91.8688 157,95.5C 157.383,94.944 157.883,94.6107 158.5,94.5C 161.207,96.8432 163.874,99.1765 166.5,101.5C 166.111,105.414 166.778,109.08 168.5,112.5C 167.761,112.369 167.094,112.536 166.5,113C 168.11,115.311 169.443,117.811 170.5,120.5C 169.833,121.167 169.167,121.833 168.5,122.5C 168.744,124.55 169.077,126.55 169.5,128.5C 166.03,126.084 165.697,126.75 168.5,130.5C 168,131.5 167.5,132.5 167,133.5C 166.346,132.304 165.846,132.304 165.5,133.5C 166.52,135.432 166.687,137.432 166,139.5C 165.346,138.304 164.846,138.304 164.5,139.5C 165.428,140.768 165.595,142.101 165,143.5C 163.391,140.593 161.558,137.927 159.5,135.5C 158.357,131.403 157.023,127.403 155.5,123.5C 155.5,122.167 155.5,120.833 155.5,119.5C 153.897,119.688 152.563,119.188 151.5,118C 153.044,117.71 154.377,117.044 155.5,116C 153.127,112.408 149.794,110.575 145.5,110.5C 145.369,109.624 145.702,108.957 146.5,108.5C 148.519,110.465 150.519,110.631 152.5,109C 151.619,108.292 150.953,107.458 150.5,106.5C 149.859,105.518 149.193,104.518 148.5,103.5C 149.164,98.586 146.831,95.9193 141.5,95.5C 140.391,95.4431 139.391,95.1098 138.5,94.5C 137.833,94.5 137.167,94.5 136.5,94.5C 135.284,92.5198 134.451,90.5198 134,88.5C 135.062,89.8993 136.395,90.8993 138,91.5C 139.03,91.1639 139.53,90.4972 139.5,89.5C 141.017,89.5106 142.184,90.1772 143,91.5C 143.399,91.2716 143.565,90.9382 143.5,90.5C 145.226,90.8146 146.893,90.9813 148.5,91C 146.959,89.6288 145.625,88.1288 144.5,86.5 Z"/></g>
<g><path style="opacity:1" fill="#946d03" d="M 189.5,108.5 C 191.397,109.984 193.064,111.818 194.5,114C 196.025,115.009 197.692,115.509 199.5,115.5C 199.5,123.167 199.5,130.833 199.5,138.5C 197.7,137.395 196.533,138.061 196,140.5C 193.536,139.474 191.702,140.308 190.5,143C 193.277,145.173 193.11,145.673 190,144.5C 188.98,145.891 188.147,147.391 187.5,149C 188.71,150.039 189.71,151.206 190.5,152.5C 190.631,153.239 190.464,153.906 190,154.5C 188.708,153.209 187.542,153.209 186.5,154.5C 185.21,156.14 183.543,156.64 181.5,156C 180.405,153.805 179.405,151.638 178.5,149.5C 179.355,148.707 180.189,149.04 181,150.5C 181.617,149.551 181.451,148.718 180.5,148C 182.97,147.26 184.637,145.76 185.5,143.5C 193.877,140.019 194.544,136.019 187.5,131.5C 181.404,134.538 178.904,132.871 180,126.5C 180.414,126.957 180.914,127.291 181.5,127.5C 182.231,125.195 183.564,123.362 185.5,122C 185.753,119.362 185.086,116.696 183.5,114C 184.287,111.901 184.62,109.734 184.5,107.5C 186.216,107.629 187.883,107.962 189.5,108.5 Z"/></g>
<g><path style="opacity:1" fill="#ab8005" d="M 132.5,107.5 C 133.885,108.574 135.051,109.907 136,111.5C 135.906,114.501 137.239,116.501 140,117.5C 140.399,117.272 140.565,116.938 140.5,116.5C 141.922,116.75 142.922,117.583 143.5,119C 141.381,119.342 141.047,120.175 142.5,121.5C 141.957,121.56 141.624,121.893 141.5,122.5C 142.154,124.115 142.654,125.782 143,127.5C 143.333,126.833 143.667,126.167 144,125.5C 144.497,127.81 144.663,130.143 144.5,132.5C 145.822,132.33 146.989,132.663 148,133.5C 148.127,136.604 148.293,139.604 148.5,142.5C 148.333,142.833 148.167,143.167 148,143.5C 146.383,142.149 145.216,140.482 144.5,138.5C 143.255,139.955 143.422,141.289 145,142.5C 145.667,144.833 145.667,147.167 145,149.5C 144.581,148.328 143.915,147.328 143,146.5C 142.333,147.833 141.667,147.833 141,146.5C 140.506,144.866 140.34,143.199 140.5,141.5C 139.325,141.719 138.325,141.386 137.5,140.5C 138.046,139.228 138.379,137.894 138.5,136.5C 136.541,133.829 135.041,130.829 134,127.5C 133.667,128.167 133.333,128.833 133,129.5C 131.938,127.205 130.438,126.539 128.5,127.5C 128.351,126.448 128.517,125.448 129,124.5C 130.767,123.183 132.101,121.516 133,119.5C 134.64,121.579 135.806,123.912 136.5,126.5C 137.167,127.833 137.833,127.833 138.5,126.5C 136.035,120.306 134.035,113.973 132.5,107.5 Z"/></g>
<g><path style="opacity:1" fill="#a98005" d="M 168.5,112.5 C 172.702,115.516 175.869,119.183 178,123.5C 177,122.5 176,121.5 175,120.5C 174.308,121.025 173.808,121.692 173.5,122.5C 174.428,123.768 174.595,125.101 174,126.5C 173.111,125.112 172.611,125.278 172.5,127C 174.143,129.641 175.31,132.474 176,135.5C 177.333,138.167 178.667,138.167 180,135.5C 181.16,137.797 182.16,137.464 183,134.5C 184.667,135.833 186.333,135.833 188,134.5C 188.309,135.766 188.809,136.933 189.5,138C 188.663,139.011 188.33,140.178 188.5,141.5C 186.821,141.285 185.821,141.952 185.5,143.5C 184.637,145.76 182.97,147.26 180.5,148C 181.451,148.718 181.617,149.551 181,150.5C 180.189,149.04 179.355,148.707 178.5,149.5C 179.405,151.638 180.405,153.805 181.5,156C 183.543,156.64 185.21,156.14 186.5,154.5C 188.368,155.786 188.534,157.119 187,158.5C 185.887,157.289 184.72,157.289 183.5,158.5C 181.132,157.111 178.799,155.778 176.5,154.5C 173.645,150.124 171.312,145.457 169.5,140.5C 170.167,139.5 170.833,138.5 171.5,137.5C 171.354,135.685 171.188,133.685 171,131.5C 171.811,132.96 172.645,133.293 173.5,132.5C 172.479,130.812 171.145,129.479 169.5,128.5C 169.077,126.55 168.744,124.55 168.5,122.5C 169.167,121.833 169.833,121.167 170.5,120.5C 169.443,117.811 168.11,115.311 166.5,113C 167.094,112.536 167.761,112.369 168.5,112.5 Z"/></g>
<g><path style="opacity:1" fill="#895b02" d="M 199.5,138.5 C 199.5,144.833 199.5,151.167 199.5,157.5C 197.914,156.852 196.247,156.352 194.5,156C 193.295,154.624 191.962,153.458 190.5,152.5C 189.71,151.206 188.71,150.039 187.5,149C 188.147,147.391 188.98,145.891 190,144.5C 193.11,145.673 193.277,145.173 190.5,143C 191.702,140.308 193.536,139.474 196,140.5C 196.533,138.061 197.7,137.395 199.5,138.5 Z"/></g>
<g><path style="opacity:1" fill="#b7870d" d="M 169.5,128.5 C 171.145,129.479 172.479,130.812 173.5,132.5C 172.645,133.293 171.811,132.96 171,131.5C 171.188,133.685 171.354,135.685 171.5,137.5C 170.833,138.5 170.167,139.5 169.5,140.5C 171.312,145.457 173.645,150.124 176.5,154.5C 174.203,152.706 172.037,150.706 170,148.5C 169.683,150.301 169.016,150.634 168,149.5C 167.781,150.938 167.281,152.271 166.5,153.5C 165.719,152.263 164.719,151.263 163.5,150.5C 162.494,150.938 162.494,151.604 163.5,152.5C 161.434,155.298 159.934,154.965 159,151.5C 158.79,153.058 158.29,154.391 157.5,155.5C 156.91,154.234 156.41,152.901 156,151.5C 155.667,153.833 155.333,156.167 155,158.5C 153.639,153.614 152.139,148.781 150.5,144C 150.684,142.624 151.351,141.791 152.5,141.5C 155.322,144.021 155.989,143.354 154.5,139.5C 155.708,140.234 157.041,140.567 158.5,140.5C 159.451,139.081 159.784,137.415 159.5,135.5C 161.558,137.927 163.391,140.593 165,143.5C 165.595,142.101 165.428,140.768 164.5,139.5C 164.846,138.304 165.346,138.304 166,139.5C 166.687,137.432 166.52,135.432 165.5,133.5C 165.846,132.304 166.346,132.304 167,133.5C 167.5,132.5 168,131.5 168.5,130.5C 165.697,126.75 166.03,126.084 169.5,128.5 Z"/></g>
<g><path style="opacity:1" fill="#9d6301" d="M 23.5,138.5 C 24.2216,138.918 24.7216,139.584 25,140.5C 26.1131,139.289 27.2798,139.289 28.5,140.5C 32.7353,145.937 35.0687,152.104 35.5,159C 34.2068,159.49 32.8734,159.657 31.5,159.5C 32.0321,154.839 31.1988,150.506 29,146.5C 28.044,147.579 27.2106,148.745 26.5,150C 24.6711,150.273 23.1711,151.107 22,152.5C 21.5034,154.81 21.3367,157.143 21.5,159.5C 20.8333,159.5 20.5,159.833 20.5,160.5C 19.8333,160.167 19.1667,159.833 18.5,159.5C 18.7394,157.533 18.4061,155.699 17.5,154C 14.2164,153.35 11.2164,152.184 8.5,150.5C 11.2366,146.788 14.9033,144.454 19.5,143.5C 19.3505,142.448 19.5172,141.448 20,140.5C 21.5523,140.989 22.719,140.322 23.5,138.5 Z"/></g>
<g><path style="opacity:1" fill="#775b01" d="M 101.5,159.5 C 100.13,156.656 98.2964,153.989 96,151.5C 92.7742,155.392 88.9409,158.558 84.5,161C 82.8333,163.333 81.1667,165.667 79.5,168C 77.9751,169.009 76.3084,169.509 74.5,169.5C 74.4348,171.696 73.7681,173.696 72.5,175.5C 71.7025,175.043 71.3691,174.376 71.5,173.5C 72.3019,172.048 72.8019,170.382 73,168.5C 73.9078,166.561 75.4078,165.561 77.5,165.5C 77.5281,162.749 78.5281,160.415 80.5,158.5C 85.1714,155.498 89.8381,152.498 94.5,149.5C 95.4983,140.19 95.8316,130.857 95.5,121.5C 97.7867,121.276 99.9534,120.609 102,119.5C 103.947,120.044 104.78,121.377 104.5,123.5C 103.833,128.167 103.167,132.833 102.5,137.5C 103.406,141.733 103.74,145.9 103.5,150C 102.128,153.026 101.462,156.193 101.5,159.5 Z"/></g>
<g><path style="opacity:1" fill="#9f7605" d="M 142.5,121.5 C 143.517,123.599 144.85,124.599 146.5,124.5C 146.167,125.167 145.833,125.833 145.5,126.5C 148.284,131.339 150.618,136.339 152.5,141.5C 151.351,141.791 150.684,142.624 150.5,144C 152.139,148.781 153.639,153.614 155,158.5C 155.333,156.167 155.667,153.833 156,151.5C 156.41,152.901 156.91,154.234 157.5,155.5C 156.968,159.307 156.968,163.307 157.5,167.5C 156.624,167.631 155.957,167.298 155.5,166.5C 154.205,162.458 152.538,158.625 150.5,155C 150.167,154.833 149.833,154.667 149.5,154.5C 148.83,156.291 148.163,157.958 147.5,159.5C 146.712,154.841 145.212,154.508 143,158.5C 142.667,158.167 142.333,157.833 142,157.5C 139.734,160.334 137.9,163.334 136.5,166.5C 135.119,166 134.453,165 134.5,163.5C 136.175,159.78 135.675,159.114 133,161.5C 132.536,160.906 132.369,160.239 132.5,159.5C 132.5,158.833 132.5,158.167 132.5,157.5C 133.794,155.32 133.461,153.32 131.5,151.5C 133.767,149.633 134.934,147.3 135,144.5C 134,145.5 133,146.5 132,147.5C 130.333,146.167 128.667,144.833 127,143.5C 126.515,138.075 127.015,132.742 128.5,127.5C 130.438,126.539 131.938,127.205 133,129.5C 133.333,128.833 133.667,128.167 134,127.5C 135.041,130.829 136.541,133.829 138.5,136.5C 138.379,137.894 138.046,139.228 137.5,140.5C 138.325,141.386 139.325,141.719 140.5,141.5C 140.34,143.199 140.506,144.866 141,146.5C 141.667,147.833 142.333,147.833 143,146.5C 143.915,147.328 144.581,148.328 145,149.5C 145.667,147.167 145.667,144.833 145,142.5C 143.422,141.289 143.255,139.955 144.5,138.5C 145.216,140.482 146.383,142.149 148,143.5C 148.167,143.167 148.333,142.833 148.5,142.5C 148.293,139.604 148.127,136.604 148,133.5C 146.989,132.663 145.822,132.33 144.5,132.5C 144.663,130.143 144.497,127.81 144,125.5C 143.667,126.167 143.333,126.833 143,127.5C 142.654,125.782 142.154,124.115 141.5,122.5C 141.624,121.893 141.957,121.56 142.5,121.5 Z"/></g>
<g><path style="opacity:1" fill="#906d01" d="M 122.5,164.5 C 122.752,167.32 122.252,169.986 121,172.5C 119.956,171.377 119.29,170.044 119,168.5C 116.032,172.548 114.032,172.214 113,167.5C 112.38,172.354 112.547,177.187 113.5,182C 113.392,183.681 112.725,184.848 111.5,185.5C 111.821,180.305 111.487,175.305 110.5,170.5C 109.536,162.19 108.702,153.857 108,145.5C 106.684,144.026 105.684,142.359 105,140.5C 104.518,133.332 104.852,126.332 106,119.5C 105.692,118.692 105.192,118.025 104.5,117.5C 103.402,118.615 102.235,118.615 101,117.5C 98.7092,118.395 96.8758,119.729 95.5,121.5C 91.6275,127.262 90.6275,133.595 92.5,140.5C 92.2539,148.083 88.5873,151.75 81.5,151.5C 78.41,152.7 75.7434,154.533 73.5,157C 67.2108,156.647 61.8775,158.647 57.5,163C 55.8455,163.608 54.1789,164.108 52.5,164.5C 54.4276,162.753 56.5943,161.087 59,159.5C 59.3095,158.234 59.8095,157.067 60.5,156C 67.2702,157.061 72.6035,154.727 76.5,149C 80.3734,148.164 84.2067,147.331 88,146.5C 89.3696,140.258 89.8696,133.925 89.5,127.5C 90.1931,123.135 92.1931,119.469 95.5,116.5C 101.955,112.093 106.955,113.426 110.5,120.5C 108.73,125.683 107.73,131.016 107.5,136.5C 109.58,146.052 110.747,155.719 111,165.5C 111.741,166.641 112.575,166.641 113.5,165.5C 114.281,166.729 114.781,168.062 115,169.5C 116.588,167.192 118.588,166.525 121,167.5C 121.232,166.263 121.732,165.263 122.5,164.5 Z"/></g>
<g><path style="opacity:1" fill="#8c6801" d="M -0.5,143.5 C 1.01903,147.681 4.01903,150.014 8.5,150.5C 11.2164,152.184 14.2164,153.35 17.5,154C 18.4061,155.699 18.7394,157.533 18.5,159.5C 18.428,161.311 17.5947,162.644 16,163.5C 11.1743,161.632 7.34092,162.799 4.5,167C 2.75099,167.785 1.08432,168.618 -0.5,169.5C -0.5,160.833 -0.5,152.167 -0.5,143.5 Z"/></g>
<g><path style="opacity:1" fill="#974f01" d="M 31.5,159.5 C 28.1667,159.5 24.8333,159.5 21.5,159.5C 21.3367,157.143 21.5034,154.81 22,152.5C 23.1711,151.107 24.6711,150.273 26.5,150C 27.2106,148.745 28.044,147.579 29,146.5C 31.1988,150.506 32.0321,154.839 31.5,159.5 Z"/></g>
<g><path style="opacity:1" fill="#836202" d="M 110.5,170.5 C 108.064,168.983 105.898,169.316 104,171.5C 103.295,167.335 102.461,163.335 101.5,159.5C 101.462,156.193 102.128,153.026 103.5,150C 103.74,145.9 103.406,141.733 102.5,137.5C 103.167,132.833 103.833,128.167 104.5,123.5C 104.78,121.377 103.947,120.044 102,119.5C 99.9534,120.609 97.7867,121.276 95.5,121.5C 96.8758,119.729 98.7092,118.395 101,117.5C 102.235,118.615 103.402,118.615 104.5,117.5C 105.192,118.025 105.692,118.692 106,119.5C 104.852,126.332 104.518,133.332 105,140.5C 105.684,142.359 106.684,144.026 108,145.5C 108.702,153.857 109.536,162.19 110.5,170.5 Z"/></g>
<g><path style="opacity:1" fill="#946b03" d="M 147.5,159.5 C 146.178,159.33 145.011,159.663 144,160.5C 143.8,164.753 143.3,168.92 142.5,173C 143.765,177.867 142.265,181.701 138,184.5C 137.667,183.833 137.333,183.167 137,182.5C 135.457,185.419 133.957,185.752 132.5,183.5C 131.353,178.756 132.353,174.422 135.5,170.5C 134.305,167.276 132.971,164.109 131.5,161C 131.57,160.235 131.903,159.735 132.5,159.5C 132.369,160.239 132.536,160.906 133,161.5C 135.675,159.114 136.175,159.78 134.5,163.5C 134.453,165 135.119,166 136.5,166.5C 137.9,163.334 139.734,160.334 142,157.5C 142.333,157.833 142.667,158.167 143,158.5C 145.212,154.508 146.712,154.841 147.5,159.5 Z"/></g>
<g><path style="opacity:1" fill="#b4800a" d="M 190.5,152.5 C 191.962,153.458 193.295,154.624 194.5,156C 196.247,156.352 197.914,156.852 199.5,157.5C 199.5,159.5 199.5,161.5 199.5,163.5C 196.976,164.822 194.31,165.988 191.5,167C 186.765,167.691 182.098,168.358 177.5,169C 176.484,168.481 175.818,167.647 175.5,166.5C 176.242,164.02 177.242,161.687 178.5,159.5C 178.098,157.7 177.431,156.033 176.5,154.5C 178.799,155.778 181.132,157.111 183.5,158.5C 184.72,157.289 185.887,157.289 187,158.5C 188.534,157.119 188.368,155.786 186.5,154.5C 187.542,153.209 188.708,153.209 190,154.5C 190.464,153.906 190.631,153.239 190.5,152.5 Z"/></g>
<g><path style="opacity:1" fill="#7f4f01" d="M 21.5,159.5 C 24.8333,159.5 28.1667,159.5 31.5,159.5C 31.5,160.5 31.5,161.5 31.5,162.5C 30.391,162.557 29.391,162.89 28.5,163.5C 26.5891,163.574 25.4224,164.574 25,166.5C 21.7934,165.745 20.2934,163.745 20.5,160.5C 20.5,159.833 20.8333,159.5 21.5,159.5 Z"/></g>
<g><path style="opacity:1" fill="#a37803" d="M 176.5,154.5 C 177.431,156.033 178.098,157.7 178.5,159.5C 177.242,161.687 176.242,164.02 175.5,166.5C 175.818,167.647 176.484,168.481 177.5,169C 182.098,168.358 186.765,167.691 191.5,167C 194.31,165.988 196.976,164.822 199.5,163.5C 199.5,164.167 199.5,164.833 199.5,165.5C 197.989,166.502 196.322,167.169 194.5,167.5C 194.719,168.675 194.386,169.675 193.5,170.5C 191.253,169.626 188.92,169.292 186.5,169.5C 186.67,170.822 186.337,171.989 185.5,173C 188.481,174.38 189.147,176.546 187.5,179.5C 182.984,181.053 178.318,181.887 173.5,182C 172.672,182.915 171.672,183.581 170.5,184C 164.5,184.667 158.5,184.667 152.5,184C 150.442,182.192 150.108,180.025 151.5,177.5C 157.037,177.913 162.37,177.08 167.5,175C 170.613,171.565 171.613,167.731 170.5,163.5C 168.61,163.703 167.11,163.037 166,161.5C 165.529,159.754 164.862,158.087 164,156.5C 163.309,158.891 162.309,158.891 161,156.5C 160.517,157.448 160.351,158.448 160.5,159.5C 159.5,159.5 158.5,159.5 157.5,159.5C 157.5,158.167 157.5,156.833 157.5,155.5C 158.29,154.391 158.79,153.058 159,151.5C 159.934,154.965 161.434,155.298 163.5,152.5C 162.494,151.604 162.494,150.938 163.5,150.5C 164.719,151.263 165.719,152.263 166.5,153.5C 167.281,152.271 167.781,150.938 168,149.5C 169.016,150.634 169.683,150.301 170,148.5C 172.037,150.706 174.203,152.706 176.5,154.5 Z"/></g>
<g><path style="opacity:1" fill="#866301" d="M 95.5,121.5 C 95.8316,130.857 95.4983,140.19 94.5,149.5C 89.8381,152.498 85.1714,155.498 80.5,158.5C 78.5281,160.415 77.5281,162.749 77.5,165.5C 75.4078,165.561 73.9078,166.561 73,168.5C 72.8019,170.382 72.3019,172.048 71.5,173.5C 68.9232,172.574 66.0898,171.241 63,169.5C 61.8333,171.167 60.6667,172.833 59.5,174.5C 57.6471,175.76 55.8138,175.76 54,174.5C 53.0565,175.263 52.5565,176.263 52.5,177.5C 55.2291,189.592 52.8957,190.592 45.5,180.5C 47.0553,178.057 47.722,175.39 47.5,172.5C 45.8333,172.5 44.1667,172.5 42.5,172.5C 42.6621,174.527 42.4955,176.527 42,178.5C 39.2534,182.065 36.7534,185.732 34.5,189.5C 30.5,189.5 26.5,189.5 22.5,189.5C 22.3398,187.801 22.5065,186.134 23,184.5C 27.385,178.213 29.2183,171.213 28.5,163.5C 29.391,162.89 30.391,162.557 31.5,162.5C 31.17,169.2 31.5033,175.866 32.5,182.5C 33.8257,181.01 35.3257,179.676 37,178.5C 38.8998,170.943 43.7332,167.776 51.5,169C 52.3802,167.644 52.7135,166.144 52.5,164.5C 54.1789,164.108 55.8455,163.608 57.5,163C 61.8775,158.647 67.2108,156.647 73.5,157C 75.7434,154.533 78.41,152.7 81.5,151.5C 88.5873,151.75 92.2539,148.083 92.5,140.5C 90.6275,133.595 91.6275,127.262 95.5,121.5 Z"/></g>
<g><path style="opacity:1" fill="#735401" d="M 18.5,159.5 C 19.1667,159.833 19.8333,160.167 20.5,160.5C 20.2934,163.745 21.7934,165.745 25,166.5C 25.4224,164.574 26.5891,163.574 28.5,163.5C 29.2183,171.213 27.385,178.213 23,184.5C 22.5065,186.134 22.3398,187.801 22.5,189.5C 22.1667,189.5 21.8333,189.5 21.5,189.5C 21.3367,187.143 21.5034,184.81 22,182.5C 26.5387,177.286 26.372,172.453 21.5,168C 20.0563,167.219 18.723,167.386 17.5,168.5C 15.2145,170.613 13.5478,173.113 12.5,176C 10.0966,176.63 8.26332,175.797 7,173.5C 4.76462,175.202 2.26462,176.202 -0.5,176.5C -0.5,174.167 -0.5,171.833 -0.5,169.5C 1.08432,168.618 2.75099,167.785 4.5,167C 7.34092,162.799 11.1743,161.632 16,163.5C 17.5947,162.644 18.428,161.311 18.5,159.5 Z"/></g>
<g><path style="opacity:1" fill="#492a0b" d="M 128.5,165.5 C 129.234,166.878 129.901,168.378 130.5,170C 129.5,171.667 128.5,173.333 127.5,175C 130,175.833 130.167,177 128,178.5C 127.302,177.309 126.469,176.309 125.5,175.5C 126.752,172.238 127.752,168.905 128.5,165.5 Z"/></g>
<g><path style="opacity:1" fill="#8c6803" d="M 157.5,155.5 C 157.5,156.833 157.5,158.167 157.5,159.5C 158.5,159.5 159.5,159.5 160.5,159.5C 160.351,158.448 160.517,157.448 161,156.5C 162.309,158.891 163.309,158.891 164,156.5C 164.862,158.087 165.529,159.754 166,161.5C 167.11,163.037 168.61,163.703 170.5,163.5C 171.613,167.731 170.613,171.565 167.5,175C 162.37,177.08 157.037,177.913 151.5,177.5C 150.108,180.025 150.442,182.192 152.5,184C 158.5,184.667 164.5,184.667 170.5,184C 171.672,183.581 172.672,182.915 173.5,182C 178.318,181.887 182.984,181.053 187.5,179.5C 189.147,176.546 188.481,174.38 185.5,173C 186.337,171.989 186.67,170.822 186.5,169.5C 188.92,169.292 191.253,169.626 193.5,170.5C 194.386,169.675 194.719,168.675 194.5,167.5C 196.322,167.169 197.989,166.502 199.5,165.5C 199.5,167.833 199.5,170.167 199.5,172.5C 198.126,176.201 195.46,178.535 191.5,179.5C 189.109,181.136 186.442,182.303 183.5,183C 172.951,185.261 162.284,185.928 151.5,185C 149.981,183.649 148.648,182.149 147.5,180.5C 148.667,178.833 149.833,177.167 151,175.5C 153.333,176.833 155.667,176.833 158,175.5C 158.43,172.808 158.263,170.141 157.5,167.5C 156.968,163.307 156.968,159.307 157.5,155.5 Z"/></g>
<g><path style="opacity:1" fill="#825f02" d="M 157.5,167.5 C 158.263,170.141 158.43,172.808 158,175.5C 155.667,176.833 153.333,176.833 151,175.5C 149.833,177.167 148.667,178.833 147.5,180.5C 148.648,182.149 149.981,183.649 151.5,185C 162.284,185.928 172.951,185.261 183.5,183C 186.442,182.303 189.109,181.136 191.5,179.5C 191.439,182.05 190.106,183.55 187.5,184C 183.514,184.499 179.514,184.666 175.5,184.5C 175.5,185.5 175.5,186.5 175.5,187.5C 173.512,187.827 171.512,188.16 169.5,188.5C 168.006,188.291 166.839,187.624 166,186.5C 160.037,187.661 153.871,187.661 147.5,186.5C 145.347,186.561 144.014,187.561 143.5,189.5C 139.833,189.5 136.167,189.5 132.5,189.5C 132.5,187.5 132.5,185.5 132.5,183.5C 133.957,185.752 135.457,185.419 137,182.5C 137.333,183.167 137.667,183.833 138,184.5C 142.265,181.701 143.765,177.867 142.5,173C 143.3,168.92 143.8,164.753 144,160.5C 145.011,159.663 146.178,159.33 147.5,159.5C 148.163,157.958 148.83,156.291 149.5,154.5C 149.833,154.667 150.167,154.833 150.5,155C 152.538,158.625 154.205,162.458 155.5,166.5C 155.957,167.298 156.624,167.631 157.5,167.5 Z"/></g>
<g><path style="opacity:1" fill="#785601" d="M 101.5,159.5 C 102.461,163.335 103.295,167.335 104,171.5C 105.898,169.316 108.064,168.983 110.5,170.5C 111.487,175.305 111.821,180.305 111.5,185.5C 111.5,186.833 111.5,188.167 111.5,189.5C 106.167,189.5 100.833,189.5 95.5,189.5C 95.2664,185.533 96.5998,182.2 99.5,179.5C 97.8418,172.549 96.5084,165.549 95.5,158.5C 91.3046,158.681 87.8046,160.347 85,163.5C 80.6749,167.974 78.1749,173.307 77.5,179.5C 76.7326,180.172 76.0659,181.005 75.5,182C 73.0612,182.515 72.8945,182.015 75,180.5C 75.6667,178.833 75.6667,177.167 75,175.5C 75.0804,179.987 73.5804,180.987 70.5,178.5C 71.0164,179.758 70.3497,180.758 68.5,181.5C 65.6642,178.992 62.9975,179.326 60.5,182.5C 60.3983,184.767 60.7317,187.1 61.5,189.5C 52.5,189.5 43.5,189.5 34.5,189.5C 36.7534,185.732 39.2534,182.065 42,178.5C 42.4955,176.527 42.6621,174.527 42.5,172.5C 44.1667,172.5 45.8333,172.5 47.5,172.5C 47.722,175.39 47.0553,178.057 45.5,180.5C 52.8957,190.592 55.2291,189.592 52.5,177.5C 52.5565,176.263 53.0565,175.263 54,174.5C 55.8138,175.76 57.6471,175.76 59.5,174.5C 60.6667,172.833 61.8333,171.167 63,169.5C 66.0898,171.241 68.9232,172.574 71.5,173.5C 71.3691,174.376 71.7025,175.043 72.5,175.5C 73.7681,173.696 74.4348,171.696 74.5,169.5C 76.3084,169.509 77.9751,169.009 79.5,168C 81.1667,165.667 82.8333,163.333 84.5,161C 88.9409,158.558 92.7742,155.392 96,151.5C 98.2964,153.989 100.13,156.656 101.5,159.5 Z"/></g>
<g><path style="opacity:1" fill="#634902" d="M 95.5,189.5 C 94.1667,189.5 92.8333,189.5 91.5,189.5C 92.6148,187.693 93.2814,185.693 93.5,183.5C 93.4302,182.228 93.0968,181.062 92.5,180C 93.9661,178.448 94.9661,176.614 95.5,174.5C 94.5774,171.553 93.9107,168.553 93.5,165.5C 89.6763,166.335 86.5096,168.335 84,171.5C 83.594,175.272 82.7607,178.939 81.5,182.5C 82.0983,183.795 82.5983,185.128 83,186.5C 83.6667,187.833 84.3333,187.833 85,186.5C 86.417,187.078 87.2504,188.078 87.5,189.5C 85.8333,189.5 84.1667,189.5 82.5,189.5C 80.8627,188.026 79.8627,186.192 79.5,184C 80.5032,181.532 81.0032,179.032 81,176.5C 80.2798,178.056 79.1132,179.056 77.5,179.5C 78.1749,173.307 80.6749,167.974 85,163.5C 87.8046,160.347 91.3046,158.681 95.5,158.5C 96.5084,165.549 97.8418,172.549 99.5,179.5C 96.5998,182.2 95.2664,185.533 95.5,189.5 Z"/></g>
<g><path style="opacity:1" fill="#553e01" d="M 91.5,189.5 C 90.1667,189.5 88.8333,189.5 87.5,189.5C 87.2504,188.078 86.417,187.078 85,186.5C 84.3333,187.833 83.6667,187.833 83,186.5C 82.5983,185.128 82.0983,183.795 81.5,182.5C 82.7607,178.939 83.594,175.272 84,171.5C 86.5096,168.335 89.6763,166.335 93.5,165.5C 93.9107,168.553 94.5774,171.553 95.5,174.5C 94.9661,176.614 93.9661,178.448 92.5,180C 93.0968,181.062 93.4302,182.228 93.5,183.5C 93.2814,185.693 92.6148,187.693 91.5,189.5 Z"/></g>
<g><path style="opacity:1" fill="#624601" d="M 21.5,189.5 C 14.1667,189.5 6.83333,189.5 -0.5,189.5C -0.5,185.167 -0.5,180.833 -0.5,176.5C 2.26462,176.202 4.76462,175.202 7,173.5C 8.26332,175.797 10.0966,176.63 12.5,176C 13.5478,173.113 15.2145,170.613 17.5,168.5C 18.723,167.386 20.0563,167.219 21.5,168C 26.372,172.453 26.5387,177.286 22,182.5C 21.5034,184.81 21.3367,187.143 21.5,189.5 Z"/></g>
<g><path style="opacity:1" fill="#674906" d="M 132.5,157.5 C 132.5,158.167 132.5,158.833 132.5,159.5C 131.903,159.735 131.57,160.235 131.5,161C 132.971,164.109 134.305,167.276 135.5,170.5C 132.353,174.422 131.353,178.756 132.5,183.5C 132.5,185.5 132.5,187.5 132.5,189.5C 132.167,189.5 131.833,189.5 131.5,189.5C 130.741,187.564 129.741,185.731 128.5,184C 128.735,183.127 129.069,182.293 129.5,181.5C 128.282,181.891 127.448,181.224 127,179.5C 126.044,180.579 125.211,181.745 124.5,183C 125.605,185.12 125.605,187.287 124.5,189.5C 123.167,189.5 121.833,189.5 120.5,189.5C 121.519,187.46 121.519,185.46 120.5,183.5C 118.717,185.023 118.051,187.023 118.5,189.5C 117.833,189.5 117.167,189.5 116.5,189.5C 117.795,183.231 119.962,177.231 123,171.5C 123.122,173.437 123.955,174.77 125.5,175.5C 126.469,176.309 127.302,177.309 128,178.5C 130.167,177 130,175.833 127.5,175C 128.5,173.333 129.5,171.667 130.5,170C 129.901,168.378 129.234,166.878 128.5,165.5C 129.342,162.476 130.342,159.476 131.5,156.5C 132.107,156.624 132.44,156.957 132.5,157.5 Z"/></g>
<g><path style="opacity:1" fill="#6c4a01" d="M 77.5,179.5 C 79.1132,179.056 80.2798,178.056 81,176.5C 81.0032,179.032 80.5032,181.532 79.5,184C 79.8627,186.192 80.8627,188.026 82.5,189.5C 75.5,189.5 68.5,189.5 61.5,189.5C 60.7317,187.1 60.3983,184.767 60.5,182.5C 62.9975,179.326 65.6642,178.992 68.5,181.5C 70.3497,180.758 71.0164,179.758 70.5,178.5C 73.5804,180.987 75.0804,179.987 75,175.5C 75.6667,177.167 75.6667,178.833 75,180.5C 72.8945,182.015 73.0612,182.515 75.5,182C 76.0659,181.005 76.7326,180.172 77.5,179.5 Z"/></g>
<g><path style="opacity:1" fill="#806105" d="M 131.5,151.5 C 133.461,153.32 133.794,155.32 132.5,157.5C 132.44,156.957 132.107,156.624 131.5,156.5C 130.342,159.476 129.342,162.476 128.5,165.5C 127.752,168.905 126.752,172.238 125.5,175.5C 123.955,174.77 123.122,173.437 123,171.5C 119.962,177.231 117.795,183.231 116.5,189.5C 114.833,189.5 113.167,189.5 111.5,189.5C 111.5,188.167 111.5,186.833 111.5,185.5C 112.725,184.848 113.392,183.681 113.5,182C 112.547,177.187 112.38,172.354 113,167.5C 114.032,172.214 116.032,172.548 119,168.5C 119.29,170.044 119.956,171.377 121,172.5C 122.252,169.986 122.752,167.32 122.5,164.5C 123.451,163.081 123.784,161.415 123.5,159.5C 124.833,159.5 126.167,159.5 127.5,159.5C 127.768,157.901 127.434,156.568 126.5,155.5C 126.231,153.571 126.731,151.905 128,150.5C 128.623,155.235 129.79,155.568 131.5,151.5 Z"/></g>
<g><path style="opacity:1" fill="#624401" d="M 199.5,178.5 C 199.5,182.167 199.5,185.833 199.5,189.5C 193.5,189.5 187.5,189.5 181.5,189.5C 181.721,188.265 182.388,187.265 183.5,186.5C 188.053,184.885 192.72,183.885 197.5,183.5C 197.402,181.447 198.069,179.78 199.5,178.5 Z"/></g>
<g><path style="opacity:1" fill="#3b2804" d="M 120.5,189.5 C 119.833,189.5 119.167,189.5 118.5,189.5C 118.051,187.023 118.717,185.023 120.5,183.5C 121.519,185.46 121.519,187.46 120.5,189.5 Z"/></g>
<g><path style="opacity:1" fill="#47280a" d="M 131.5,189.5 C 129.167,189.5 126.833,189.5 124.5,189.5C 125.605,187.287 125.605,185.12 124.5,183C 125.211,181.745 126.044,180.579 127,179.5C 127.448,181.224 128.282,181.891 129.5,181.5C 129.069,182.293 128.735,183.127 128.5,184C 129.741,185.731 130.741,187.564 131.5,189.5 Z"/></g>
<g><path style="opacity:1" fill="#725101" d="M 199.5,172.5 C 199.5,174.5 199.5,176.5 199.5,178.5C 198.069,179.78 197.402,181.447 197.5,183.5C 192.72,183.885 188.053,184.885 183.5,186.5C 182.388,187.265 181.721,188.265 181.5,189.5C 168.833,189.5 156.167,189.5 143.5,189.5C 144.014,187.561 145.347,186.561 147.5,186.5C 153.871,187.661 160.037,187.661 166,186.5C 166.839,187.624 168.006,188.291 169.5,188.5C 171.512,188.16 173.512,187.827 175.5,187.5C 175.5,186.5 175.5,185.5 175.5,184.5C 179.514,184.666 183.514,184.499 187.5,184C 190.106,183.55 191.439,182.05 191.5,179.5C 195.46,178.535 198.126,176.201 199.5,172.5 Z"/></g>
</svg>
