<?xml version="1.0" encoding="UTF-8"?>
<!DOCTYPE svg PUBLIC "-//W3C//DTD SVG 1.1//EN" "http://www.w3.org/Graphics/SVG/1.1/DTD/svg11.dtd">
<svg xmlns="http://www.w3.org/2000/svg" version="1.1" width="120px" height="120px" style="shape-rendering:geometricPrecision; text-rendering:geometricPrecision; image-rendering:optimizeQuality; fill-rule:evenodd; clip-rule:evenodd" xmlns:xlink="http://www.w3.org/1999/xlink">
<g><path style="opacity:1" fill="#738aa6" d="M 9.5,-0.5 C 14.1667,-0.5 18.8333,-0.5 23.5,-0.5C 24.5875,0.99981 25.9208,2.33314 27.5,3.5C 26.8201,4.85989 26.1534,6.19322 25.5,7.5C 22.9296,8.48404 22.9296,9.6507 25.5,11C 25.2716,11.3988 24.9382,11.5654 24.5,11.5C 23.8826,11.3893 23.3826,11.056 23,10.5C 21.3787,13.3207 19.212,13.9874 16.5,12.5C 16.6107,11.8826 16.944,11.3826 17.5,11C 16.2298,10.1004 15.2298,8.93371 14.5,7.5C 13.684,9.28725 12.684,10.9539 11.5,12.5C 9.34321,11.0336 9.00988,9.20025 10.5,7C 8.77489,7.40874 7.10822,7.24207 5.5,6.5C 6.64055,5.57451 6.64055,4.74117 5.5,4C 8.10591,3.54954 9.43925,2.04954 9.5,-0.5 Z"/></g>
<g><path style="opacity:1" fill="#768aa6" d="M 23.5,-0.5 C 31.1667,-0.5 38.8333,-0.5 46.5,-0.5C 47.8014,0.639972 48.9681,1.97331 50,3.5C 50.8505,0.387569 52.0172,0.0542352 53.5,2.5C 53.1667,3.16667 52.8333,3.83333 52.5,4.5C 54.1836,5.14973 55.5169,6.14973 56.5,7.5C 56.1075,9.2838 55.4408,10.9505 54.5,12.5C 53.5416,12.0472 52.7083,11.3805 52,10.5C 52.6425,12.8072 53.6425,15.1405 55,17.5C 55.6667,18.5 55.6667,19.5 55,20.5C 53.3853,19.6138 51.8853,18.6138 50.5,17.5C 50.2172,16.7109 49.7172,16.0442 49,15.5C 49.0773,16.7376 48.9106,17.7376 48.5,18.5C 46.7026,16.8689 45.5359,14.8689 45,12.5C 43.8525,13.4581 42.8525,13.1247 42,11.5C 41.6666,13.0468 42.1666,14.3801 43.5,15.5C 42.5585,15.4895 41.8919,15.9895 41.5,17C 41.6387,18.301 42.3054,19.1344 43.5,19.5C 44.038,21.1172 44.3713,22.7839 44.5,24.5C 43.8333,24.5 43.1667,24.5 42.5,24.5C 42.5,23.8333 42.1667,23.5 41.5,23.5C 40.7841,20.4024 39.2841,17.7357 37,15.5C 36.6012,15.7284 36.4346,16.0618 36.5,16.5C 32.6037,16.3878 28.937,15.3878 25.5,13.5C 27.359,9.40992 29.859,8.74325 33,11.5C 34.6883,10.6753 34.8549,9.67529 33.5,8.5C 35.1353,7.31916 36.802,7.31916 38.5,8.5C 38.8333,8 39.1667,7.5 39.5,7C 38.0033,5.33793 36.3366,3.83793 34.5,2.5C 33.6919,2.80762 33.0253,3.30762 32.5,4C 33.7112,4.89277 33.7112,5.7261 32.5,6.5C 31.6143,5.67504 31.281,4.67504 31.5,3.5C 30.325,3.28099 29.325,3.61432 28.5,4.5C 29.462,6.88327 28.462,7.88327 25.5,7.5C 26.1534,6.19322 26.8201,4.85989 27.5,3.5C 25.9208,2.33314 24.5875,0.99981 23.5,-0.5 Z"/></g>
<g><path style="opacity:1" fill="#7c8fab" d="M 82.5,-0.5 C 87.5,-0.5 92.5,-0.5 97.5,-0.5C 96.0474,0.824868 96.3808,1.6582 98.5,2C 97.1068,3.17109 96.2735,4.67109 96,6.5C 94.8069,2.5955 93.3069,2.0955 91.5,5C 92.4089,8.46612 93.0756,11.9661 93.5,15.5C 93.1077,17.1789 92.6077,18.8455 92,20.5C 91.6667,17.5 91.3333,14.5 91,11.5C 90.9403,16.3899 89.9403,21.0565 88,25.5C 87.5045,23.5273 87.3379,21.5273 87.5,19.5C 88.8333,15.5 88.8333,11.5 87.5,7.5C 85.4934,5.16271 82.8267,3.82937 79.5,3.5C 79.5,2.5 79.5,1.5 79.5,0.5C 80.791,0.737305 81.791,0.403972 82.5,-0.5 Z"/></g>
<g><path style="opacity:1" fill="#7b8fab" d="M 46.5,-0.5 C 58.5,-0.5 70.5,-0.5 82.5,-0.5C 81.791,0.403972 80.791,0.737305 79.5,0.5C 79.5,1.5 79.5,2.5 79.5,3.5C 82.8267,3.82937 85.4934,5.16271 87.5,7.5C 87.6633,9.85684 87.4966,12.1902 87,14.5C 86.8184,11.7737 86.3184,9.10707 85.5,6.5C 84.6717,11.1315 84.1717,15.7982 84,20.5C 82.218,7.29821 81.3847,7.29821 81.5,20.5C 80.4789,20.1007 80.1455,18.7674 80.5,16.5C 80.2163,13.1476 79.0496,10.1476 77,7.5C 76.5078,8.54896 76.6744,9.54896 77.5,10.5C 77.0576,11.7387 76.3909,12.7387 75.5,13.5C 74.7659,12.2921 74.4326,10.9587 74.5,9.5C 74.5,8.16667 74.5,6.83333 74.5,5.5C 75.5,5.5 76.5,5.5 77.5,5.5C 77.5,4.5 77.5,3.5 77.5,2.5C 76.1779,2.66997 75.0113,2.33663 74,1.5C 73.6667,2.16667 73.3333,2.83333 73,3.5C 72,2.5 71,1.5 70,0.5C 67.3333,1.16667 64.6667,1.83333 62,2.5C 60.9148,1.70689 59.7481,1.04022 58.5,0.5C 59.0947,3.06606 58.428,5.3994 56.5,7.5C 55.5169,6.14973 54.1836,5.14973 52.5,4.5C 52.8333,3.83333 53.1667,3.16667 53.5,2.5C 52.0172,0.0542352 50.8505,0.387569 50,3.5C 48.9681,1.97331 47.8014,0.639972 46.5,-0.5 Z"/></g>
<g><path style="opacity:1" fill="#798ca8" d="M 74.5,9.5 C 73.7784,9.08247 73.2784,8.4158 73,7.5C 72.6012,7.72845 72.4346,8.06178 72.5,8.5C 71.0609,7.49076 69.7276,7.82409 68.5,9.5C 67.2888,8.7261 67.2888,7.89277 68.5,7C 61.275,2.72767 58.9417,4.56101 61.5,12.5C 61.6621,14.5273 61.4955,16.5273 61,18.5C 60,15.8333 59,15.8333 58,18.5C 56.0527,16.9366 54.886,14.9366 54.5,12.5C 55.4408,10.9505 56.1075,9.2838 56.5,7.5C 58.428,5.3994 59.0947,3.06606 58.5,0.5C 59.7481,1.04022 60.9148,1.70689 62,2.5C 64.6667,1.83333 67.3333,1.16667 70,0.5C 71,1.5 72,2.5 73,3.5C 73.3333,2.83333 73.6667,2.16667 74,1.5C 75.0113,2.33663 76.1779,2.66997 77.5,2.5C 77.5,3.5 77.5,4.5 77.5,5.5C 76.5,5.5 75.5,5.5 74.5,5.5C 74.5,6.83333 74.5,8.16667 74.5,9.5 Z"/></g>
<g><path style="opacity:1" fill="#7a859c" d="M 72.5,8.5 C 73.6501,12.8076 73.6501,17.1409 72.5,21.5C 71.8333,21.5 71.5,21.1667 71.5,20.5C 70.9536,18.6968 70.1203,17.0302 69,15.5C 68.6667,16.1667 68.3333,16.8333 68,17.5C 66.8035,14.9109 65.8035,12.2442 65,9.5C 64.7234,12.9594 65.0567,16.2927 66,19.5C 63.0405,16.9018 61.7072,13.5684 62,9.5C 61.5172,10.448 61.3505,11.448 61.5,12.5C 58.9417,4.56101 61.275,2.72767 68.5,7C 67.2888,7.89277 67.2888,8.7261 68.5,9.5C 69.7276,7.82409 71.0609,7.49076 72.5,8.5 Z"/></g>
<g><path style="opacity:1" fill="#7a8ead" d="M 97.5,-0.5 C 97.8333,-0.5 98.1667,-0.5 98.5,-0.5C 100.423,1.28832 101.089,3.28832 100.5,5.5C 101.906,4.33184 103.072,4.66518 104,6.5C 103.502,4.47315 103.669,2.47315 104.5,0.5C 105.386,1.32496 105.719,2.32496 105.5,3.5C 108.523,3.1052 109.523,4.1052 108.5,6.5C 106.363,7.0798 104.53,8.0798 103,9.5C 102.035,7.73966 100.868,7.40632 99.5,8.5C 99.9767,9.47758 100.643,10.3109 101.5,11C 100.683,13.3725 99.3495,13.8725 97.5,12.5C 96.1001,13.0998 95.1001,14.0998 94.5,15.5C 94.1667,15.5 93.8333,15.5 93.5,15.5C 93.0756,11.9661 92.4089,8.46612 91.5,5C 93.3069,2.0955 94.8069,2.5955 96,6.5C 96.2735,4.67109 97.1068,3.17109 98.5,2C 96.3808,1.6582 96.0474,0.824868 97.5,-0.5 Z"/></g>
<g><path style="opacity:1" fill="#6f86a4" d="M -0.5,-0.5 C 2.83333,-0.5 6.16667,-0.5 9.5,-0.5C 9.43925,2.04954 8.10591,3.54954 5.5,4C 6.64055,4.74117 6.64055,5.57451 5.5,6.5C 7.10822,7.24207 8.77489,7.40874 10.5,7C 9.00988,9.20025 9.34321,11.0336 11.5,12.5C 12.684,10.9539 13.684,9.28725 14.5,7.5C 15.2298,8.93371 16.2298,10.1004 17.5,11C 16.944,11.3826 16.6107,11.8826 16.5,12.5C 16.6882,14.1033 16.1882,15.4366 15,16.5C 10.6819,13.6003 8.51521,14.9337 8.5,20.5C 7.61432,19.675 7.28099,18.675 7.5,17.5C 5.90097,17.2322 4.56764,17.5655 3.5,18.5C 2.76379,16.7706 1.43046,15.7706 -0.5,15.5C -0.5,10.1667 -0.5,4.83333 -0.5,-0.5 Z"/></g>
<g><path style="opacity:1" fill="#7387a2" d="M 36.5,16.5 C 37.1098,17.391 37.4431,18.391 37.5,19.5C 36.6236,19.3691 35.9569,19.7025 35.5,20.5C 36.6527,21.6868 36.6527,22.6868 35.5,23.5C 34.8333,23.1667 34.1667,22.8333 33.5,22.5C 32.3747,20.8712 31.0414,19.3712 29.5,18C 28.2752,17.4372 27.2752,17.7705 26.5,19C 28.7447,21.7309 30.7447,24.5642 32.5,27.5C 31.2058,26.7101 30.0391,25.7101 29,24.5C 26.3321,25.9804 26.1655,27.4804 28.5,29C 28.1667,29.1667 27.8333,29.3333 27.5,29.5C 25.5,27.8333 23.5,26.1667 21.5,24.5C 21.1667,24.6667 20.8333,24.8333 20.5,25C 21.3805,25.7083 22.0472,26.5416 22.5,27.5C 22.6567,28.8734 22.49,30.2068 22,31.5C 20.2196,30.3606 18.3863,29.3606 16.5,28.5C 16.7329,26.9382 17.3995,25.6049 18.5,24.5C 18.3893,23.8826 18.056,23.3826 17.5,23C 18.9308,22.5348 20.0975,21.7014 21,20.5C 23.5032,21.5504 25.0032,20.5504 25.5,17.5C 24.0909,17.3459 22.4242,17.1792 20.5,17C 22.8189,15.8526 24.1523,14.0193 24.5,11.5C 24.9382,11.5654 25.2716,11.3988 25.5,11C 22.9296,9.6507 22.9296,8.48404 25.5,7.5C 28.462,7.88327 29.462,6.88327 28.5,4.5C 29.325,3.61432 30.325,3.28099 31.5,3.5C 31.281,4.67504 31.6143,5.67504 32.5,6.5C 33.7112,5.7261 33.7112,4.89277 32.5,4C 33.0253,3.30762 33.6919,2.80762 34.5,2.5C 36.3366,3.83793 38.0033,5.33793 39.5,7C 39.1667,7.5 38.8333,8 38.5,8.5C 36.802,7.31916 35.1353,7.31916 33.5,8.5C 34.8549,9.67529 34.6883,10.6753 33,11.5C 29.859,8.74325 27.359,9.40992 25.5,13.5C 28.937,15.3878 32.6037,16.3878 36.5,16.5 Z"/></g>
<g><path style="opacity:1" fill="#7b91ae" d="M 98.5,-0.5 C 105.5,-0.5 112.5,-0.5 119.5,-0.5C 119.5,7.5 119.5,15.5 119.5,23.5C 116.451,22.6426 113.451,22.6426 110.5,23.5C 107.745,21.9904 105.412,19.9904 103.5,17.5C 101.495,20.0278 99.8287,19.6945 98.5,16.5C 97.5713,15.3112 97.238,13.9778 97.5,12.5C 99.3495,13.8725 100.683,13.3725 101.5,11C 100.643,10.3109 99.9767,9.47758 99.5,8.5C 100.868,7.40632 102.035,7.73966 103,9.5C 104.53,8.0798 106.363,7.0798 108.5,6.5C 109.523,4.1052 108.523,3.1052 105.5,3.5C 105.719,2.32496 105.386,1.32496 104.5,0.5C 103.669,2.47315 103.502,4.47315 104,6.5C 103.072,4.66518 101.906,4.33184 100.5,5.5C 101.089,3.28832 100.423,1.28832 98.5,-0.5 Z"/></g>
<g><path style="opacity:1" fill="#7a7587" d="M 80.5,16.5 C 79.6981,17.9516 79.1981,19.6183 79,21.5C 77.1552,19.1332 75.9886,16.4665 75.5,13.5C 76.3909,12.7387 77.0576,11.7387 77.5,10.5C 76.6744,9.54896 76.5078,8.54896 77,7.5C 79.0496,10.1476 80.2163,13.1476 80.5,16.5 Z"/></g>
<g><path style="opacity:1" fill="#738aa4" d="M 24.5,11.5 C 24.1523,14.0193 22.8189,15.8526 20.5,17C 22.4242,17.1792 24.0909,17.3459 25.5,17.5C 25.0032,20.5504 23.5032,21.5504 21,20.5C 20.0975,21.7014 18.9308,22.5348 17.5,23C 18.056,23.3826 18.3893,23.8826 18.5,24.5C 16.6159,24.7118 15.2826,25.7118 14.5,27.5C 13.5,27 12.5,26.5 11.5,26C 11.8333,25.6667 12.1667,25.3333 12.5,25C 9.6074,23.8512 6.6074,23.3512 3.5,23.5C 3.5,21.8333 3.5,20.1667 3.5,18.5C 4.56764,17.5655 5.90097,17.2322 7.5,17.5C 7.28099,18.675 7.61432,19.675 8.5,20.5C 8.51521,14.9337 10.6819,13.6003 15,16.5C 16.1882,15.4366 16.6882,14.1033 16.5,12.5C 19.212,13.9874 21.3787,13.3207 23,10.5C 23.3826,11.056 23.8826,11.3893 24.5,11.5 Z"/></g>
<g><path style="opacity:1" fill="#765c5c" d="M 74.5,9.5 C 74.4326,10.9587 74.7659,12.2921 75.5,13.5C 75.9886,16.4665 77.1552,19.1332 79,21.5C 79.1981,19.6183 79.6981,17.9516 80.5,16.5C 80.1455,18.7674 80.4789,20.1007 81.5,20.5C 82.404,21.209 82.7373,22.209 82.5,23.5C 85.6449,22.9233 87.1449,20.9233 87,17.5C 87.4643,18.0944 87.631,18.7611 87.5,19.5C 87.3379,21.5273 87.5045,23.5273 88,25.5C 89.9403,21.0565 90.9403,16.3899 91,11.5C 91.3333,14.5 91.6667,17.5 92,20.5C 92.6077,18.8455 93.1077,17.1789 93.5,15.5C 93.8333,15.5 94.1667,15.5 94.5,15.5C 94.4532,20.1485 93.4532,24.4818 91.5,28.5C 86.2168,25.2952 80.5501,23.2952 74.5,22.5C 74.1583,21.6618 73.4916,21.3284 72.5,21.5C 73.6501,17.1409 73.6501,12.8076 72.5,8.5C 72.4346,8.06178 72.6012,7.72845 73,7.5C 73.2784,8.4158 73.7784,9.08247 74.5,9.5 Z"/></g>
<g><path style="opacity:1" fill="#796d78" d="M 87.5,7.5 C 88.8333,11.5 88.8333,15.5 87.5,19.5C 87.631,18.7611 87.4643,18.0944 87,17.5C 87.1449,20.9233 85.6449,22.9233 82.5,23.5C 82.7373,22.209 82.404,21.209 81.5,20.5C 81.3847,7.29821 82.218,7.29821 84,20.5C 84.1717,15.7982 84.6717,11.1315 85.5,6.5C 86.3184,9.10707 86.8184,11.7737 87,14.5C 87.4966,12.1902 87.6633,9.85684 87.5,7.5 Z"/></g>
<g><path style="opacity:1" fill="#644047" d="M 41.5,23.5 C 40.1667,22.1667 38.8333,20.8333 37.5,19.5C 37.4431,18.391 37.1098,17.391 36.5,16.5C 36.4346,16.0618 36.6012,15.7284 37,15.5C 39.2841,17.7357 40.7841,20.4024 41.5,23.5 Z"/></g>
<g><path style="opacity:1" fill="#776b7d" d="M 50.5,17.5 C 50.5394,18.5832 50.8728,19.5832 51.5,20.5C 50.3881,21.2652 49.7214,22.2652 49.5,23.5C 49.1667,23.5 48.8333,23.5 48.5,23.5C 47.5557,21.3121 45.889,19.9788 43.5,19.5C 42.3054,19.1344 41.6387,18.301 41.5,17C 41.8919,15.9895 42.5585,15.4895 43.5,15.5C 42.1666,14.3801 41.6666,13.0468 42,11.5C 42.8525,13.1247 43.8525,13.4581 45,12.5C 45.5359,14.8689 46.7026,16.8689 48.5,18.5C 48.9106,17.7376 49.0773,16.7376 49,15.5C 49.7172,16.0442 50.2172,16.7109 50.5,17.5 Z"/></g>
<g><path style="opacity:1" fill="#775759" d="M 71.5,20.5 C 67.7601,20.6521 63.9268,21.3188 60,22.5C 59,21.8333 58,21.1667 57,20.5C 54.874,22.3766 52.374,23.3766 49.5,23.5C 49.7214,22.2652 50.3881,21.2652 51.5,20.5C 50.8728,19.5832 50.5394,18.5832 50.5,17.5C 51.8853,18.6138 53.3853,19.6138 55,20.5C 55.6667,19.5 55.6667,18.5 55,17.5C 53.6425,15.1405 52.6425,12.8072 52,10.5C 52.7083,11.3805 53.5416,12.0472 54.5,12.5C 54.886,14.9366 56.0527,16.9366 58,18.5C 59,15.8333 60,15.8333 61,18.5C 61.4955,16.5273 61.6621,14.5273 61.5,12.5C 61.3505,11.448 61.5172,10.448 62,9.5C 61.7072,13.5684 63.0405,16.9018 66,19.5C 65.0567,16.2927 64.7234,12.9594 65,9.5C 65.8035,12.2442 66.8035,14.9109 68,17.5C 68.3333,16.8333 68.6667,16.1667 69,15.5C 70.1203,17.0302 70.9536,18.6968 71.5,20.5 Z"/></g>
<g><path style="opacity:1" fill="#76687e" d="M 37.5,19.5 C 38.8333,20.8333 40.1667,22.1667 41.5,23.5C 40.8106,24.7736 39.9772,24.7736 39,23.5C 37.8604,26.0176 36.6937,26.0176 35.5,23.5C 36.6527,22.6868 36.6527,21.6868 35.5,20.5C 35.9569,19.7025 36.6236,19.3691 37.5,19.5 Z"/></g>
<g><path style="opacity:1" fill="#693a3a" d="M 43.5,19.5 C 45.889,19.9788 47.5557,21.3121 48.5,23.5C 47.4324,24.4345 46.099,24.7678 44.5,24.5C 44.3713,22.7839 44.038,21.1172 43.5,19.5 Z"/></g>
<g><path style="opacity:1" fill="#a49065" d="M 71.5,20.5 C 71.5,21.1667 71.8333,21.5 72.5,21.5C 73.4916,21.3284 74.1583,21.6618 74.5,22.5C 69.9425,23.1362 65.7758,23.1362 62,22.5C 61.0053,23.0659 60.172,23.7326 59.5,24.5C 55.2929,24.3374 51.1263,24.6707 47,25.5C 45.6244,25.6842 44.7911,26.3509 44.5,27.5C 37.8273,29.183 32.1607,32.5163 27.5,37.5C 25.6675,38.2485 24.0009,39.2485 22.5,40.5C 23.5686,38.0313 24.9019,35.6979 26.5,33.5C 27.3382,33.1583 27.6716,32.4916 27.5,31.5C 30.3126,31.9754 32.3126,30.9754 33.5,28.5C 34.791,28.7373 35.791,28.404 36.5,27.5C 39.216,27.6138 41.216,26.6138 42.5,24.5C 43.1667,24.5 43.8333,24.5 44.5,24.5C 46.099,24.7678 47.4324,24.4345 48.5,23.5C 48.8333,23.5 49.1667,23.5 49.5,23.5C 52.374,23.3766 54.874,22.3766 57,20.5C 58,21.1667 59,21.8333 60,22.5C 63.9268,21.3188 67.7601,20.6521 71.5,20.5 Z"/></g>
<g><path style="opacity:1" fill="#a99d68" d="M 74.5,22.5 C 80.5501,23.2952 86.2168,25.2952 91.5,28.5C 91.5,28.8333 91.5,29.1667 91.5,29.5C 92.5,31.1667 93.8333,32.5 95.5,33.5C 95.8333,33.5 96.1667,33.5 96.5,33.5C 96.7244,37.1788 97.0578,40.8455 97.5,44.5C 97.0679,45.7095 96.4013,46.7095 95.5,47.5C 95.8432,45.5168 95.1765,44.1834 93.5,43.5C 93.5,43.1667 93.5,42.8333 93.5,42.5C 93.6342,35.308 90.3009,30.6413 83.5,28.5C 81.8828,27.962 80.2161,27.6287 78.5,27.5C 76.22,25.7773 73.5533,25.1107 70.5,25.5C 67.0381,24.5184 63.3714,24.185 59.5,24.5C 60.172,23.7326 61.0053,23.0659 62,22.5C 65.7758,23.1362 69.9425,23.1362 74.5,22.5 Z"/></g>
<g><path style="opacity:1" fill="#6f6473" d="M 33.5,22.5 C 34.075,24.4113 35.075,26.078 36.5,27.5C 35.791,28.404 34.791,28.7373 33.5,28.5C 32.8333,28.5 32.5,28.1667 32.5,27.5C 30.7447,24.5642 28.7447,21.7309 26.5,19C 27.2752,17.7705 28.2752,17.4372 29.5,18C 31.0414,19.3712 32.3747,20.8712 33.5,22.5 Z"/></g>
<g><path style="opacity:1" fill="#73463f" d="M 33.5,22.5 C 34.1667,22.8333 34.8333,23.1667 35.5,23.5C 36.6937,26.0176 37.8604,26.0176 39,23.5C 39.9772,24.7736 40.8106,24.7736 41.5,23.5C 42.1667,23.5 42.5,23.8333 42.5,24.5C 41.216,26.6138 39.216,27.6138 36.5,27.5C 35.075,26.078 34.075,24.4113 33.5,22.5 Z"/></g>
<g><path style="opacity:1" fill="#a48c43" d="M 59.5,24.5 C 63.3714,24.185 67.0381,24.5184 70.5,25.5C 64.077,25.2088 57.7436,25.5422 51.5,26.5C 49.0971,26.448 46.7638,26.7814 44.5,27.5C 44.7911,26.3509 45.6244,25.6842 47,25.5C 51.1263,24.6707 55.2929,24.3374 59.5,24.5 Z"/></g>
<g><path style="opacity:1" fill="#6f87a3" d="M 3.5,23.5 C 6.6074,23.3512 9.6074,23.8512 12.5,25C 12.1667,25.3333 11.8333,25.6667 11.5,26C 12.5,26.5 13.5,27 14.5,27.5C 15.2826,25.7118 16.6159,24.7118 18.5,24.5C 17.3995,25.6049 16.7329,26.9382 16.5,28.5C 15.448,28.3505 14.448,28.5172 13.5,29C 15.5,29.6667 16.8333,31 17.5,33C 16.9056,33.4643 16.2389,33.631 15.5,33.5C 13.6621,32.3217 11.9955,32.655 10.5,34.5C 9.17793,34.33 8.01127,34.6634 7,35.5C 6,34.8333 5,34.1667 4,33.5C 4.73493,30.1509 4.56826,26.8176 3.5,23.5 Z"/></g>
<g><path style="opacity:1" fill="#7d5a21" d="M 70.5,25.5 C 73.5533,25.1107 76.22,25.7773 78.5,27.5C 76.5,27.5 74.5,27.5 72.5,27.5C 65.5304,26.2003 58.5304,26.2003 51.5,27.5C 51.5,27.1667 51.5,26.8333 51.5,26.5C 57.7436,25.5422 64.077,25.2088 70.5,25.5 Z"/></g>
<g><path style="opacity:1" fill="#7f7175" d="M 104.5,30.5 C 103.262,31.4124 101.928,31.5791 100.5,31C 103.121,30.0944 102.954,29.5944 100,29.5C 98.167,29.5186 96.667,30.1852 95.5,31.5C 94.4863,30.3263 93.153,29.6596 91.5,29.5C 91.5,29.1667 91.5,28.8333 91.5,28.5C 94.6948,26.6466 97.8615,24.6466 101,22.5C 100.973,24.4174 100.139,26.084 98.5,27.5C 98.8333,27.8333 99.1667,28.1667 99.5,28.5C 103.479,27.5026 107.479,27.0026 111.5,27C 109.071,28.0195 106.737,29.1862 104.5,30.5 Z"/></g>
<g><path style="opacity:1" fill="#8b7148" d="M 72.5,27.5 C 71.0813,28.4511 69.4147,28.7845 67.5,28.5C 62.225,28.7125 57.0584,28.7125 52,28.5C 50.1886,29.4235 50.3553,30.2569 52.5,31C 49.9417,31.2753 47.6084,30.7753 45.5,29.5C 47.4214,28.6373 49.4214,27.9707 51.5,27.5C 58.5304,26.2003 65.5304,26.2003 72.5,27.5 Z"/></g>
<g><path style="opacity:1" fill="#63464d" d="M 32.5,27.5 C 32.5,28.1667 32.8333,28.5 33.5,28.5C 32.3126,30.9754 30.3126,31.9754 27.5,31.5C 25.8333,30.1667 24.1667,28.8333 22.5,27.5C 22.0472,26.5416 21.3805,25.7083 20.5,25C 20.8333,24.8333 21.1667,24.6667 21.5,24.5C 23.5,26.1667 25.5,27.8333 27.5,29.5C 27.8333,29.3333 28.1667,29.1667 28.5,29C 26.1655,27.4804 26.3321,25.9804 29,24.5C 30.0391,25.7101 31.2058,26.7101 32.5,27.5 Z"/></g>
<g><path style="opacity:1" fill="#97752a" d="M 51.5,26.5 C 51.5,26.8333 51.5,27.1667 51.5,27.5C 49.4214,27.9707 47.4214,28.6373 45.5,29.5C 40.2868,30.6857 35.6202,33.019 31.5,36.5C 29.9731,36.427 28.9731,37.0937 28.5,38.5C 27.8333,38.5 27.5,38.1667 27.5,37.5C 32.1607,32.5163 37.8273,29.183 44.5,27.5C 46.7638,26.7814 49.0971,26.448 51.5,26.5 Z"/></g>
<g><path style="opacity:1" fill="#7d8faa" d="M 97.5,12.5 C 97.238,13.9778 97.5713,15.3112 98.5,16.5C 99.8287,19.6945 101.495,20.0278 103.5,17.5C 105.412,19.9904 107.745,21.9904 110.5,23.5C 113.451,22.6426 116.451,22.6426 119.5,23.5C 119.5,26.5 119.5,29.5 119.5,32.5C 114.78,32.7746 114.446,31.9412 118.5,30C 118.167,29.8333 117.833,29.6667 117.5,29.5C 113.957,29.161 110.457,29.8276 107,31.5C 105.93,31.472 105.097,31.1386 104.5,30.5C 106.737,29.1862 109.071,28.0195 111.5,27C 107.479,27.0026 103.479,27.5026 99.5,28.5C 99.1667,28.1667 98.8333,27.8333 98.5,27.5C 100.139,26.084 100.973,24.4174 101,22.5C 97.8615,24.6466 94.6948,26.6466 91.5,28.5C 93.4532,24.4818 94.4532,20.1485 94.5,15.5C 95.1001,14.0998 96.1001,13.0998 97.5,12.5 Z"/></g>
<g><path style="opacity:1" fill="#646074" d="M 22.5,27.5 C 24.1667,28.8333 25.8333,30.1667 27.5,31.5C 27.6716,32.4916 27.3382,33.1583 26.5,33.5C 25.8826,33.3893 25.3826,33.056 25,32.5C 22.9394,35.128 20.4394,35.7946 17.5,34.5C 16.7025,34.9569 16.3691,35.6236 16.5,36.5C 14.8967,36.6882 13.5634,36.1882 12.5,35C 13.4491,34.3828 14.2825,34.5494 15,35.5C 15.4643,34.9056 15.631,34.2389 15.5,33.5C 16.2389,33.631 16.9056,33.4643 17.5,33C 16.8333,31 15.5,29.6667 13.5,29C 14.448,28.5172 15.448,28.3505 16.5,28.5C 18.3863,29.3606 20.2196,30.3606 22,31.5C 22.49,30.2068 22.6567,28.8734 22.5,27.5 Z"/></g>
<g><path style="opacity:1" fill="#866f4f" d="M 91.5,29.5 C 93.153,29.6596 94.4863,30.3263 95.5,31.5C 95.5,32.1667 95.5,32.8333 95.5,33.5C 93.8333,32.5 92.5,31.1667 91.5,29.5 Z"/></g>
<g><path style="opacity:1" fill="#6e87a1" d="M -0.5,15.5 C 1.43046,15.7706 2.76379,16.7706 3.5,18.5C 3.5,20.1667 3.5,21.8333 3.5,23.5C 4.56826,26.8176 4.73493,30.1509 4,33.5C 5,34.1667 6,34.8333 7,35.5C 8.01127,34.6634 9.17793,34.33 10.5,34.5C 11.0431,34.56 11.3764,34.8933 11.5,35.5C 9.43315,36.1341 7.59982,37.1341 6,38.5C 5.66667,37.8333 5.33333,37.1667 5,36.5C 4.33784,39.4166 2.50451,40.7499 -0.5,40.5C -0.5,32.1667 -0.5,23.8333 -0.5,15.5 Z"/></g>
<g><path style="opacity:1" fill="#9b836a" d="M 67.5,28.5 C 67.5,29.1667 67.5,29.8333 67.5,30.5C 66.8333,31.1667 66.1667,31.8333 65.5,32.5C 62.1353,33.0396 58.802,33.7063 55.5,34.5C 53.3618,34.8547 51.1951,34.188 49,32.5C 43.5083,33.3277 38.3416,34.9944 33.5,37.5C 32.5836,37.4573 31.9169,37.1239 31.5,36.5C 35.6202,33.019 40.2868,30.6857 45.5,29.5C 47.6084,30.7753 49.9417,31.2753 52.5,31C 50.3553,30.2569 50.1886,29.4235 52,28.5C 57.0584,28.7125 62.225,28.7125 67.5,28.5 Z"/></g>
<g><path style="opacity:1" fill="#835846" d="M 72.5,27.5 C 74.5,27.5 76.5,27.5 78.5,27.5C 80.2161,27.6287 81.8828,27.962 83.5,28.5C 84.3065,29.7281 85.3065,30.7281 86.5,31.5C 85.3744,32.7142 84.0411,33.7142 82.5,34.5C 77.4376,33.2706 72.4376,31.9373 67.5,30.5C 67.5,29.8333 67.5,29.1667 67.5,28.5C 69.4147,28.7845 71.0813,28.4511 72.5,27.5 Z"/></g>
<g><path style="opacity:1" fill="#7d8fa6" d="M 104.5,30.5 C 105.097,31.1386 105.93,31.472 107,31.5C 110.457,29.8276 113.957,29.161 117.5,29.5C 117.833,29.6667 118.167,29.8333 118.5,30C 114.446,31.9412 114.78,32.7746 119.5,32.5C 119.5,36.1667 119.5,39.8333 119.5,43.5C 114.72,43.1181 111.386,43.4514 109.5,44.5C 108.081,45.4511 106.415,45.7845 104.5,45.5C 104.285,43.8212 104.952,42.8212 106.5,42.5C 107.675,42.719 108.675,42.3857 109.5,41.5C 106.568,40.1825 103.568,39.0158 100.5,38C 102.301,37.6827 102.634,37.016 101.5,36C 104.833,35.6667 108.167,35.3333 111.5,35C 100.833,34.3333 100.833,33.6667 111.5,33C 106.316,32.1837 101.316,32.3503 96.5,33.5C 96.1667,33.5 95.8333,33.5 95.5,33.5C 95.5,32.8333 95.5,32.1667 95.5,31.5C 96.667,30.1852 98.167,29.5186 100,29.5C 102.954,29.5944 103.121,30.0944 100.5,31C 101.928,31.5791 103.262,31.4124 104.5,30.5 Z"/></g>
<g><path style="opacity:1" fill="#8b7040" d="M 83.5,28.5 C 90.3009,30.6413 93.6342,35.308 93.5,42.5C 92.7972,40.3713 91.7972,38.3713 90.5,36.5C 89.5161,34.5201 88.1827,32.8534 86.5,31.5C 85.3065,30.7281 84.3065,29.7281 83.5,28.5 Z"/></g>
<g><path style="opacity:1" fill="#7c7475" d="M 106.5,42.5 C 104.307,41.2031 101.973,41.2031 99.5,42.5C 100.167,43.1667 100.833,43.8333 101.5,44.5C 101.376,45.1067 101.043,45.44 100.5,45.5C 99.791,44.596 98.791,44.2627 97.5,44.5C 97.0578,40.8455 96.7244,37.1788 96.5,33.5C 101.316,32.3503 106.316,32.1837 111.5,33C 100.833,33.6667 100.833,34.3333 111.5,35C 108.167,35.3333 104.833,35.6667 101.5,36C 102.634,37.016 102.301,37.6827 100.5,38C 103.568,39.0158 106.568,40.1825 109.5,41.5C 108.675,42.3857 107.675,42.719 106.5,42.5 Z"/></g>
<g><path style="opacity:1" fill="#603c3e" d="M 26.5,33.5 C 24.9019,35.6979 23.5686,38.0313 22.5,40.5C 22.1667,40.5 21.8333,40.5 21.5,40.5C 20.8333,40.8333 20.1667,41.1667 19.5,41.5C 19.1788,39.9519 18.1788,39.2852 16.5,39.5C 17.8333,38.5 17.8333,37.5 16.5,36.5C 16.3691,35.6236 16.7025,34.9569 17.5,34.5C 20.4394,35.7946 22.9394,35.128 25,32.5C 25.3826,33.056 25.8826,33.3893 26.5,33.5 Z"/></g>
<g><path style="opacity:1" fill="#ac9a7f" d="M 55.5,34.5 C 55.9175,35.2216 56.5842,35.7216 57.5,36C 55.8309,37.669 53.8309,38.5023 51.5,38.5C 51.2343,42.0794 49.901,42.4127 47.5,39.5C 46.6143,38.675 46.281,37.675 46.5,36.5C 43.1212,36.888 39.7879,37.5547 36.5,38.5C 33.9226,40.5679 30.9226,41.9013 27.5,42.5C 27.1373,43.1835 26.8039,43.8501 26.5,44.5C 26.1667,44.5 25.8333,44.5 25.5,44.5C 25.9752,42.2163 26.9752,40.2163 28.5,38.5C 28.9731,37.0937 29.9731,36.427 31.5,36.5C 31.9169,37.1239 32.5836,37.4573 33.5,37.5C 38.3416,34.9944 43.5083,33.3277 49,32.5C 51.1951,34.188 53.3618,34.8547 55.5,34.5 Z"/></g>
<g><path style="opacity:1" fill="#94746a" d="M 67.5,30.5 C 72.4376,31.9373 77.4376,33.2706 82.5,34.5C 84.0411,33.7142 85.3744,32.7142 86.5,31.5C 88.1827,32.8534 89.5161,34.5201 90.5,36.5C 88.3742,36.8499 86.0408,36.8499 83.5,36.5C 78.2867,34.47 73.9534,35.47 70.5,39.5C 69.5342,36.5314 67.8675,34.198 65.5,32.5C 66.1667,31.8333 66.8333,31.1667 67.5,30.5 Z"/></g>
<g><path style="opacity:1" fill="#554452" d="M 16.5,39.5 C 18.1788,39.2852 19.1788,39.9519 19.5,41.5C 18.0222,41.238 16.6888,41.5713 15.5,42.5C 16.8532,43.5237 17.5198,44.857 17.5,46.5C 16.209,46.2627 15.209,46.596 14.5,47.5C 10.1074,47.5432 9.77406,47.0432 13.5,46C 12.2068,45.51 10.8734,45.3433 9.5,45.5C 8.83333,44.8333 8.16667,44.1667 7.5,43.5C 9.19919,43.6602 10.8659,43.4935 12.5,43C 13.7051,41.6244 15.0384,40.4577 16.5,39.5 Z"/></g>
<g><path style="opacity:1" fill="#a18388" d="M 83.5,36.5 C 86.0408,36.8499 88.3742,36.8499 90.5,36.5C 91.7972,38.3713 92.7972,40.3713 93.5,42.5C 93.5,42.8333 93.5,43.1667 93.5,43.5C 93.5,43.8333 93.5,44.1667 93.5,44.5C 92.5418,46.3024 91.8751,48.3024 91.5,50.5C 91.5,51.1667 91.5,51.8333 91.5,52.5C 90.5,52.5 89.5,52.5 88.5,52.5C 89.379,50.772 90.0457,48.9386 90.5,47C 90.0012,44.6721 88.6679,43.1721 86.5,42.5C 86.5,41.5 86.5,40.5 86.5,39.5C 85.5,39.5 84.5,39.5 83.5,39.5C 83.5,38.5 83.5,37.5 83.5,36.5 Z"/></g>
<g><path style="opacity:1" fill="#6a809b" d="M 15.5,33.5 C 15.631,34.2389 15.4643,34.9056 15,35.5C 14.2825,34.5494 13.4491,34.3828 12.5,35C 13.5634,36.1882 14.8967,36.6882 16.5,36.5C 17.8333,37.5 17.8333,38.5 16.5,39.5C 15.0384,40.4577 13.7051,41.6244 12.5,43C 10.8659,43.4935 9.19919,43.6602 7.5,43.5C 5.88004,44.8409 4.88004,46.6742 4.5,49C 6.93163,50.0875 6.5983,50.5875 3.5,50.5C 3.37394,52.1998 2.70728,53.6998 1.5,55C 3.15336,57.411 2.48669,58.5777 -0.5,58.5C -0.5,52.5 -0.5,46.5 -0.5,40.5C 2.50451,40.7499 4.33784,39.4166 5,36.5C 5.33333,37.1667 5.66667,37.8333 6,38.5C 7.59982,37.1341 9.43315,36.1341 11.5,35.5C 11.3764,34.8933 11.0431,34.56 10.5,34.5C 11.9955,32.655 13.6621,32.3217 15.5,33.5 Z"/></g>
<g><path style="opacity:1" fill="#baae99" d="M 65.5,32.5 C 67.8675,34.198 69.5342,36.5314 70.5,39.5C 65.4607,39.5992 61.1274,41.2658 57.5,44.5C 56.5,44.8333 55.8333,45.5 55.5,46.5C 54.8333,46.5 54.5,46.8333 54.5,47.5C 48.8846,46.4265 43.2179,46.2599 37.5,47C 36.244,47.4169 35.5774,48.2502 35.5,49.5C 34.7784,49.9175 34.2784,50.5842 34,51.5C 32.6667,50.1667 31.3333,50.1667 30,51.5C 29.5045,53.4727 29.3379,55.4727 29.5,57.5C 27.2549,55.5829 26.9215,53.2496 28.5,50.5C 27.6279,48.5504 26.9612,46.5504 26.5,44.5C 26.8039,43.8501 27.1373,43.1835 27.5,42.5C 30.9226,41.9013 33.9226,40.5679 36.5,38.5C 39.7879,37.5547 43.1212,36.888 46.5,36.5C 46.281,37.675 46.6143,38.675 47.5,39.5C 49.901,42.4127 51.2343,42.0794 51.5,38.5C 53.8309,38.5023 55.8309,37.669 57.5,36C 56.5842,35.7216 55.9175,35.2216 55.5,34.5C 58.802,33.7063 62.1353,33.0396 65.5,32.5 Z"/></g>
<g><path style="opacity:1" fill="#845253" d="M 83.5,36.5 C 83.5,37.5 83.5,38.5 83.5,39.5C 84.5,39.5 85.5,39.5 86.5,39.5C 86.5,40.5 86.5,41.5 86.5,42.5C 84.8828,43.038 83.2161,43.3713 81.5,43.5C 81.6621,41.4727 81.4955,39.4727 81,37.5C 79.8173,36.269 78.6507,36.269 77.5,37.5C 80.6429,43.2636 79.3096,44.597 73.5,41.5C 72.4777,41.8555 71.811,42.5222 71.5,43.5C 71.5,43.8333 71.5,44.1667 71.5,44.5C 70.089,42.461 68.089,41.461 65.5,41.5C 64.1821,46.5009 61.5154,47.5009 57.5,44.5C 61.1274,41.2658 65.4607,39.5992 70.5,39.5C 73.9534,35.47 78.2867,34.47 83.5,36.5 Z"/></g>
<g><path style="opacity:1" fill="#986268" d="M 86.5,42.5 C 88.6679,43.1721 90.0012,44.6721 90.5,47C 90.0457,48.9386 89.379,50.772 88.5,52.5C 87.5987,51.7095 86.9321,50.7095 86.5,49.5C 85.9094,48.8485 85.2427,48.1818 84.5,47.5C 85.4565,45.9246 86.1231,44.258 86.5,42.5 Z"/></g>
<g><path style="opacity:1" fill="#7f93af" d="M 119.5,43.5 C 119.5,47.1667 119.5,50.8333 119.5,54.5C 118.833,54.5 118.167,54.5 117.5,54.5C 114.458,52.9799 111.792,53.6466 109.5,56.5C 108.576,54.6095 107.243,53.1095 105.5,52C 106.017,48.4659 108.017,46.2993 111.5,45.5C 111.043,44.7025 110.376,44.3691 109.5,44.5C 111.386,43.4514 114.72,43.1181 119.5,43.5 Z"/></g>
<g><path style="opacity:1" fill="#b8be9e" d="M 93.5,44.5 C 93.5,44.1667 93.5,43.8333 93.5,43.5C 95.1765,44.1834 95.8432,45.5168 95.5,47.5C 95.5,48.5 95.5,49.5 95.5,50.5C 95.5,50.8333 95.5,51.1667 95.5,51.5C 94.391,51.5569 93.391,51.8902 92.5,52.5C 92.1667,52.5 91.8333,52.5 91.5,52.5C 91.5,51.8333 91.5,51.1667 91.5,50.5C 93.9817,48.9148 94.6484,46.9148 93.5,44.5 Z"/></g>
<g><path style="opacity:1" fill="#894a47" d="M 54.5,47.5 C 52.9976,49.8293 53.6643,51.1627 56.5,51.5C 56.5,52.8333 56.5,54.1667 56.5,55.5C 55.2101,54.9423 54.3768,53.9423 54,52.5C 53.5831,53.756 52.7498,54.4226 51.5,54.5C 49.7541,52.7484 47.7541,51.4151 45.5,50.5C 41.8562,52.1393 38.5228,51.806 35.5,49.5C 35.5774,48.2502 36.244,47.4169 37.5,47C 43.2179,46.2599 48.8846,46.4265 54.5,47.5 Z"/></g>
<g><path style="opacity:1" fill="#ccd3d6" d="M 93.5,44.5 C 94.6484,46.9148 93.9817,48.9148 91.5,50.5C 91.8751,48.3024 92.5418,46.3024 93.5,44.5 Z"/></g>
<g><path style="opacity:1" fill="#20110f" d="M 71.5,43.5 C 73.2624,44.2623 74.2624,45.5956 74.5,47.5C 73.596,48.209 73.2627,49.209 73.5,50.5C 72.1667,50.5 70.8333,50.5 69.5,50.5C 70.1667,49.8333 70.8333,49.1667 71.5,48.5C 71.5,47.1667 71.5,45.8333 71.5,44.5C 71.5,44.1667 71.5,43.8333 71.5,43.5 Z"/></g>
<g><path style="opacity:1" fill="#734b44" d="M 97.5,44.5 C 98.791,44.2627 99.791,44.596 100.5,45.5C 99.8333,45.5 99.5,45.8333 99.5,46.5C 98.7611,46.369 98.0944,46.5357 97.5,47C 98.624,47.2492 99.624,47.7492 100.5,48.5C 99.6086,49.5896 98.6086,49.5896 97.5,48.5C 96.7025,48.9569 96.3691,49.6236 96.5,50.5C 96.1667,50.5 95.8333,50.5 95.5,50.5C 95.5,49.5 95.5,48.5 95.5,47.5C 96.4013,46.7095 97.0679,45.7095 97.5,44.5 Z"/></g>
<g><path style="opacity:1" fill="#705c61" d="M 99.5,46.5 C 103.991,47.1295 104.491,48.7962 101,51.5C 99.6439,50.6198 98.1439,50.2865 96.5,50.5C 96.3691,49.6236 96.7025,48.9569 97.5,48.5C 98.6086,49.5896 99.6086,49.5896 100.5,48.5C 99.624,47.7492 98.624,47.2492 97.5,47C 98.0944,46.5357 98.7611,46.369 99.5,46.5 Z"/></g>
<g><path style="opacity:1" fill="#462b2f" d="M 19.5,41.5 C 19.0076,46.3236 18.341,50.9903 17.5,55.5C 17.5,54.5 17.5,53.5 17.5,52.5C 15.7975,51.9249 14.1309,51.0915 12.5,50C 13.3279,49.0853 14.3279,48.4186 15.5,48C 15.2716,47.6012 14.9382,47.4346 14.5,47.5C 15.209,46.596 16.209,46.2627 17.5,46.5C 17.5198,44.857 16.8532,43.5237 15.5,42.5C 16.6888,41.5713 18.0222,41.238 19.5,41.5 Z"/></g>
<g><path style="opacity:1" fill="#3e1914" d="M 86.5,49.5 C 86.9321,50.7095 87.5987,51.7095 88.5,52.5C 87.791,53.404 86.791,53.7373 85.5,53.5C 84.5,53.5 83.5,53.5 82.5,53.5C 82.7678,51.901 82.4345,50.5676 81.5,49.5C 81.2969,47.9557 80.6302,46.6223 79.5,45.5C 82.9203,44.2473 84.2536,45.5807 83.5,49.5C 84.5,49.5 85.5,49.5 86.5,49.5 Z"/></g>
<g><path style="opacity:1" fill="#2e1211" d="M 55.5,46.5 C 57.0618,46.7329 58.3951,47.3995 59.5,48.5C 59.5,50.5 58.5,51.5 56.5,51.5C 53.6643,51.1627 52.9976,49.8293 54.5,47.5C 54.5,46.8333 54.8333,46.5 55.5,46.5 Z"/></g>
<g><path style="opacity:1" fill="#793433" d="M 86.5,42.5 C 86.1231,44.258 85.4565,45.9246 84.5,47.5C 85.2427,48.1818 85.9094,48.8485 86.5,49.5C 85.5,49.5 84.5,49.5 83.5,49.5C 84.2536,45.5807 82.9203,44.2473 79.5,45.5C 80.6302,46.6223 81.2969,47.9557 81.5,49.5C 81.5,50.5 81.5,51.5 81.5,52.5C 80.5,52.5 79.5,52.5 78.5,52.5C 81.4065,49.5593 80.7399,47.8927 76.5,47.5C 76.366,49.2915 76.6993,50.9582 77.5,52.5C 74.9162,51.9517 73.9162,50.285 74.5,47.5C 74.2624,45.5956 73.2624,44.2623 71.5,43.5C 71.811,42.5222 72.4777,41.8555 73.5,41.5C 79.3096,44.597 80.6429,43.2636 77.5,37.5C 78.6507,36.269 79.8173,36.269 81,37.5C 81.4955,39.4727 81.6621,41.4727 81.5,43.5C 83.2161,43.3713 84.8828,43.038 86.5,42.5 Z"/></g>
<g><path style="opacity:1" fill="#86616e" d="M 78.5,52.5 C 78.1667,52.5 77.8333,52.5 77.5,52.5C 76.6993,50.9582 76.366,49.2915 76.5,47.5C 80.7399,47.8927 81.4065,49.5593 78.5,52.5 Z"/></g>
<g><path style="opacity:1" fill="#7d879c" d="M 106.5,42.5 C 104.952,42.8212 104.285,43.8212 104.5,45.5C 106.415,45.7845 108.081,45.4511 109.5,44.5C 110.376,44.3691 111.043,44.7025 111.5,45.5C 108.017,46.2993 106.017,48.4659 105.5,52C 107.243,53.1095 108.576,54.6095 109.5,56.5C 111.792,53.6466 114.458,52.9799 117.5,54.5C 114.098,54.9723 111.098,56.4723 108.5,59C 108.833,59.3333 109.167,59.6667 109.5,60C 108.717,62.1184 107.384,63.6184 105.5,64.5C 103.689,65.822 101.689,66.322 99.5,66C 101.667,64.5 103.833,63 106,61.5C 106.692,60.5632 106.525,59.8966 105.5,59.5C 104.185,57.0242 103.018,57.3576 102,60.5C 100.586,59.5868 99.0861,59.5868 97.5,60.5C 97.5,60.1667 97.5,59.8333 97.5,59.5C 97.6107,58.8826 97.944,58.3826 98.5,58C 96.9559,57.7104 95.6226,57.0437 94.5,56C 96.8409,54.5996 99.1742,54.0996 101.5,54.5C 99.556,53.1993 97.556,52.1993 95.5,51.5C 95.5,51.1667 95.5,50.8333 95.5,50.5C 95.8333,50.5 96.1667,50.5 96.5,50.5C 98.1439,50.2865 99.6439,50.6198 101,51.5C 104.491,48.7962 103.991,47.1295 99.5,46.5C 99.5,45.8333 99.8333,45.5 100.5,45.5C 101.043,45.44 101.376,45.1067 101.5,44.5C 100.833,43.8333 100.167,43.1667 99.5,42.5C 101.973,41.2031 104.307,41.2031 106.5,42.5 Z"/></g>
<g><path style="opacity:1" fill="#d6c9a7" d="M 25.5,44.5 C 25.8333,44.5 26.1667,44.5 26.5,44.5C 26.9612,46.5504 27.6279,48.5504 28.5,50.5C 26.9215,53.2496 27.2549,55.5829 29.5,57.5C 31.5567,59.0433 31.5567,60.0433 29.5,60.5C 29.1667,60.5 28.8333,60.5 28.5,60.5C 26.8333,60.5 25.1667,60.5 23.5,60.5C 23.7564,58.2075 23.4231,56.0408 22.5,54C 24.0928,51.0643 25.0928,47.8976 25.5,44.5 Z"/></g>
<g><path style="opacity:1" fill="#965c5e" d="M 60.5,51.5 C 61.8333,51.5 63.1667,51.5 64.5,51.5C 64.5,52.8333 64.5,54.1667 64.5,55.5C 63.5,55.5 62.5,55.5 61.5,55.5C 61.1193,54.0689 60.1193,53.2355 58.5,53C 59.4158,52.7216 60.0825,52.2216 60.5,51.5 Z"/></g>
<g><path style="opacity:1" fill="#9e907a" d="M 35.5,49.5 C 35.4135,53.8566 35.0802,58.19 34.5,62.5C 31.7983,65.9645 32.1316,69.2978 35.5,72.5C 35.8333,73.1667 36.1667,73.8333 36.5,74.5C 41.6405,75.4881 46.9738,75.8214 52.5,75.5C 53.391,76.1098 54.391,76.4431 55.5,76.5C 52.0654,76.4367 48.7321,76.7701 45.5,77.5C 41.7707,76.4794 38.104,76.4794 34.5,77.5C 32.8951,75.5201 31.7285,73.1868 31,70.5C 30.3744,68.2865 30.5411,66.1199 31.5,64C 31.0217,62.6974 30.355,61.5307 29.5,60.5C 31.5567,60.0433 31.5567,59.0433 29.5,57.5C 29.3379,55.4727 29.5045,53.4727 30,51.5C 31.3333,50.1667 32.6667,50.1667 34,51.5C 34.2784,50.5842 34.7784,49.9175 35.5,49.5 Z"/></g>
<g><path style="opacity:1" fill="#3c1311" d="M 45.5,50.5 C 47.7541,51.4151 49.7541,52.7484 51.5,54.5C 51.9175,55.2216 52.5842,55.7216 53.5,56C 51.4127,56.7922 49.5793,57.9588 48,59.5C 46.9359,57.7312 45.7692,56.0645 44.5,54.5C 44.8457,53.1508 45.179,51.8175 45.5,50.5 Z"/></g>
<g><path style="opacity:1" fill="#777076" d="M 95.5,51.5 C 97.556,52.1993 99.556,53.1993 101.5,54.5C 99.1742,54.0996 96.8409,54.5996 94.5,56C 95.6226,57.0437 96.9559,57.7104 98.5,58C 97.944,58.3826 97.6107,58.8826 97.5,59.5C 96.0357,60.4054 94.7024,60.4054 93.5,59.5C 93.5674,58.0413 93.2341,56.7079 92.5,55.5C 91.1667,54.5 91.1667,53.5 92.5,52.5C 93.391,51.8902 94.391,51.5569 95.5,51.5 Z"/></g>
<g><path style="opacity:1" fill="#c1ab6f" d="M 27.5,37.5 C 27.5,38.1667 27.8333,38.5 28.5,38.5C 26.9752,40.2163 25.9752,42.2163 25.5,44.5C 25.0928,47.8976 24.0928,51.0643 22.5,54C 23.4231,56.0408 23.7564,58.2075 23.5,60.5C 25.1667,60.5 26.8333,60.5 28.5,60.5C 28.2089,61.6491 27.3756,62.3158 26,62.5C 23.0069,61.7997 21.5069,59.7997 21.5,56.5C 20.2248,51.1529 20.2248,45.8195 21.5,40.5C 21.8333,40.5 22.1667,40.5 22.5,40.5C 24.0009,39.2485 25.6675,38.2485 27.5,37.5 Z"/></g>
<g><path style="opacity:1" fill="#602320" d="M 71.5,44.5 C 71.5,45.8333 71.5,47.1667 71.5,48.5C 70.5,48.1667 69.8333,47.5 69.5,46.5C 69.9382,46.5654 70.2716,46.3988 70.5,46C 69.3333,44.8333 68.1667,43.6667 67,42.5C 66.516,44.1933 67.016,45.5267 68.5,46.5C 64.247,46.566 63.5803,48.066 66.5,51C 67.5768,51.4696 68.5768,51.3029 69.5,50.5C 70.8333,50.5 72.1667,50.5 73.5,50.5C 73.2627,49.209 73.596,48.209 74.5,47.5C 73.9162,50.285 74.9162,51.9517 77.5,52.5C 77.8333,52.5 78.1667,52.5 78.5,52.5C 79.5,52.5 80.5,52.5 81.5,52.5C 81.5,51.5 81.5,50.5 81.5,49.5C 82.4345,50.5676 82.7678,51.901 82.5,53.5C 80.5316,54.819 78.5316,54.819 76.5,53.5C 75.6837,56.5467 73.6837,58.2134 70.5,58.5C 73.3056,59.1676 75.9723,59.8343 78.5,60.5C 79.9354,61.0965 81.602,61.0965 83.5,60.5C 82.2801,62.2837 82.2801,63.9504 83.5,65.5C 84.3382,65.8417 84.6716,66.5084 84.5,67.5C 85.7054,68.6857 87.0387,68.6857 88.5,67.5C 88.5,68.1667 88.5,68.8333 88.5,69.5C 88.1667,69.5 87.8333,69.5 87.5,69.5C 85.5,69.5 83.5,69.5 81.5,69.5C 81.316,67.0752 80.6493,67.0752 79.5,69.5C 79.1667,69.1667 78.8333,68.8333 78.5,68.5C 79.9501,67.1502 80.6168,65.4835 80.5,63.5C 79.1779,63.33 78.0113,63.6634 77,64.5C 76.8019,66.3817 76.3019,68.0484 75.5,69.5C 74.7113,67.4049 74.378,65.4049 74.5,63.5C 76.1368,61.8763 75.8034,60.8763 73.5,60.5C 72.8333,60.8333 72.1667,61.1667 71.5,61.5C 72.1272,62.4168 72.4606,63.4168 72.5,64.5C 72.5792,65.9305 72.2458,67.2638 71.5,68.5C 72.2427,69.1818 72.9094,69.8485 73.5,70.5C 72.5,70.5 71.5,70.5 70.5,70.5C 71.5749,66.062 69.9083,64.062 65.5,64.5C 63.437,62.551 62.1036,60.2177 61.5,57.5C 61.5,56.8333 61.5,56.1667 61.5,55.5C 62.5,55.5 63.5,55.5 64.5,55.5C 64.5,54.1667 64.5,52.8333 64.5,51.5C 63.1667,51.5 61.8333,51.5 60.5,51.5C 60.7373,50.209 60.404,49.209 59.5,48.5C 58.3951,47.3995 57.0618,46.7329 55.5,46.5C 55.8333,45.5 56.5,44.8333 57.5,44.5C 61.5154,47.5009 64.1821,46.5009 65.5,41.5C 68.089,41.461 70.089,42.461 71.5,44.5 Z"/></g>
<g><path style="opacity:1" fill="#2a1912" d="M 67.5,56.5 C 66.8333,56.5 66.1667,56.5 65.5,56.5C 66.1667,51.1667 66.8333,51.1667 67.5,56.5 Z"/></g>
<g><path style="opacity:1" fill="#7c6273" d="M 69.5,52.5 C 70.9778,52.238 72.3112,52.5713 73.5,53.5C 71.5365,56.1939 70.2032,55.8606 69.5,52.5 Z"/></g>
<g><path style="opacity:1" fill="#875562" d="M 68.5,46.5 C 68.8333,46.5 69.1667,46.5 69.5,46.5C 69.8333,47.5 70.5,48.1667 71.5,48.5C 70.8333,49.1667 70.1667,49.8333 69.5,50.5C 68.5768,51.3029 67.5768,51.4696 66.5,51C 63.5803,48.066 64.247,46.566 68.5,46.5 Z"/></g>
<g><path style="opacity:1" fill="#2c100c" d="M 69.5,46.5 C 69.1667,46.5 68.8333,46.5 68.5,46.5C 67.016,45.5267 66.516,44.1933 67,42.5C 68.1667,43.6667 69.3333,44.8333 70.5,46C 70.2716,46.3988 69.9382,46.5654 69.5,46.5 Z"/></g>
<g><path style="opacity:1" fill="#796852" d="M 88.5,52.5 C 89.5,52.5 90.5,52.5 91.5,52.5C 91.8333,52.5 92.1667,52.5 92.5,52.5C 91.1667,53.5 91.1667,54.5 92.5,55.5C 91.8333,55.5 91.1667,55.5 90.5,55.5C 89.448,55.3505 88.448,55.5172 87.5,56C 88.2524,56.6708 88.5858,57.5041 88.5,58.5C 86.4471,58.4021 84.7804,59.0687 83.5,60.5C 81.602,61.0965 79.9354,61.0965 78.5,60.5C 79.2679,59.7375 79.7679,58.7375 80,57.5C 82.5212,57.0005 84.3545,55.6672 85.5,53.5C 86.791,53.7373 87.791,53.404 88.5,52.5 Z"/></g>
<g><path style="opacity:1" fill="#8c5d62" d="M 65.5,56.5 C 66.1667,56.5 66.8333,56.5 67.5,56.5C 69.3505,57.8664 69.6838,59.533 68.5,61.5C 67.6667,60.5 66.8333,59.5 66,58.5C 65.3828,59.4491 65.5494,60.2825 66.5,61C 63.9085,61.3008 63.0752,60.1341 64,57.5C 64.3826,56.944 64.8826,56.6107 65.5,56.5 Z"/></g>
<g><path style="opacity:1" fill="#5d4a35" d="M 82.5,53.5 C 83.5,53.5 84.5,53.5 85.5,53.5C 84.3545,55.6672 82.5212,57.0005 80,57.5C 79.7679,58.7375 79.2679,59.7375 78.5,60.5C 75.9723,59.8343 73.3056,59.1676 70.5,58.5C 73.6837,58.2134 75.6837,56.5467 76.5,53.5C 78.5316,54.819 80.5316,54.819 82.5,53.5 Z"/></g>
<g><path style="opacity:1" fill="#c9d1d1" d="M 90.5,55.5 C 90.7947,57.7354 90.4614,59.7354 89.5,61.5C 89.1667,61.5 88.8333,61.5 88.5,61.5C 88.5,60.5 88.5,59.5 88.5,58.5C 88.5858,57.5041 88.2524,56.6708 87.5,56C 88.448,55.5172 89.448,55.3505 90.5,55.5 Z"/></g>
<g><path style="opacity:1" fill="#45566d" d="M 9.5,45.5 C 10.8734,45.3433 12.2068,45.51 13.5,46C 9.77406,47.0432 10.1074,47.5432 14.5,47.5C 14.9382,47.4346 15.2716,47.6012 15.5,48C 14.3279,48.4186 13.3279,49.0853 12.5,50C 14.1309,51.0915 15.7975,51.9249 17.5,52.5C 17.5,53.5 17.5,54.5 17.5,55.5C 17.405,57.7857 16.7384,59.7857 15.5,61.5C 13.8235,62.1834 13.1568,63.5168 13.5,65.5C 9.87186,68.4297 8.87186,72.0964 10.5,76.5C 11.8333,76.5 13.1667,76.5 14.5,76.5C 14.7678,78.099 14.4345,79.4324 13.5,80.5C 13.3059,78.0882 11.9726,77.0882 9.5,77.5C 9.52276,75.4004 8.85609,73.5671 7.5,72C 8.59787,69.5398 9.59787,67.0398 10.5,64.5C 10.0431,63.7025 9.37644,63.3691 8.5,63.5C 10.0603,61.8706 9.72701,60.704 7.5,60C 9.02608,58.1129 11.0261,57.1129 13.5,57C 12.1667,56.3333 12.1667,55.6667 13.5,55C 11.1581,54.1636 9.15807,52.8302 7.5,51C 10.1667,49.3333 10.1667,47.6667 7.5,46C 8.09442,45.5357 8.76109,45.369 9.5,45.5 Z"/></g>
<g><path style="opacity:1" fill="#692722" d="M 35.5,49.5 C 38.5228,51.806 41.8562,52.1393 45.5,50.5C 45.179,51.8175 44.8457,53.1508 44.5,54.5C 45.7692,56.0645 46.9359,57.7312 48,59.5C 49.5793,57.9588 51.4127,56.7922 53.5,56C 52.5842,55.7216 51.9175,55.2216 51.5,54.5C 52.7498,54.4226 53.5831,53.756 54,52.5C 54.3768,53.9423 55.2101,54.9423 56.5,55.5C 56.0291,56.9008 55.3624,58.2342 54.5,59.5C 53.2638,58.7542 51.9305,58.4208 50.5,58.5C 50.687,60.5643 51.187,62.5643 52,64.5C 52.6708,63.7476 53.5041,63.4142 54.5,63.5C 54.5,64.1667 54.5,64.8333 54.5,65.5C 53.0222,65.762 51.6888,65.4287 50.5,64.5C 45.9857,58.6933 44.319,59.6933 45.5,67.5C 44.2438,67.4614 43.2438,67.9614 42.5,69C 45.2794,69.561 47.946,70.3944 50.5,71.5C 49.5994,73.7271 47.9328,74.7271 45.5,74.5C 45.38,73.4138 44.7133,72.7472 43.5,72.5C 42.1508,72.8457 40.8175,73.179 39.5,73.5C 39.4208,72.0695 39.7542,70.7362 40.5,69.5C 38.9783,68.438 37.3117,67.7713 35.5,67.5C 35.634,65.7085 35.3007,64.0418 34.5,62.5C 35.0802,58.19 35.4135,53.8566 35.5,49.5 Z"/></g>
<g><path style="opacity:1" fill="#2f0f0e" d="M 39.5,58.5 C 39.6107,59.1174 39.944,59.6174 40.5,60C 38.7412,60.7975 37.0745,60.6309 35.5,59.5C 36.6888,58.5713 38.0222,58.238 39.5,58.5 Z"/></g>
<g><path style="opacity:1" fill="#8f5459" d="M 39.5,58.5 C 36.5323,54.7653 37.5323,52.7653 42.5,52.5C 42.6621,54.5273 42.4955,56.5273 42,58.5C 41.2303,57.4019 40.397,57.4019 39.5,58.5 Z"/></g>
<g><path style="opacity:1" fill="#814e4d" d="M 74.5,63.5 C 73.8333,63.8333 73.1667,64.1667 72.5,64.5C 72.4606,63.4168 72.1272,62.4168 71.5,61.5C 72.1667,61.1667 72.8333,60.8333 73.5,60.5C 75.8034,60.8763 76.1368,61.8763 74.5,63.5 Z"/></g>
<g><path style="opacity:1" fill="#afaf84" d="M 90.5,55.5 C 91.1667,55.5 91.8333,55.5 92.5,55.5C 93.2341,56.7079 93.5674,58.0413 93.5,59.5C 92.5655,60.5676 92.2322,61.901 92.5,63.5C 91.5,63.5 90.5,63.5 89.5,63.5C 89.5,62.8333 89.5,62.1667 89.5,61.5C 90.4614,59.7354 90.7947,57.7354 90.5,55.5 Z"/></g>
<g><path style="opacity:1" fill="#785443" d="M 93.5,59.5 C 94.7024,60.4054 96.0357,60.4054 97.5,59.5C 97.5,59.8333 97.5,60.1667 97.5,60.5C 98.1667,61.5 98.8333,62.5 99.5,63.5C 98.1667,64.1667 97.1667,65.1667 96.5,66.5C 95.4739,65.147 94.1405,64.147 92.5,63.5C 92.2322,61.901 92.5655,60.5676 93.5,59.5 Z"/></g>
<g><path style="opacity:1" fill="#78555b" d="M 105.5,59.5 C 103.5,60.8333 101.5,62.1667 99.5,63.5C 98.8333,62.5 98.1667,61.5 97.5,60.5C 99.0861,59.5868 100.586,59.5868 102,60.5C 103.018,57.3576 104.185,57.0242 105.5,59.5 Z"/></g>
<g><path style="opacity:1" fill="#622f2e" d="M 59.5,48.5 C 60.404,49.209 60.7373,50.209 60.5,51.5C 60.0825,52.2216 59.4158,52.7216 58.5,53C 60.1193,53.2355 61.1193,54.0689 61.5,55.5C 61.5,56.1667 61.5,56.8333 61.5,57.5C 59.7949,58.0881 58.1283,58.4214 56.5,58.5C 60.4307,59.6867 62.4307,62.3534 62.5,66.5C 60.8008,66.6602 59.1341,66.4935 57.5,66C 56.9221,64.583 55.9221,63.7496 54.5,63.5C 53.5041,63.4142 52.6708,63.7476 52,64.5C 51.187,62.5643 50.687,60.5643 50.5,58.5C 51.9305,58.4208 53.2638,58.7542 54.5,59.5C 55.3624,58.2342 56.0291,56.9008 56.5,55.5C 56.5,54.1667 56.5,52.8333 56.5,51.5C 58.5,51.5 59.5,50.5 59.5,48.5 Z"/></g>
<g><path style="opacity:1" fill="#7d3836" d="M 88.5,58.5 C 88.5,59.5 88.5,60.5 88.5,61.5C 88.5,63.5 88.5,65.5 88.5,67.5C 87.0387,68.6857 85.7054,68.6857 84.5,67.5C 88.0894,66.6279 88.4227,64.9613 85.5,62.5C 84.5748,63.3569 83.9081,64.3569 83.5,65.5C 82.2801,63.9504 82.2801,62.2837 83.5,60.5C 84.7804,59.0687 86.4471,58.4021 88.5,58.5 Z"/></g>
<g><path style="opacity:1" fill="#92241e" d="M 39.5,61.5 C 42.5876,61.1966 44.2542,62.5299 44.5,65.5C 41.6802,65.7525 39.0135,65.2525 36.5,64C 38.1193,63.7645 39.1193,62.9311 39.5,61.5 Z"/></g>
<g><path style="opacity:1" fill="#301312" d="M 61.5,57.5 C 62.1036,60.2177 63.437,62.551 65.5,64.5C 63.0262,67.0214 63.0262,69.5214 65.5,72C 65,72.1667 64.5,72.3333 64,72.5C 60.4778,70.5051 57.3111,68.1718 54.5,65.5C 54.5,64.8333 54.5,64.1667 54.5,63.5C 55.9221,63.7496 56.9221,64.583 57.5,66C 59.1341,66.4935 60.8008,66.6602 62.5,66.5C 62.4307,62.3534 60.4307,59.6867 56.5,58.5C 58.1283,58.4214 59.7949,58.0881 61.5,57.5 Z"/></g>
<g><path style="opacity:1" fill="#8c7c51" d="M 21.5,40.5 C 20.2248,45.8195 20.2248,51.1529 21.5,56.5C 19.2144,57.3402 18.881,58.8402 20.5,61C 17.8571,62.7359 17.8571,65.2359 20.5,68.5C 19.8333,68.5 19.1667,68.5 18.5,68.5C 17.5168,66.7088 16.1835,65.2088 14.5,64C 15.2524,63.3292 15.5858,62.4959 15.5,61.5C 16.7384,59.7857 17.405,57.7857 17.5,55.5C 18.341,50.9903 19.0076,46.3236 19.5,41.5C 20.1667,41.1667 20.8333,40.8333 21.5,40.5 Z"/></g>
<g><path style="opacity:1" fill="#57412e" d="M 34.5,62.5 C 35.3007,64.0418 35.634,65.7085 35.5,67.5C 35.5,69.1667 35.5,70.8333 35.5,72.5C 32.1316,69.2978 31.7983,65.9645 34.5,62.5 Z"/></g>
<g><path style="opacity:1" fill="#91737b" d="M 84.5,67.5 C 84.6716,66.5084 84.3382,65.8417 83.5,65.5C 83.9081,64.3569 84.5748,63.3569 85.5,62.5C 88.4227,64.9613 88.0894,66.6279 84.5,67.5 Z"/></g>
<g><path style="opacity:1" fill="#2d1714" d="M 74.5,63.5 C 74.378,65.4049 74.7113,67.4049 75.5,69.5C 75.8417,70.3382 76.5084,70.6716 77.5,70.5C 76.1667,71.8333 74.8333,71.8333 73.5,70.5C 72.9094,69.8485 72.2427,69.1818 71.5,68.5C 72.2458,67.2638 72.5792,65.9305 72.5,64.5C 73.1667,64.1667 73.8333,63.8333 74.5,63.5 Z"/></g>
<g><path style="opacity:1" fill="#978644" d="M 89.5,63.5 C 90.5,63.5 91.5,63.5 92.5,63.5C 94.1405,64.147 95.4739,65.147 96.5,66.5C 97.1667,67.1667 97.8333,67.8333 98.5,68.5C 98.5,68.8333 98.5,69.1667 98.5,69.5C 97.0652,70.9133 96.0652,72.58 95.5,74.5C 94.8394,71.1869 93.0061,68.5203 90,66.5C 89.5172,65.552 89.3505,64.552 89.5,63.5 Z"/></g>
<g><path style="opacity:1" fill="#5e738c" d="M 7.5,43.5 C 8.16667,44.1667 8.83333,44.8333 9.5,45.5C 8.76109,45.369 8.09442,45.5357 7.5,46C 10.1667,47.6667 10.1667,49.3333 7.5,51C 9.15807,52.8302 11.1581,54.1636 13.5,55C 12.1667,55.6667 12.1667,56.3333 13.5,57C 11.0261,57.1129 9.02608,58.1129 7.5,60C 9.72701,60.704 10.0603,61.8706 8.5,63.5C 8.63101,64.2389 8.46434,64.9056 8,65.5C 5.60908,64.3975 5.10908,65.0642 6.5,67.5C 5.31471,68.853 3.98138,70.0197 2.5,71C 3.16667,73 3.83333,75 4.5,77C 3.44774,78.7165 4.11441,79.7165 6.5,80C 5.59391,81.6995 5.26057,83.5328 5.5,85.5C 3.43525,85.5172 1.43525,85.8505 -0.5,86.5C -0.5,77.1667 -0.5,67.8333 -0.5,58.5C 2.48669,58.5777 3.15336,57.411 1.5,55C 2.70728,53.6998 3.37394,52.1998 3.5,50.5C 6.5983,50.5875 6.93163,50.0875 4.5,49C 4.88004,46.6742 5.88004,44.8409 7.5,43.5 Z"/></g>
<g><path style="opacity:1" fill="#857781" d="M 105.5,59.5 C 106.525,59.8966 106.692,60.5632 106,61.5C 103.833,63 101.667,64.5 99.5,66C 101.689,66.322 103.689,65.822 105.5,64.5C 105.063,66.0744 104.063,67.2411 102.5,68C 105.293,66.9182 108.293,66.5849 111.5,67C 107.691,67.9742 105.024,69.6408 103.5,72C 106.032,72.6189 108.365,73.6189 110.5,75C 107.78,75.0448 105.114,74.5448 102.5,73.5C 104.161,69.9184 102.827,68.2518 98.5,68.5C 97.8333,67.8333 97.1667,67.1667 96.5,66.5C 97.1667,65.1667 98.1667,64.1667 99.5,63.5C 101.5,62.1667 103.5,60.8333 105.5,59.5 Z"/></g>
<g><path style="opacity:1" fill="#8495ac" d="M 117.5,54.5 C 118.167,54.5 118.833,54.5 119.5,54.5C 119.5,63.8333 119.5,73.1667 119.5,82.5C 117.014,84.4643 114.181,85.7976 111,86.5C 109.334,85.6598 109.167,86.1598 110.5,88C 109.906,88.4643 109.239,88.631 108.5,88.5C 105.368,86.7969 103.701,84.1302 103.5,80.5C 105.05,81.4408 106.716,82.1075 108.5,82.5C 110.524,84.8814 112.857,85.0481 115.5,83C 113.866,82.5065 112.199,82.3398 110.5,82.5C 110.33,81.1779 110.663,80.0113 111.5,79C 108.392,77.2415 105.059,76.4081 101.5,76.5C 100.115,75.0527 100.448,74.0527 102.5,73.5C 105.114,74.5448 107.78,75.0448 110.5,75C 108.365,73.6189 106.032,72.6189 103.5,72C 105.024,69.6408 107.691,67.9742 111.5,67C 108.293,66.5849 105.293,66.9182 102.5,68C 104.063,67.2411 105.063,66.0744 105.5,64.5C 107.384,63.6184 108.717,62.1184 109.5,60C 109.167,59.6667 108.833,59.3333 108.5,59C 111.098,56.4723 114.098,54.9723 117.5,54.5 Z"/></g>
<g><path style="opacity:1" fill="#532c10" d="M 18.5,68.5 C 19.1667,68.5 19.8333,68.5 20.5,68.5C 20.8333,69.1667 21.1667,69.8333 21.5,70.5C 19.9731,70.573 18.9731,69.9063 18.5,68.5 Z"/></g>
<g><path style="opacity:1" fill="#311612" d="M 45.5,67.5 C 48.0618,69.4134 50.3952,69.4134 52.5,67.5C 56.2632,69.0169 56.2632,70.6836 52.5,72.5C 52.1583,71.6618 51.4916,71.3284 50.5,71.5C 47.946,70.3944 45.2794,69.561 42.5,69C 43.2438,67.9614 44.2438,67.4614 45.5,67.5 Z"/></g>
<g><path style="opacity:1" fill="#723f3c" d="M 81.5,69.5 C 80.4324,70.4345 79.099,70.7678 77.5,70.5C 76.5084,70.6716 75.8417,70.3382 75.5,69.5C 76.3019,68.0484 76.8019,66.3817 77,64.5C 78.0113,63.6634 79.1779,63.33 80.5,63.5C 80.6168,65.4835 79.9501,67.1502 78.5,68.5C 78.8333,68.8333 79.1667,69.1667 79.5,69.5C 80.6493,67.0752 81.316,67.0752 81.5,69.5 Z"/></g>
<g><path style="opacity:1" fill="#3c1913" d="M 35.5,67.5 C 37.3117,67.7713 38.9783,68.438 40.5,69.5C 39.7542,70.7362 39.4208,72.0695 39.5,73.5C 38.1667,73.1667 36.8333,72.8333 35.5,72.5C 35.5,70.8333 35.5,69.1667 35.5,67.5 Z"/></g>
<g><path style="opacity:1" fill="#c4b288" d="M 21.5,56.5 C 21.5069,59.7997 23.0069,61.7997 26,62.5C 27.3756,62.3158 28.2089,61.6491 28.5,60.5C 28.8333,60.5 29.1667,60.5 29.5,60.5C 30.355,61.5307 31.0217,62.6974 31.5,64C 30.5411,66.1199 30.3744,68.2865 31,70.5C 31.7285,73.1868 32.8951,75.5201 34.5,77.5C 34.5,78.8333 34.5,80.1667 34.5,81.5C 31.0797,78.2491 28.0797,74.5825 25.5,70.5C 23.9783,69.438 22.3117,68.7713 20.5,68.5C 17.8571,65.2359 17.8571,62.7359 20.5,61C 18.881,58.8402 19.2144,57.3402 21.5,56.5 Z"/></g>
<g><path style="opacity:1" fill="#68342c" d="M 54.5,65.5 C 57.3111,68.1718 60.4778,70.5051 64,72.5C 64.5,72.3333 65,72.1667 65.5,72C 63.0262,69.5214 63.0262,67.0214 65.5,64.5C 69.9083,64.062 71.5749,66.062 70.5,70.5C 71.5,70.5 72.5,70.5 73.5,70.5C 74.8333,71.8333 76.1667,71.8333 77.5,70.5C 79.099,70.7678 80.4324,70.4345 81.5,69.5C 83.5,69.5 85.5,69.5 87.5,69.5C 83.2961,71.3002 78.9628,72.6336 74.5,73.5C 73.8333,74.1667 73.1667,74.8333 72.5,75.5C 67.6556,74.7826 62.9889,74.7826 58.5,75.5C 58.5,75.8333 58.5,76.1667 58.5,76.5C 57.5,76.5 56.5,76.5 55.5,76.5C 54.391,76.4431 53.391,76.1098 52.5,75.5C 52.5,74.5 52.5,73.5 52.5,72.5C 56.2632,70.6836 56.2632,69.0169 52.5,67.5C 50.3952,69.4134 48.0618,69.4134 45.5,67.5C 44.319,59.6933 45.9857,58.6933 50.5,64.5C 51.6888,65.4287 53.0222,65.762 54.5,65.5 Z"/></g>
<g><path style="opacity:1" fill="#6c472d" d="M 88.5,61.5 C 88.8333,61.5 89.1667,61.5 89.5,61.5C 89.5,62.1667 89.5,62.8333 89.5,63.5C 89.3505,64.552 89.5172,65.552 90,66.5C 93.0061,68.5203 94.8394,71.1869 95.5,74.5C 94.8999,75.9002 93.8999,76.9002 92.5,77.5C 92.4348,75.3043 91.7681,73.3043 90.5,71.5C 89.914,71.7093 89.414,72.0426 89,72.5C 89.1085,71.2312 88.9418,70.2312 88.5,69.5C 88.5,68.8333 88.5,68.1667 88.5,67.5C 88.5,65.5 88.5,63.5 88.5,61.5 Z"/></g>
<g><path style="opacity:1" fill="#8a6940" d="M 98.5,69.5 C 99.4972,69.4701 100.164,69.9701 100.5,71C 99.2808,73.384 99.2808,75.7174 100.5,78C 99.5842,78.2784 98.9175,78.7784 98.5,79.5C 98.1667,79.5 97.8333,79.5 97.5,79.5C 97.6203,76.5198 98.287,73.6865 99.5,71C 98.944,70.6174 98.6107,70.1174 98.5,69.5 Z"/></g>
<g><path style="opacity:1" fill="#74584a" d="M 87.5,69.5 C 87.8333,69.5 88.1667,69.5 88.5,69.5C 88.9418,70.2312 89.1085,71.2312 89,72.5C 89.414,72.0426 89.914,71.7093 90.5,71.5C 91.7681,73.3043 92.4348,75.3043 92.5,77.5C 92.5,78.1667 92.5,78.8333 92.5,79.5C 92.1667,79.5 91.8333,79.5 91.5,79.5C 90.7659,78.2921 90.4326,76.9587 90.5,75.5C 85.3533,75.1498 80.02,74.4831 74.5,73.5C 78.9628,72.6336 83.2961,71.3002 87.5,69.5 Z"/></g>
<g><path style="opacity:1" fill="#a5a06a" d="M 98.5,69.5 C 98.6107,70.1174 98.944,70.6174 99.5,71C 98.287,73.6865 97.6203,76.5198 97.5,79.5C 95.5393,80.4602 93.8726,81.7935 92.5,83.5C 91.0331,84.2916 89.6998,84.2916 88.5,83.5C 90.188,82.4787 91.5213,81.1454 92.5,79.5C 95.0838,78.9517 96.0838,77.285 95.5,74.5C 96.0652,72.58 97.0652,70.9133 98.5,69.5 Z"/></g>
<g><path style="opacity:1" fill="#613d31" d="M 35.5,72.5 C 36.8333,72.8333 38.1667,73.1667 39.5,73.5C 40.8175,73.179 42.1508,72.8457 43.5,72.5C 44.7133,72.7472 45.38,73.4138 45.5,74.5C 42.5,74.5 39.5,74.5 36.5,74.5C 36.1667,73.8333 35.8333,73.1667 35.5,72.5 Z"/></g>
<g><path style="opacity:1" fill="#786556" d="M 50.5,71.5 C 51.4916,71.3284 52.1583,71.6618 52.5,72.5C 52.5,73.5 52.5,74.5 52.5,75.5C 46.9738,75.8214 41.6405,75.4881 36.5,74.5C 39.5,74.5 42.5,74.5 45.5,74.5C 47.9328,74.7271 49.5994,73.7271 50.5,71.5 Z"/></g>
<g><path style="opacity:1" fill="#866e58" d="M 58.5,75.5 C 62.9889,74.7826 67.6556,74.7826 72.5,75.5C 68.0019,76.3754 63.3353,76.3754 58.5,75.5 Z"/></g>
<g><path style="opacity:1" fill="#292328" d="M 15.5,61.5 C 15.5858,62.4959 15.2524,63.3292 14.5,64C 16.1835,65.2088 17.5168,66.7088 18.5,68.5C 18.9731,69.9063 19.9731,70.573 21.5,70.5C 22.379,72.228 23.0457,74.0614 23.5,76C 23.4148,77.1074 23.0814,78.1074 22.5,79C 23.7376,78.9227 24.7376,79.0894 25.5,79.5C 22.7366,81.5964 20.4033,83.9298 18.5,86.5C 17.548,85.548 16.548,84.548 15.5,83.5C 16.5,82.8333 17.5,82.1667 18.5,81.5C 16.6975,80.4061 16.3641,78.7394 17.5,76.5C 17.6102,74.626 16.9436,73.126 15.5,72C 17.0598,69.059 16.3932,66.8923 13.5,65.5C 13.1568,63.5168 13.8235,62.1834 15.5,61.5 Z"/></g>
<g><path style="opacity:1" fill="#83605b" d="M 98.5,69.5 C 98.5,69.1667 98.5,68.8333 98.5,68.5C 102.827,68.2518 104.161,69.9184 102.5,73.5C 100.448,74.0527 100.115,75.0527 101.5,76.5C 102.723,78.772 104.723,79.9386 107.5,80C 108.252,80.6708 108.586,81.5041 108.5,82.5C 106.716,82.1075 105.05,81.4408 103.5,80.5C 101.883,79.962 100.216,79.6287 98.5,79.5C 98.9175,78.7784 99.5842,78.2784 100.5,78C 99.2808,75.7174 99.2808,73.384 100.5,71C 100.164,69.9701 99.4972,69.4701 98.5,69.5 Z"/></g>
<g><path style="opacity:1" fill="#8f7932" d="M 95.5,74.5 C 96.0838,77.285 95.0838,78.9517 92.5,79.5C 92.5,78.8333 92.5,78.1667 92.5,77.5C 93.8999,76.9002 94.8999,75.9002 95.5,74.5 Z"/></g>
<g><path style="opacity:1" fill="#807584" d="M 101.5,76.5 C 105.059,76.4081 108.392,77.2415 111.5,79C 110.663,80.0113 110.33,81.1779 110.5,82.5C 112.199,82.3398 113.866,82.5065 115.5,83C 112.857,85.0481 110.524,84.8814 108.5,82.5C 108.586,81.5041 108.252,80.6708 107.5,80C 104.723,79.9386 102.723,78.772 101.5,76.5 Z"/></g>
<g><path style="opacity:1" fill="#55677c" d="M 8.5,63.5 C 9.37644,63.3691 10.0431,63.7025 10.5,64.5C 9.59787,67.0398 8.59787,69.5398 7.5,72C 8.85609,73.5671 9.52276,75.4004 9.5,77.5C 11.9726,77.0882 13.3059,78.0882 13.5,80.5C 13.7802,84.3847 15.6135,87.3847 19,89.5C 19.49,90.7932 19.6567,92.1266 19.5,93.5C 20.3799,95.3888 20.3799,97.3888 19.5,99.5C 20.9305,99.4208 22.2638,99.7542 23.5,100.5C 26.5105,103.012 29.3439,105.678 32,108.5C 34.7632,105.712 37.0966,106.045 39,109.5C 39.6891,108.643 40.5224,107.977 41.5,107.5C 44.0959,108.949 46.7626,109.949 49.5,110.5C 45.3703,111.432 41.3703,112.765 37.5,114.5C 37.5,113.167 37.5,111.833 37.5,110.5C 34.1825,111.221 30.8492,111.388 27.5,111C 28.9561,110.577 29.4561,109.744 29,108.5C 27.9887,109.337 26.8221,109.67 25.5,109.5C 25.6198,106.795 24.6198,106.128 22.5,107.5C 21.5601,104.61 19.8934,102.277 17.5,100.5C 18.4279,99.2322 18.5946,97.8989 18,96.5C 12.2814,92.9521 10.4481,87.9521 12.5,81.5C 9.43039,82.2429 7.76373,84.2429 7.5,87.5C 7.16667,87.5 6.83333,87.5 6.5,87.5C 6.67158,86.5084 6.33825,85.8417 5.5,85.5C 5.26057,83.5328 5.59391,81.6995 6.5,80C 4.11441,79.7165 3.44774,78.7165 4.5,77C 3.83333,75 3.16667,73 2.5,71C 3.98138,70.0197 5.31471,68.853 6.5,67.5C 5.10908,65.0642 5.60908,64.3975 8,65.5C 8.46434,64.9056 8.63101,64.2389 8.5,63.5 Z"/></g>
<g><path style="opacity:1" fill="#c8c1b1" d="M 55.5,76.5 C 56.5,76.5 57.5,76.5 58.5,76.5C 61.7861,77.2071 65.1194,77.5405 68.5,77.5C 68.1667,80.1667 67.8333,82.8333 67.5,85.5C 62.1667,85.8333 56.8333,86.1667 51.5,86.5C 51.4802,84.857 52.1468,83.5237 53.5,82.5C 50.9428,81.4659 49.6095,82.4659 49.5,85.5C 47.4727,85.6621 45.4727,85.4955 43.5,85C 42.6198,83.6439 42.2865,82.1439 42.5,80.5C 43.5,80.5 44.5,80.5 45.5,80.5C 45.5,79.5 45.5,78.5 45.5,77.5C 48.7321,76.7701 52.0654,76.4367 55.5,76.5 Z"/></g>
<g><path style="opacity:1" fill="#948778" d="M 74.5,73.5 C 80.02,74.4831 85.3533,75.1498 90.5,75.5C 90.4326,76.9587 90.7659,78.2921 91.5,79.5C 89.3295,81.0862 86.9962,82.4196 84.5,83.5C 80.1308,82.5825 75.7974,82.4158 71.5,83C 70.1667,82.3333 70.1667,81.6667 71.5,81C 73.1667,80.6667 74.8333,80.3333 76.5,80C 74.3909,79.0934 73.0576,77.5934 72.5,75.5C 73.1667,74.8333 73.8333,74.1667 74.5,73.5 Z"/></g>
<g><path style="opacity:1" fill="#786e79" d="M 97.5,79.5 C 97.8333,79.5 98.1667,79.5 98.5,79.5C 100.216,79.6287 101.883,79.962 103.5,80.5C 103.701,84.1302 105.368,86.7969 108.5,88.5C 108.833,89.5 109.5,90.1667 110.5,90.5C 110.631,91.2389 110.464,91.9056 110,92.5C 107.021,90.3555 104.188,88.0222 101.5,85.5C 101.167,86 100.833,86.5 100.5,87C 101.662,90.1469 102.662,93.3136 103.5,96.5C 101.54,93.8234 100.04,90.8234 99,87.5C 98.5182,90.9066 98.5182,94.24 99,97.5C 97.4263,96.0158 96.093,94.3492 95,92.5C 94.8078,94.5767 94.3078,96.5767 93.5,98.5C 92.7348,99.6119 91.7348,100.279 90.5,100.5C 92.0755,97.3464 93.0755,94.0131 93.5,90.5C 94.3019,89.0484 94.8019,87.3817 95,85.5C 95.3333,86.5 95.6667,87.5 96,88.5C 96.3333,86.8333 96.6667,85.1667 97,83.5C 97.9138,84.6537 98.7471,84.487 99.5,83C 98.1772,82.1841 97.5106,81.0174 97.5,79.5 Z"/></g>
<g><path style="opacity:1" fill="#442323" d="M 21.5,70.5 C 22.4584,70.9528 23.2917,71.6195 24,72.5C 25.0472,75.8807 26.5472,79.0474 28.5,82C 30.4927,83.6207 32.4927,85.2873 34.5,87C 37.4757,87.7048 40.1423,88.8714 42.5,90.5C 42.5,90.8333 42.5,91.1667 42.5,91.5C 36.6121,97.6334 34.1121,96.6334 35,88.5C 33.3264,90.0093 31.6597,90.6759 30,90.5C 29.3828,89.5509 29.5494,88.7175 30.5,88C 28.3037,84.9336 25.9704,84.7669 23.5,87.5C 23.4802,85.857 24.1468,84.5237 25.5,83.5C 25.1667,83.1667 24.8333,82.8333 24.5,82.5C 22.7541,84.2516 20.7541,85.5849 18.5,86.5C 20.4033,83.9298 22.7366,81.5964 25.5,79.5C 24.7376,79.0894 23.7376,78.9227 22.5,79C 23.0814,78.1074 23.4148,77.1074 23.5,76C 23.0457,74.0614 22.379,72.228 21.5,70.5 Z"/></g>
<g><path style="opacity:1" fill="#b1a798" d="M 58.5,76.5 C 58.5,76.1667 58.5,75.8333 58.5,75.5C 63.3353,76.3754 68.0019,76.3754 72.5,75.5C 73.0576,77.5934 74.3909,79.0934 76.5,80C 74.8333,80.3333 73.1667,80.6667 71.5,81C 70.1667,81.6667 70.1667,82.3333 71.5,83C 75.7974,82.4158 80.1308,82.5825 84.5,83.5C 82.0521,85.2837 79.3855,86.6171 76.5,87.5C 73.8877,88.3705 71.221,89.0372 68.5,89.5C 69.0283,88.2794 69.695,87.1127 70.5,86C 69.552,85.5172 68.552,85.3505 67.5,85.5C 67.8333,82.8333 68.1667,80.1667 68.5,77.5C 65.1194,77.5405 61.7861,77.2071 58.5,76.5 Z"/></g>
<g><path style="opacity:1" fill="#694f40" d="M 97.5,79.5 C 97.5106,81.0174 98.1772,82.1841 99.5,83C 98.7471,84.487 97.9138,84.6537 97,83.5C 96.6667,85.1667 96.3333,86.8333 96,88.5C 95.6667,87.5 95.3333,86.5 95,85.5C 94.8019,87.3817 94.3019,89.0484 93.5,90.5C 93.6495,89.448 93.4828,88.448 93,87.5C 92.5526,93.9892 91.5526,93.9892 90,87.5C 89.5604,89.8659 89.0604,92.1992 88.5,94.5C 87.5386,92.7354 87.2053,90.7354 87.5,88.5C 86.5,88.5 85.5,88.5 84.5,88.5C 87.4526,87.3097 90.1193,85.643 92.5,83.5C 93.8726,81.7935 95.5393,80.4602 97.5,79.5 Z"/></g>
<g><path style="opacity:1" fill="#c0b6a2" d="M 45.5,77.5 C 45.5,78.5 45.5,79.5 45.5,80.5C 44.5,80.5 43.5,80.5 42.5,80.5C 42.2865,82.1439 42.6198,83.6439 43.5,85C 45.4727,85.4955 47.4727,85.6621 49.5,85.5C 49.6095,82.4659 50.9428,81.4659 53.5,82.5C 52.1468,83.5237 51.4802,84.857 51.5,86.5C 56.8333,86.1667 62.1667,85.8333 67.5,85.5C 68.552,85.3505 69.552,85.5172 70.5,86C 69.695,87.1127 69.0283,88.2794 68.5,89.5C 66.8333,89.5 65.1667,89.5 63.5,89.5C 52.7064,90.4954 43.0397,87.8287 34.5,81.5C 34.5,80.1667 34.5,78.8333 34.5,77.5C 38.104,76.4794 41.7707,76.4794 45.5,77.5 Z"/></g>
<g><path style="opacity:1" fill="#ab945e" d="M 20.5,68.5 C 22.3117,68.7713 23.9783,69.438 25.5,70.5C 28.0797,74.5825 31.0797,78.2491 34.5,81.5C 43.0397,87.8287 52.7064,90.4954 63.5,89.5C 61.0314,90.3171 58.3647,90.8171 55.5,91C 63.4468,92.0329 71.1134,91.0329 78.5,88C 77.9056,87.5357 77.2389,87.369 76.5,87.5C 79.3855,86.6171 82.0521,85.2837 84.5,83.5C 86.9962,82.4196 89.3295,81.0862 91.5,79.5C 91.8333,79.5 92.1667,79.5 92.5,79.5C 91.5213,81.1454 90.188,82.4787 88.5,83.5C 89.6998,84.2916 91.0331,84.2916 92.5,83.5C 90.1193,85.643 87.4526,87.3097 84.5,88.5C 82.5,89.5 80.5,90.5 78.5,91.5C 74.3164,91.8509 70.3164,92.5176 66.5,93.5C 58.4247,93.1303 50.4247,92.1303 42.5,90.5C 40.1423,88.8714 37.4757,87.7048 34.5,87C 32.4927,85.2873 30.4927,83.6207 28.5,82C 26.5472,79.0474 25.0472,75.8807 24,72.5C 23.2917,71.6195 22.4584,70.9528 21.5,70.5C 21.1667,69.8333 20.8333,69.1667 20.5,68.5 Z"/></g>
<g><path style="opacity:1" fill="#a58444" d="M 76.5,87.5 C 77.2389,87.369 77.9056,87.5357 78.5,88C 71.1134,91.0329 63.4468,92.0329 55.5,91C 58.3647,90.8171 61.0314,90.3171 63.5,89.5C 65.1667,89.5 66.8333,89.5 68.5,89.5C 71.221,89.0372 73.8877,88.3705 76.5,87.5 Z"/></g>
<g><path style="opacity:1" fill="#899bb3" d="M 119.5,82.5 C 119.5,87.5 119.5,92.5 119.5,97.5C 116.066,96.0458 113.733,97.2124 112.5,101C 113.381,101.708 114.047,102.542 114.5,103.5C 109.202,103.231 107.869,100.898 110.5,96.5C 107.567,94.2619 107.901,93.2619 111.5,93.5C 111.737,92.209 111.404,91.209 110.5,90.5C 109.5,90.1667 108.833,89.5 108.5,88.5C 109.239,88.631 109.906,88.4643 110.5,88C 109.167,86.1598 109.334,85.6598 111,86.5C 114.181,85.7976 117.014,84.4643 119.5,82.5 Z"/></g>
<g><path style="opacity:1" fill="#667e98" d="M 5.5,85.5 C 6.33825,85.8417 6.67158,86.5084 6.5,87.5C 6.92342,88.2646 7.25675,89.0979 7.5,90C 7.10812,91.0105 6.44145,91.5105 5.5,91.5C 8.04434,92.9374 8.04434,94.4374 5.5,96C 7.39593,97.8083 7.89593,99.975 7,102.5C 6.61742,101.944 6.11742,101.611 5.5,101.5C 4.85013,101.196 4.18346,100.863 3.5,100.5C 2.35782,101.826 1.02449,102.826 -0.5,103.5C -0.5,97.8333 -0.5,92.1667 -0.5,86.5C 1.43525,85.8505 3.43525,85.5172 5.5,85.5 Z"/></g>
<g><path style="opacity:1" fill="#8f6746" d="M 42.5,91.5 C 42.5,91.1667 42.5,90.8333 42.5,90.5C 50.4247,92.1303 58.4247,93.1303 66.5,93.5C 58.8152,94.6479 51.1485,93.9813 43.5,91.5C 43.1667,91.5 42.8333,91.5 42.5,91.5 Z"/></g>
<g><path style="opacity:1" fill="#323e4b" d="M 13.5,65.5 C 16.3932,66.8923 17.0598,69.059 15.5,72C 16.9436,73.126 17.6102,74.626 17.5,76.5C 16.3641,78.7394 16.6975,80.4061 18.5,81.5C 17.5,82.1667 16.5,82.8333 15.5,83.5C 16.548,84.548 17.548,85.548 18.5,86.5C 20.7541,85.5849 22.7541,84.2516 24.5,82.5C 24.8333,82.8333 25.1667,83.1667 25.5,83.5C 24.1468,84.5237 23.4802,85.857 23.5,87.5C 23.3433,88.8734 23.51,90.2068 24,91.5C 24.6543,90.3044 25.1543,90.3044 25.5,91.5C 24.9598,92.7481 24.2931,93.9148 23.5,95C 24.0944,95.4643 24.7611,95.631 25.5,95.5C 27.5136,97.1829 29.1802,99.1829 30.5,101.5C 28.712,101.785 27.0453,101.452 25.5,100.5C 23.172,98.3207 21.172,95.9874 19.5,93.5C 19.6567,92.1266 19.49,90.7932 19,89.5C 15.6135,87.3847 13.7802,84.3847 13.5,80.5C 14.4345,79.4324 14.7678,78.099 14.5,76.5C 13.1667,76.5 11.8333,76.5 10.5,76.5C 8.87186,72.0964 9.87186,68.4297 13.5,65.5 Z"/></g>
<g><path style="opacity:1" fill="#5c4f54" d="M 93.5,90.5 C 93.0755,94.0131 92.0755,97.3464 90.5,100.5C 90.5,100.833 90.5,101.167 90.5,101.5C 89.8333,101.167 89.1667,100.833 88.5,100.5C 89.8333,98.5 89.8333,96.5 88.5,94.5C 89.0604,92.1992 89.5604,89.8659 90,87.5C 91.5526,93.9892 92.5526,93.9892 93,87.5C 93.4828,88.448 93.6495,89.448 93.5,90.5 Z"/></g>
<g><path style="opacity:1" fill="#201b1e" d="M 42.5,91.5 C 42.8333,91.5 43.1667,91.5 43.5,91.5C 42.1667,94.8333 40.8333,98.1667 39.5,101.5C 37.1315,100.313 34.7981,98.9795 32.5,97.5C 31.914,97.7093 31.414,98.0426 31,98.5C 30.3333,97.1667 29.6667,95.8333 29,94.5C 27.7913,94.6526 26.6246,94.9859 25.5,95.5C 24.7611,95.631 24.0944,95.4643 23.5,95C 24.2931,93.9148 24.9598,92.7481 25.5,91.5C 25.1543,90.3044 24.6543,90.3044 24,91.5C 23.51,90.2068 23.3433,88.8734 23.5,87.5C 25.9704,84.7669 28.3037,84.9336 30.5,88C 29.5494,88.7175 29.3828,89.5509 30,90.5C 31.6597,90.6759 33.3264,90.0093 35,88.5C 34.1121,96.6334 36.6121,97.6334 42.5,91.5 Z"/></g>
<g><path style="opacity:1" fill="#593f3b" d="M 84.5,88.5 C 85.5,88.5 86.5,88.5 87.5,88.5C 87.2053,90.7354 87.5386,92.7354 88.5,94.5C 89.8333,96.5 89.8333,98.5 88.5,100.5C 87.9373,98.6805 86.7706,97.3471 85,96.5C 83.0948,98.4229 81.9281,100.756 81.5,103.5C 81.0461,101.741 81.0461,99.7411 81.5,97.5C 81.6138,94.784 80.6138,92.784 78.5,91.5C 80.5,90.5 82.5,89.5 84.5,88.5 Z"/></g>
<g><path style="opacity:1" fill="#808a9b" d="M 103.5,96.5 C 104.097,96.7352 104.43,97.2352 104.5,98C 103.456,99.1739 102.456,100.341 101.5,101.5C 100.178,101.67 99.0113,101.337 98,100.5C 96.786,102.049 95.286,103.215 93.5,104C 91.98,105.885 90.98,108.051 90.5,110.5C 89.1667,110.833 87.8333,111.167 86.5,111.5C 86.9767,112.478 87.6433,113.311 88.5,114C 86.5313,115.571 84.5313,115.404 82.5,113.5C 83.1667,112.833 83.8333,112.167 84.5,111.5C 83.9984,110.479 83.3317,110.312 82.5,111C 81.5871,113.333 80.0871,115.166 78,116.5C 77.5172,117.448 77.3505,118.448 77.5,119.5C 75.8333,119.5 74.1667,119.5 72.5,119.5C 72.3789,115.968 73.7122,113.134 76.5,111C 76.1667,110.667 75.8333,110.333 75.5,110C 76.4162,109.626 77.2496,109.126 78,108.5C 79.3468,112.375 80.5135,112.375 81.5,108.5C 82.451,109.326 83.451,109.492 84.5,109C 85.9847,105.417 87.9847,102.917 90.5,101.5C 90.5,101.167 90.5,100.833 90.5,100.5C 91.7348,100.279 92.7348,99.6119 93.5,98.5C 94.3078,96.5767 94.8078,94.5767 95,92.5C 96.093,94.3492 97.4263,96.0158 99,97.5C 98.5182,94.24 98.5182,90.9066 99,87.5C 100.04,90.8234 101.54,93.8234 103.5,96.5 Z"/></g>
<g><path style="opacity:1" fill="#627993" d="M 6.5,87.5 C 6.83333,87.5 7.16667,87.5 7.5,87.5C 8.5,87.5 9.5,87.5 10.5,87.5C 10.106,91.2242 10.7727,94.7242 12.5,98C 11.2927,99.3002 10.6261,100.8 10.5,102.5C 15.8186,101.543 16.8186,103.043 13.5,107C 15.9096,107.6 17.9096,108.766 19.5,110.5C 19.5,112.167 19.5,113.833 19.5,115.5C 18.1667,115.5 16.8333,115.5 15.5,115.5C 14.6364,115.298 13.6364,114.964 12.5,114.5C 16.3163,109.819 15.8163,109.486 11,113.5C 8.64936,112.286 6.14936,111.452 3.5,111C 4.83333,110.667 6.16667,110.333 7.5,110C 6.69194,109.692 6.02527,109.192 5.5,108.5C 6.39656,108.331 7.39656,107.998 8.5,107.5C 7.62988,105.374 6.62988,103.374 5.5,101.5C 6.11742,101.611 6.61742,101.944 7,102.5C 7.89593,99.975 7.39593,97.8083 5.5,96C 8.04434,94.4374 8.04434,92.9374 5.5,91.5C 6.44145,91.5105 7.10812,91.0105 7.5,90C 7.25675,89.0979 6.92342,88.2646 6.5,87.5 Z"/></g>
<g><path style="opacity:1" fill="#515762" d="M 19.5,93.5 C 21.172,95.9874 23.172,98.3207 25.5,100.5C 27.0453,101.452 28.712,101.785 30.5,101.5C 31.1667,101.5 31.8333,101.5 32.5,101.5C 32.4142,102.496 32.7476,103.329 33.5,104C 37.9018,105.908 42.5684,106.741 47.5,106.5C 52.0646,105.929 56.5646,105.929 61,106.5C 62.4191,105.079 64.0858,104.079 66,103.5C 66.9454,103.905 67.6121,104.572 68,105.5C 68.4643,104.906 68.631,104.239 68.5,103.5C 70.7718,102.073 72.9385,100.406 75,98.5C 76.0437,99.6226 76.7104,100.956 77,102.5C 77.3589,99.4557 78.0255,99.1224 79,101.5C 79.9344,100.142 80.7677,98.8083 81.5,97.5C 81.0461,99.7411 81.0461,101.741 81.5,103.5C 80.8106,104.774 79.9772,104.774 79,103.5C 78.7071,106.954 77.3738,107.288 75,104.5C 74.1475,106.125 73.1475,106.458 72,105.5C 71.5172,106.448 71.3505,107.448 71.5,108.5C 64.4283,106.56 57.0949,107.227 49.5,110.5C 46.7626,109.949 44.0959,108.949 41.5,107.5C 40.5224,107.977 39.6891,108.643 39,109.5C 37.0966,106.045 34.7632,105.712 32,108.5C 29.3439,105.678 26.5105,103.012 23.5,100.5C 22.2638,99.7542 20.9305,99.4208 19.5,99.5C 20.3799,97.3888 20.3799,95.3888 19.5,93.5 Z"/></g>
<g><path style="opacity:1" fill="#402827" d="M 43.5,91.5 C 51.1485,93.9813 58.8152,94.6479 66.5,93.5C 70.3164,92.5176 74.3164,91.8509 78.5,91.5C 80.6138,92.784 81.6138,94.784 81.5,97.5C 80.7677,98.8083 79.9344,100.142 79,101.5C 78.0255,99.1224 77.3589,99.4557 77,102.5C 76.7104,100.956 76.0437,99.6226 75,98.5C 72.9385,100.406 70.7718,102.073 68.5,103.5C 68.6641,100.813 68.4974,98.146 68,95.5C 66.7604,98.412 65.0937,101.079 63,103.5C 61.5944,102.332 60.4277,102.665 59.5,104.5C 57.2406,104.216 55.5739,103.216 54.5,101.5C 54.6602,99.8008 54.4935,98.1341 54,96.5C 52.4866,99.5244 50.4866,102.191 48,104.5C 47.5,104 47,103.5 46.5,103C 48.6609,100.851 49.8276,98.3513 50,95.5C 48.3333,97.8333 46.6667,100.167 45,102.5C 44.8516,100.095 45.3516,97.7613 46.5,95.5C 46.1667,94.8333 45.8333,94.1667 45.5,93.5C 43.9657,96.593 41.9657,99.2597 39.5,101.5C 40.8333,98.1667 42.1667,94.8333 43.5,91.5 Z"/></g>
<g><path style="opacity:1" fill="#3f3d41" d="M 68.5,103.5 C 68.631,104.239 68.4643,104.906 68,105.5C 67.6121,104.572 66.9454,103.905 66,103.5C 64.0858,104.079 62.4191,105.079 61,106.5C 56.5646,105.929 52.0646,105.929 47.5,106.5C 42.5684,106.741 37.9018,105.908 33.5,104C 32.7476,103.329 32.4142,102.496 32.5,101.5C 35.9236,102.64 39.2569,103.974 42.5,105.5C 44.359,104.31 46.1923,104.31 48,105.5C 50.0417,103.957 52.2083,102.624 54.5,101.5C 55.5739,103.216 57.2406,104.216 59.5,104.5C 60.4277,102.665 61.5944,102.332 63,103.5C 65.0937,101.079 66.7604,98.412 68,95.5C 68.4974,98.146 68.6641,100.813 68.5,103.5 Z"/></g>
<g><path style="opacity:1" fill="#2f2c2e" d="M 54.5,101.5 C 52.2083,102.624 50.0417,103.957 48,105.5C 46.1923,104.31 44.359,104.31 42.5,105.5C 39.2569,103.974 35.9236,102.64 32.5,101.5C 31.8333,101.5 31.1667,101.5 30.5,101.5C 29.1802,99.1829 27.5136,97.1829 25.5,95.5C 26.6246,94.9859 27.7913,94.6526 29,94.5C 29.6667,95.8333 30.3333,97.1667 31,98.5C 31.414,98.0426 31.914,97.7093 32.5,97.5C 34.7981,98.9795 37.1315,100.313 39.5,101.5C 41.9657,99.2597 43.9657,96.593 45.5,93.5C 45.8333,94.1667 46.1667,94.8333 46.5,95.5C 45.3516,97.7613 44.8516,100.095 45,102.5C 46.6667,100.167 48.3333,97.8333 50,95.5C 49.8276,98.3513 48.6609,100.851 46.5,103C 47,103.5 47.5,104 48,104.5C 50.4866,102.191 52.4866,99.5244 54,96.5C 54.4935,98.1341 54.6602,99.8008 54.5,101.5 Z"/></g>
<g><path style="opacity:1" fill="#5e738c" d="M 37.5,114.5 C 37.1667,115.167 36.8333,115.833 36.5,116.5C 33.5574,115.075 29.8907,113.575 25.5,112C 24.1068,109.178 22.1068,108.678 19.5,110.5C 17.9096,108.766 15.9096,107.6 13.5,107C 16.8186,103.043 15.8186,101.543 10.5,102.5C 10.6261,100.8 11.2927,99.3002 12.5,98C 10.7727,94.7242 10.106,91.2242 10.5,87.5C 9.5,87.5 8.5,87.5 7.5,87.5C 7.76373,84.2429 9.43039,82.2429 12.5,81.5C 10.4481,87.9521 12.2814,92.9521 18,96.5C 18.5946,97.8989 18.4279,99.2322 17.5,100.5C 19.8934,102.277 21.5601,104.61 22.5,107.5C 24.6198,106.128 25.6198,106.795 25.5,109.5C 26.8221,109.67 27.9887,109.337 29,108.5C 29.4561,109.744 28.9561,110.577 27.5,111C 30.8492,111.388 34.1825,111.221 37.5,110.5C 37.5,111.833 37.5,113.167 37.5,114.5 Z"/></g>
<g><path style="opacity:1" fill="#8a99af" d="M 110.5,90.5 C 111.404,91.209 111.737,92.209 111.5,93.5C 107.901,93.2619 107.567,94.2619 110.5,96.5C 107.869,100.898 109.202,103.231 114.5,103.5C 113.365,104.474 112.365,105.641 111.5,107C 111.5,109 111.5,111 111.5,113C 112.76,114.113 113.927,114.28 115,113.5C 115.45,116.106 116.95,117.439 119.5,117.5C 119.5,118.167 119.5,118.833 119.5,119.5C 115.167,119.5 110.833,119.5 106.5,119.5C 106.66,117.801 106.494,116.134 106,114.5C 104.082,113.458 102.249,112.292 100.5,111C 101,110.5 101.5,110 102,109.5C 103.049,110.517 104.216,110.684 105.5,110C 103.893,108.951 103.227,107.451 103.5,105.5C 103.267,103.938 102.6,102.605 101.5,101.5C 102.456,100.341 103.456,99.1739 104.5,98C 104.43,97.2352 104.097,96.7352 103.5,96.5C 102.662,93.3136 101.662,90.1469 100.5,87C 100.833,86.5 101.167,86 101.5,85.5C 104.188,88.0222 107.021,90.3555 110,92.5C 110.464,91.9056 110.631,91.2389 110.5,90.5 Z"/></g>
<g><path style="opacity:1" fill="#677b94" d="M 36.5,116.5 C 39.2903,116.778 41.7903,116.111 44,114.5C 44.772,114.645 45.4387,114.978 46,115.5C 47.5158,112.949 48.3491,113.282 48.5,116.5C 49.5,116.5 50.5,116.5 51.5,116.5C 54.7668,117.031 55.1001,118.031 52.5,119.5C 39.1667,119.5 25.8333,119.5 12.5,119.5C 13.347,118.034 14.6803,117.2 16.5,117C 15.944,116.617 15.6107,116.117 15.5,115.5C 16.8333,115.5 18.1667,115.5 19.5,115.5C 19.5,113.833 19.5,112.167 19.5,110.5C 22.1068,108.678 24.1068,109.178 25.5,112C 29.8907,113.575 33.5574,115.075 36.5,116.5 Z"/></g>
<g><path style="opacity:1" fill="#768292" d="M 88.5,100.5 C 89.1667,100.833 89.8333,101.167 90.5,101.5C 87.9847,102.917 85.9847,105.417 84.5,109C 83.451,109.492 82.451,109.326 81.5,108.5C 80.5135,112.375 79.3468,112.375 78,108.5C 77.2496,109.126 76.4162,109.626 75.5,110C 75.8333,110.333 76.1667,110.667 76.5,111C 73.7122,113.134 72.3789,115.968 72.5,119.5C 65.8333,119.5 59.1667,119.5 52.5,119.5C 55.1001,118.031 54.7668,117.031 51.5,116.5C 51.3505,115.448 51.5172,114.448 52,113.5C 53.6282,114.097 55.2949,113.763 57,112.5C 58.6909,115.131 59.8576,114.797 60.5,111.5C 61.7989,112.09 62.6322,113.09 63,114.5C 63.7096,113.027 64.8762,112.36 66.5,112.5C 66.5,111.5 66.5,110.5 66.5,109.5C 67.9305,109.421 69.2638,109.754 70.5,110.5C 71.2975,110.043 71.6309,109.376 71.5,108.5C 71.3505,107.448 71.5172,106.448 72,105.5C 73.1475,106.458 74.1475,106.125 75,104.5C 77.3738,107.288 78.7071,106.954 79,103.5C 79.9772,104.774 80.8106,104.774 81.5,103.5C 81.9281,100.756 83.0948,98.4229 85,96.5C 86.7706,97.3471 87.9373,98.6805 88.5,100.5 Z"/></g>
<g><path style="opacity:1" fill="#8592a4" d="M 101.5,101.5 C 102.6,102.605 103.267,103.938 103.5,105.5C 101.865,106.815 100.199,106.815 98.5,105.5C 96.9172,107.99 95.9172,110.657 95.5,113.5C 93.3352,113.116 91.6685,113.783 90.5,115.5C 92.188,116.521 93.5213,117.855 94.5,119.5C 88.8333,119.5 83.1667,119.5 77.5,119.5C 77.3505,118.448 77.5172,117.448 78,116.5C 80.0871,115.166 81.5871,113.333 82.5,111C 83.3317,110.312 83.9984,110.479 84.5,111.5C 83.8333,112.167 83.1667,112.833 82.5,113.5C 84.5313,115.404 86.5313,115.571 88.5,114C 87.6433,113.311 86.9767,112.478 86.5,111.5C 87.8333,111.167 89.1667,110.833 90.5,110.5C 90.98,108.051 91.98,105.885 93.5,104C 95.286,103.215 96.786,102.049 98,100.5C 99.0113,101.337 100.178,101.67 101.5,101.5 Z"/></g>
<g><path style="opacity:1" fill="#8a97ab" d="M 103.5,105.5 C 103.227,107.451 103.893,108.951 105.5,110C 104.216,110.684 103.049,110.517 102,109.5C 101.5,110 101,110.5 100.5,111C 102.249,112.292 104.082,113.458 106,114.5C 106.494,116.134 106.66,117.801 106.5,119.5C 102.5,119.5 98.5,119.5 94.5,119.5C 93.5213,117.855 92.188,116.521 90.5,115.5C 91.6685,113.783 93.3352,113.116 95.5,113.5C 95.9172,110.657 96.9172,107.99 98.5,105.5C 100.199,106.815 101.865,106.815 103.5,105.5 Z"/></g>
<g><path style="opacity:1" fill="#697484" d="M 71.5,108.5 C 71.6309,109.376 71.2975,110.043 70.5,110.5C 69.2638,109.754 67.9305,109.421 66.5,109.5C 66.5,110.5 66.5,111.5 66.5,112.5C 64.8762,112.36 63.7096,113.027 63,114.5C 62.6322,113.09 61.7989,112.09 60.5,111.5C 59.8576,114.797 58.6909,115.131 57,112.5C 55.2949,113.763 53.6282,114.097 52,113.5C 51.5172,114.448 51.3505,115.448 51.5,116.5C 50.5,116.5 49.5,116.5 48.5,116.5C 48.3491,113.282 47.5158,112.949 46,115.5C 45.4387,114.978 44.772,114.645 44,114.5C 41.7903,116.111 39.2903,116.778 36.5,116.5C 36.8333,115.833 37.1667,115.167 37.5,114.5C 41.3703,112.765 45.3703,111.432 49.5,110.5C 57.0949,107.227 64.4283,106.56 71.5,108.5 Z"/></g>
<g><path style="opacity:1" fill="#8d9db4" d="M 119.5,97.5 C 119.5,104.167 119.5,110.833 119.5,117.5C 116.95,117.439 115.45,116.106 115,113.5C 113.927,114.28 112.76,114.113 111.5,113C 111.5,111 111.5,109 111.5,107C 112.365,105.641 113.365,104.474 114.5,103.5C 114.047,102.542 113.381,101.708 112.5,101C 113.733,97.2124 116.066,96.0458 119.5,97.5 Z"/></g>
<g><path style="opacity:1" fill="#637b96" d="M 5.5,101.5 C 6.62988,103.374 7.62988,105.374 8.5,107.5C 7.39656,107.998 6.39656,108.331 5.5,108.5C 6.02527,109.192 6.69194,109.692 7.5,110C 6.16667,110.333 4.83333,110.667 3.5,111C 6.14936,111.452 8.64936,112.286 11,113.5C 15.8163,109.486 16.3163,109.819 12.5,114.5C 13.6364,114.964 14.6364,115.298 15.5,115.5C 15.6107,116.117 15.944,116.617 16.5,117C 14.6803,117.2 13.347,118.034 12.5,119.5C 8.16667,119.5 3.83333,119.5 -0.5,119.5C -0.5,114.167 -0.5,108.833 -0.5,103.5C 1.02449,102.826 2.35782,101.826 3.5,100.5C 4.18346,100.863 4.85013,101.196 5.5,101.5 Z"/></g>
</svg>
